<?xml version="1.0" encoding="UTF-8"?>
<svg width="221px" height="115px" viewBox="0 0 221 115" version="1.1" xmlns="http://www.w3.org/2000/svg" xmlns:xlink="http://www.w3.org/1999/xlink">
    <!-- Generator: Sketch 50.2 (55047) - http://www.bohemiancoding.com/sketch -->
    <title>Group 7</title>
    <desc>Created with Sketch.</desc>
    <defs></defs>
    <g id="Page-1" stroke="none" stroke-width="1" fill="none" fill-rule="evenodd">
        <g id="Desktop/1920_story_KENYA" transform="translate(-494.000000, -5323.000000)" fill="#040404">
            <g id="Group-7" transform="translate(494.000000, 5323.000000)">
                <g id="kit">
                    <path d="M215.866469,40.4647017 C212.612019,49.9457163 208.8112,59.2745511 206.24055,68.9421485 C204.352787,76.0419066 204.066042,83.5823971 203.073861,90.9276264 C202.991586,91.5375851 202.972693,92.156532 202.898645,93.0981247 L198.854656,93.0981247 C189.364644,93.0981247 179.874631,93.0733297 170.385229,93.1247794 C168.985633,93.1325279 168.351502,92.8343672 168.169582,91.251512 C167.076538,81.7435328 165.478262,72.278635 164.789891,62.7440011 C163.905887,50.5005059 163.691667,38.2058709 163.261397,25.9304521 C163.181864,23.6613933 164.470541,22.4086224 166.425648,22.4098622 C168.352417,22.4111019 169.559732,23.6400076 169.60666,25.9493583 C169.686497,29.9057215 169.638046,33.8648742 169.638046,37.823097 C169.638046,39.2621409 170.158514,40.3645916 171.717481,40.3097325 C173.178936,40.2582828 173.86426,39.26648 173.840492,37.7840448 C173.832873,37.2980614 173.841406,36.8117681 173.841406,36.3257848 C173.84171,29.7981729 173.840796,23.270871 173.842625,16.743569 C173.842929,16.1881595 173.796916,15.6231418 173.879496,15.0792 C174.148872,13.3032532 175.282444,12.4146599 176.966653,12.3204386 C178.639586,12.2268372 179.712518,13.1520033 180.009015,14.7897176 C180.204343,15.8692329 180.154673,17.0008179 180.156806,18.1091574 C180.16869,24.2199022 180.161986,30.330647 180.16351,36.4413918 C180.16351,36.9968013 179.976105,37.6820751 180.225369,38.0806558 C180.748275,38.9174894 181.402821,40.0689104 182.187485,40.2458852 C183.456964,40.5319583 184.355594,39.5116412 184.408616,38.1293161 C184.486016,36.118746 184.44366,34.1029068 184.444269,32.0892373 C184.446402,24.6590849 184.43726,17.2289325 184.450059,9.79878009 C184.45463,7.22288235 185.588202,5.79902551 187.569516,5.79189692 C189.546259,5.78476834 190.713046,7.22970099 190.716703,9.79196145 C190.730111,18.7498 190.71975,27.7076386 190.727368,36.6654772 C190.727978,37.3563299 190.575921,38.1878945 190.89131,38.703322 C191.306648,39.3817771 192.142201,40.2694405 192.746468,40.2316281 C193.479938,40.1854472 194.32128,39.3845665 194.809143,38.688135 C195.146168,38.2068007 195.00508,37.3488913 195.005995,36.6592785 C195.017269,29.9236979 194.960896,23.1871876 195.064197,16.4528468 C195.081871,15.3082445 195.470394,13.8468851 196.232203,13.1337169 C196.900462,12.5085712 198.41372,12.399163 199.409253,12.6514528 C200.887163,13.0258583 201.338154,14.3970257 201.333584,15.9429982 C201.306768,24.6925582 201.32109,33.4421183 201.321699,42.1916783 C201.321699,42.7470878 201.148616,43.38959 201.363751,43.8396205 C201.768729,44.687302 202.281579,45.9007107 202.967208,46.0742762 C203.667158,46.2515609 204.968938,45.5901524 205.414749,44.9002296 C207.171481,42.1792807 208.687177,39.2980937 210.312269,36.4881925 C210.655388,35.8946605 211.012524,35.2809826 211.483323,34.7971688 C212.562045,33.6872795 214.046354,33.3283709 215.199734,34.2120051 C216.011213,34.8337415 216.548136,36.1918914 216.663627,37.2807049 C216.772413,38.3022617 216.224215,39.4226889 215.866469,40.4647017 Z M168.615698,101.52039 L202.841357,101.52039 L202.841357,97.5445005 L168.615698,97.5445005 L168.615698,101.52039 Z M166.732505,105.878743 C166.756578,105.879053 166.771205,105.887731 166.795583,105.887731 C166.777299,105.922754 166.755664,105.911597 166.732505,105.878743 Z M156.830506,99.9775167 C159.355752,99.6006316 161.852659,99.2283956 164.356269,98.8549199 C164.383999,100.196023 164.380038,101.540226 164.350175,102.886908 C162.035188,103.232179 159.721421,103.577141 157.399426,103.923342 C157.20745,102.590607 157.032234,101.375649 156.830506,99.9775167 Z M155.103942,92.010551 C151.902209,79.5934903 148.48138,67.2269496 145.638003,54.7249658 C143.779188,46.5518912 142.73429,38.1844852 141.412398,29.8896047 C141.011991,27.3775543 142.648663,25.5768124 144.875584,25.9289024 C146.663703,26.2115662 147.502607,27.5359328 147.759185,29.2625994 C148.309821,32.9713219 148.798902,36.6902723 149.403474,40.3896966 C149.528106,41.152145 149.879757,42.0655334 150.435878,42.5062657 C150.893878,42.8695135 152.153301,42.9448285 152.448883,42.6029665 C153.039133,41.9204822 153.596778,40.8161718 153.494695,39.9700401 C152.845634,34.5941592 152.012214,29.2409037 151.240958,23.8802098 C150.954213,21.8869962 150.612009,19.8996714 150.404187,17.8977795 C150.220743,16.1314407 151.310436,14.732379 152.944669,14.4174816 C154.587435,14.1010345 156.02116,15.0097738 156.52365,16.7491479 C156.714711,17.4108663 156.796682,18.1085376 156.896022,18.7944312 C157.627969,23.8430172 158.354735,28.8922231 159.078454,33.9420488 C159.140313,44.8066282 159.634879,55.6550909 160.904358,66.4632615 C161.997707,75.7741199 163.605125,85.0338384 164.170692,94.3949069 C162.684859,94.6168227 161.199331,94.8390485 159.713498,95.0606545 C156.073573,95.6036665 156.033044,95.6142044 155.103942,92.010551 Z M159.468195,22.9711606 C159.438637,23.0681713 159.399328,23.1586733 159.373426,23.2578535 C159.374645,23.2197311 159.375255,23.1720006 159.377997,23.1515447 C159.387748,23.0818086 159.441684,23.0331482 159.468195,22.9711606 Z M162.561446,6.39782643 C164.342252,6.10617442 165.770492,7.21575377 166.178517,9.23376246 C166.302235,9.84496091 166.369274,10.4685569 166.458558,11.0871939 C166.802896,13.475269 167.146625,15.863654 167.490658,18.2517291 C167.296854,18.2263141 167.099088,18.191911 166.906807,18.1754843 C164.744183,17.9923107 162.80035,18.6425614 161.393135,19.8875838 C160.927517,16.6691838 160.457938,13.4514037 160.009385,10.2308342 C159.722335,8.17129374 160.778203,6.68978836 162.561446,6.39782643 Z M216.833967,30.1939642 C212.940816,28.5925127 209.386214,29.7960033 207.137048,33.488609 C206.73725,34.1450585 206.378285,34.8275427 206.000428,35.4979394 C205.538162,34.7906601 205.538771,34.2603555 205.538162,33.7303609 C205.530239,27.6186863 205.596364,21.505772 205.488492,15.3962669 C205.415358,11.252701 203.276502,8.82743326 199.246835,8.17067387 C197.888377,7.94937788 196.466231,8.13565083 195.011175,8.13565083 C193.546368,3.46797907 191.596745,1.56898671 187.685311,1.62074642 C186.262251,1.63965266 184.491501,1.95393016 183.512119,2.8493421 C181.936088,4.28993561 180.8854,6.32499091 179.465083,8.31541508 C179.247815,8.28380137 179.050354,8.2630355 178.843142,8.23669074 C176.99164,6.81717303 174.411849,6.58626895 171.196099,7.65927557 C170.949273,7.74202911 170.697266,7.80959567 170.460496,7.88026162 C167.951095,3.05607098 165.69614,1.55844881 161.979729,2.20095104 C158.093586,2.87258747 156.294193,5.0533138 155.495207,10.0588184 C147.782953,10.1917819 145.986302,12.4918345 146.542423,21.5807771 C145.287266,21.6638405 143.999808,21.5987535 142.77878,21.857862 C139.076386,22.6444855 136.680952,25.8247631 137.183137,29.6131397 C139.291521,45.516697 142.001125,61.2984486 146.601539,76.6943269 C149.399513,86.0578748 152.0113,95.4741122 153.172298,105.236861 C153.56082,108.504541 154.073366,108.823158 157.300695,108.342443 C162.786637,107.524826 168.272579,106.706279 173.758216,105.887731 C184.138022,105.881842 194.517827,105.877813 204.897328,105.888661 C206.44502,105.890521 207.151065,105.109166 207.189155,103.607515 C207.215666,102.566122 207.225417,101.523799 207.207743,100.482716 C206.929226,84.2698404 209.267371,68.5544156 215.507809,53.5146565 C217.464745,48.7973946 219.167542,43.948099 220.63113,39.0492132 C221.812544,35.0953295 220.052155,31.517711 216.833967,30.1939642 Z" id="Fill-1"></path>
                    <path d="M100.961281,33.4200949 C99.3120383,33.4200949 97.9701001,34.7185331 97.9701001,36.3143143 L97.9701001,44.6716012 C97.9701001,46.2673823 99.3120383,47.5658205 100.961281,47.5658205 L124.878135,47.5658205 C126.527378,47.5658205 127.869316,46.2673823 127.869316,44.6716012 L127.869316,36.3143143 C127.869316,34.7185331 126.527378,33.4200949 124.878135,33.4200949 L100.961281,33.4200949 Z M124.878135,51.8309859 L100.961281,51.8309859 C96.8813102,51.8309859 93.5620438,48.6193164 93.5620438,44.6716012 L93.5620438,36.3143143 C93.5620438,32.3665991 96.8813102,29.1549296 100.961281,29.1549296 L124.878135,29.1549296 C128.958106,29.1549296 132.277372,32.3665991 132.277372,36.3143143 L132.277372,44.6716012 C132.277372,48.6193164 128.958106,51.8309859 124.878135,51.8309859 Z" id="Fill-3"></path>
                    <path d="M100.961281,4.26516537 C99.3120383,4.26516537 97.9701001,5.56360357 97.9701001,7.15938473 L97.9701001,15.5166716 C97.9701001,17.1124528 99.3120383,18.410891 100.961281,18.410891 L124.878135,18.410891 C126.527378,18.410891 127.869316,17.1124528 127.869316,15.5166716 L127.869316,7.15938473 C127.869316,5.56360357 126.527378,4.26516537 124.878135,4.26516537 L100.961281,4.26516537 Z M124.878135,22.6760563 L100.961281,22.6760563 C96.8813102,22.6760563 93.5620438,19.4643868 93.5620438,15.5166716 L93.5620438,7.15938473 C93.5620438,3.21166952 96.8813102,0 100.961281,0 L124.878135,0 C128.958106,0 132.277372,3.21166952 132.277372,7.15938473 L132.277372,15.5166716 C132.277372,19.4643868 128.958106,22.6760563 124.878135,22.6760563 Z" id="Fill-5"></path>
                    <path d="M114.946853,90.3941431 L110.315986,90.3941431 C108.185614,90.3941431 106.452293,88.594299 106.452293,86.3817833 C106.452293,84.1692677 108.185614,82.3691128 110.315986,82.3691128 L114.946853,82.3691128 C117.077225,82.3691128 118.810547,84.1692677 118.810547,86.3817833 C118.810547,88.594299 117.077225,90.3941431 114.946853,90.3941431 Z M120.083983,105.790393 L123.249022,105.790393 L123.249022,67.5194662 L120.083983,67.5194662 C120.02444,71.8618388 116.604175,75.3751396 112.409256,75.3751396 C108.213739,75.3751396 104.793475,71.8618388 104.733932,67.5194662 L102.590394,67.5194662 L102.590394,105.790393 L104.733932,105.790393 C104.793475,101.44771 108.213739,97.9344088 112.409256,97.9344088 C116.604175,97.9344088 120.02444,101.44771 120.083983,105.790393 Z M127.437956,110.140845 L114.571046,110.140845 L115.662562,107.186577 C115.817254,106.766759 115.895946,106.336375 115.895946,105.906301 C115.895946,103.909444 114.331678,102.284861 112.409256,102.284861 C110.486536,102.284861 108.921969,103.909444 108.921969,105.906301 C108.921969,106.335753 109.000661,106.766448 109.15595,107.186577 L110.247168,110.140845 L98.4014599,110.140845 L98.4014599,63.1690141 L110.247766,63.1690141 L109.15595,66.1235925 C109.000661,66.5434112 108.921969,66.9741059 108.921969,67.4035577 C108.921969,69.4001044 110.486536,71.0246875 112.409256,71.0246875 C114.331678,71.0246875 115.895946,69.4001044 115.895946,67.4035577 C115.895946,66.9734844 115.817254,66.5427897 115.662562,66.1235925 L114.570447,63.1690141 L127.437956,63.1690141 L127.437956,110.140845 Z" id="Fill-7"></path>
                    <path d="M4.66778298,110.801956 L82.8411049,110.801956 L82.8411049,91.2432703 L81.3962568,85.7960087 L82.8411049,78.2170404 L82.8411049,77.0853677 L5.06718178,77.0853677 L5.87665035,81.7026161 L4.66778298,86.2209107 L4.66778298,110.801956 Z M87.1094891,115 L0.399398805,115 L0.399398805,85.6781636 L1.5128373,81.5170026 L0,72.8873239 L87.1094891,72.8873239 L87.1094891,78.6071586 L85.7673871,85.6457787 L87.1094891,90.7050211 L87.1094891,115 Z" id="Fill-9"></path>
                    <polygon id="Fill-11" points="3.22627737 82.6056338 85.4963504 82.6056338 85.4963504 79.3661972 3.22627737 79.3661972"></polygon>
                    <path d="M18.7622509,62.0706526 L82.8654864,62.0706526 L82.8654864,5.95751639 L18.7622509,5.95751639 L18.7622509,62.0706526 Z M14.5182482,66.4084507 L87.1094891,66.4084507 L87.1094891,1.61971831 L14.5182482,1.61971831 L14.5182482,66.4084507 Z" id="Fill-13"></path>
                    <path d="M55.6946819,32.730973 L79.8092588,32.730973 L79.8092588,25.5788862 L55.6946819,25.5788862 L55.6946819,32.730973 Z M51.620438,37.2535211 L83.8832117,37.2535211 L83.8832117,21.056338 L51.620438,21.056338 L51.620438,37.2535211 Z" id="Fill-14"></path>
                    <polygon id="Fill-15" points="73.9155856 55.0704225 16.1313869 55.0704225 16.1313869 50.8826305 71.9775433 50.8826305 82.2986406 38.8732394 85.4963504 41.5950051"></polygon>
                </g>
            </g>
        </g>
    </g>
</svg>