<?xml version="1.0" encoding="UTF-8"?>
<svg width="67px" height="67px" viewBox="0 0 67 67" version="1.1" xmlns="http://www.w3.org/2000/svg" xmlns:xlink="http://www.w3.org/1999/xlink">
    <!-- Generator: Sketch 50.2 (55047) - http://www.bohemiancoding.com/sketch -->
    <title>Fill 7</title>
    <desc>Created with Sketch.</desc>
    <defs></defs>
    <g id="Desktop" stroke="none" stroke-width="1" fill="none" fill-rule="evenodd">
        <g id="Desktop/1920_story_KENYA" transform="translate(-1153.000000, -5399.000000)" fill="#040404">
            <path d="M1188.66807,5436.78107 L1182.95273,5436.78107 C1180.32346,5436.78107 1178.18423,5434.55974 1178.18423,5431.82909 C1178.18423,5429.09844 1180.32346,5426.87672 1182.95273,5426.87672 L1188.66807,5426.87672 C1191.29734,5426.87672 1193.43657,5429.09844 1193.43657,5431.82909 C1193.43657,5434.55974 1191.29734,5436.78107 1188.66807,5436.78107 Z M1195.00822,5455.78286 L1198.91446,5455.78286 L1198.91446,5408.54954 L1195.00822,5408.54954 C1194.93474,5413.90882 1190.71351,5418.24488 1185.53621,5418.24488 C1180.35817,5418.24488 1176.13694,5413.90882 1176.06345,5408.54954 L1173.41794,5408.54954 L1173.41794,5455.78286 L1176.06345,5455.78286 C1176.13694,5450.4232 1180.35817,5446.08714 1185.53621,5446.08714 C1190.71351,5446.08714 1194.93474,5450.4232 1195.00822,5455.78286 Z M1204.08437,5461.15212 L1188.20425,5461.15212 L1189.55138,5457.50601 C1189.7423,5456.98788 1189.83942,5456.4567 1189.83942,5455.92591 C1189.83942,5453.46143 1187.90883,5451.45639 1185.53621,5451.45639 C1183.16322,5451.45639 1181.23226,5453.46143 1181.23226,5455.92591 C1181.23226,5456.45594 1181.32938,5456.98749 1181.52103,5457.50601 L1182.8678,5461.15212 L1168.24803,5461.15212 L1168.24803,5403.18028 L1182.86853,5403.18028 L1181.52103,5406.82677 C1181.32938,5407.34491 1181.23226,5407.87646 1181.23226,5408.40649 C1181.23226,5410.87059 1183.16322,5412.87562 1185.53621,5412.87562 C1187.90883,5412.87562 1189.83942,5410.87059 1189.83942,5408.40649 C1189.83942,5407.8757 1189.7423,5407.34414 1189.55138,5406.82677 L1188.20351,5403.18028 L1204.08437,5403.18028 L1204.08437,5461.15212 Z" id="Fill-7" transform="translate(1186.166200, 5432.166200) rotate(45.000000) translate(-1186.166200, -5432.166200) "></path>
        </g>
    </g>
</svg>