<?xml version="1.0" encoding="UTF-8"?>
<svg width="154px" height="107px" viewBox="0 0 154 107" version="1.1" xmlns="http://www.w3.org/2000/svg" xmlns:xlink="http://www.w3.org/1999/xlink">
    <!-- Generator: Sketch 50.2 (55047) - http://www.bohemiancoding.com/sketch -->
    <title>Group 7</title>
    <desc>Created with Sketch.</desc>
    <defs></defs>
    <g id="Desktop" stroke="none" stroke-width="1" fill="none" fill-rule="evenodd">
        <g id="Desktop/1920_story_KENYA" transform="translate(-753.000000, -5381.000000)" fill="#040404">
            <g id="Group-7" transform="translate(753.000000, 5381.000000)">
                <g id="Group-9" transform="translate(97.000000, 21.000000)">
                    <path d="M9.74707222,40.6427343 C7.57451204,40.6427343 5.80676643,42.3605439 5.80676643,44.4717326 L5.80676643,55.5282674 C5.80676643,57.6394561 7.57451204,59.3572657 9.74707222,59.3572657 L41.2529278,59.3572657 C43.425488,59.3572657 45.1932336,57.6394561 45.1932336,55.5282674 L45.1932336,44.4717326 C45.1932336,42.3605439 43.425488,40.6427343 41.2529278,40.6427343 L9.74707222,40.6427343 Z M41.2529278,65 L9.74707222,65 C4.37249512,65 0,60.7510211 0,55.5282674 L0,44.4717326 C0,39.2489789 4.37249512,35 9.74707222,35 L41.2529278,35 C46.6275049,35 51,39.2489789 51,44.4717326 L51,55.5282674 C51,60.7510211 46.6275049,65 41.2529278,65 Z" id="Fill-3"></path>
                    <path d="M15.7470722,5.64273431 C13.574512,5.64273431 11.8067664,7.36054385 11.8067664,9.47173259 L11.8067664,20.5282674 C11.8067664,22.6394561 13.574512,24.3572657 15.7470722,24.3572657 L47.2529278,24.3572657 C49.425488,24.3572657 51.1932336,22.6394561 51.1932336,20.5282674 L51.1932336,9.47173259 C51.1932336,7.36054385 49.425488,5.64273431 47.2529278,5.64273431 L15.7470722,5.64273431 Z M47.2529278,30 L15.7470722,30 C10.3724951,30 6,25.7510211 6,20.5282674 L6,9.47173259 C6,4.24897893 10.3724951,0 15.7470722,0 L47.2529278,0 C52.6275049,0 57,4.24897893 57,9.47173259 L57,20.5282674 C57,25.7510211 52.6275049,30 47.2529278,30 Z" id="Fill-5"></path>
                </g>
                <path d="M78.7496809,38.8449834 C75.4952311,48.3259979 71.6944116,57.6548328 69.1237619,67.3224302 C67.2359982,74.4221883 66.9492532,81.9626788 65.9570726,89.3079081 C65.8747972,89.9178668 65.8559043,90.5368137 65.7818565,91.4784064 L61.7378674,91.4784064 C52.2478553,91.4784064 42.7578432,91.4536114 33.2684405,91.5050611 C31.8688443,91.5128096 31.2347141,91.2146489 31.052794,89.6317937 C29.9597499,80.1238145 28.3614738,70.6589167 27.6731028,61.1242828 C26.7890992,48.8807876 26.5748784,36.5861526 26.1446084,24.3107338 C26.0650755,22.041675 27.3537523,20.7889041 29.3088599,20.7901439 C31.2356283,20.7913836 32.4429438,22.0202892 32.4898713,24.32964 C32.5697089,28.2860032 32.5212578,32.2451559 32.5212578,36.2033787 C32.5212578,37.6424225 33.041726,38.7448733 34.6006928,38.6900142 C36.062148,38.6385644 36.7474717,37.6467617 36.7237032,36.1643265 C36.7160851,35.6783431 36.7246174,35.1920498 36.7246174,34.7060665 C36.7249221,28.1784546 36.724008,21.6511527 36.7258363,15.1238507 C36.726141,14.5684412 36.6801277,14.0034235 36.7627079,13.4594817 C37.0320837,11.6835349 38.1656561,10.7949416 39.8498643,10.7007203 C41.5227978,10.6071189 42.5957301,11.5322849 42.8922264,13.1699993 C43.0875543,14.2495146 43.0378843,15.3810995 43.0400174,16.4894391 C43.0519016,22.6001839 43.0451977,28.7109287 43.0467213,34.8216735 C43.0467213,35.377083 42.8593162,36.0623568 43.1085802,36.4609375 C43.6314862,37.2977711 44.2860328,38.4491921 45.0706965,38.6261669 C46.3401757,38.91224 47.2388061,37.8919229 47.291828,36.5095978 C47.3692279,34.4990277 47.3268713,32.4831885 47.3274807,30.469519 C47.3296138,23.0393666 47.3204721,15.6092142 47.3332705,8.17906178 C47.3378413,5.60316404 48.4714137,4.1793072 50.4527276,4.17217861 C52.4294707,4.16505003 53.5962579,5.60998268 53.5999146,8.17224314 C53.6133225,17.1300817 53.6029619,26.0879203 53.61058,35.0457589 C53.6111894,35.7366115 53.4591322,36.5681762 53.7745213,37.0836037 C54.1898598,37.7620587 55.0254124,38.6497222 55.6296796,38.6119097 C56.3631497,38.5657289 57.204492,37.7648482 57.6923547,37.0684167 C58.0293792,36.5870824 57.8882921,35.729173 57.8892063,35.0395602 C57.9004811,28.3039796 57.8441072,21.5674693 57.9474085,14.8331285 C57.9650825,13.6885261 58.3536053,12.2271668 59.1154147,11.5139986 C59.7836739,10.8888529 61.2969321,10.7794447 62.2924647,11.0317345 C63.7703749,11.40614 64.2213661,12.7773074 64.2167952,14.3232799 C64.1899795,23.0728399 64.2043015,31.8223999 64.204911,40.57196 C64.204911,41.1273695 64.0318279,41.7698717 64.2469629,42.2199022 C64.6519407,43.0675837 65.1647908,44.2809924 65.8504193,44.4545578 C66.5503698,44.6318426 67.8521497,43.9704341 68.2979606,43.2805113 C70.054693,40.5595624 71.570389,37.6783754 73.1954809,34.8684742 C73.5385998,34.2749422 73.8957361,33.6612643 74.3665343,33.1774505 C75.4452564,32.0675612 76.9295658,31.7086526 78.0829453,32.5922868 C78.8944247,33.2140232 79.4313479,34.5721731 79.5468382,35.6609866 C79.6556246,36.6825434 79.1074266,37.8029706 78.7496809,38.8449834 Z M31.4989096,99.9006715 L65.7245684,99.9006715 L65.7245684,95.9247822 L31.4989096,95.9247822 L31.4989096,99.9006715 Z M29.6157168,104.259025 C29.63979,104.259335 29.6544167,104.268013 29.6787946,104.268013 C29.6605112,104.303036 29.6388758,104.291878 29.6157168,104.259025 Z M19.7137181,98.3577984 C22.2389639,97.9809133 24.7358705,97.6086773 27.2394809,97.2352016 C27.2672107,98.5763049 27.2632493,99.9205076 27.2333864,101.26719 C24.9184,101.612461 22.6046325,101.957423 20.2826374,102.303624 C20.0906614,100.970889 19.9154453,99.7559303 19.7137181,98.3577984 Z M17.9871533,90.3908327 C14.7854207,77.973772 11.3645918,65.6072313 8.52121436,53.1052475 C6.66239941,44.9321729 5.61750163,36.5647668 4.29560995,28.2698864 C3.89520293,25.757836 5.53187425,23.9570941 7.75879551,24.3091841 C9.54691454,24.5918478 10.3858191,25.9162145 10.6423965,27.6428811 C11.1930323,31.3516036 11.6821139,35.070554 12.2866859,38.7699783 C12.4113179,39.5324267 12.7629691,40.445815 13.31909,40.8865474 C13.7770898,41.2497952 15.0365131,41.3251102 15.3320952,40.9832482 C15.9223451,40.3007639 16.4799896,39.1964535 16.3779071,38.3503218 C15.7288455,32.9744408 14.895426,27.6211854 14.1241702,22.2604915 C13.8374251,20.2672779 13.4952203,18.2799531 13.2873987,16.2780612 C13.103955,14.5117224 14.1936472,13.1126607 15.8278807,12.7977633 C17.4706465,12.4813162 18.9043718,13.3900555 19.4068613,15.1294296 C19.5979231,15.791148 19.6798938,16.4888193 19.7792337,17.1747129 C20.5111802,22.2232989 21.2379464,27.2725048 21.9616653,32.3223305 C22.0235242,43.1869099 22.5180909,54.0353726 23.7875701,64.8435432 C24.880919,74.1544016 26.4883368,83.4141201 27.0539041,92.7751885 C25.568071,92.9971044 24.0825427,93.2193302 22.5967096,93.4409361 C18.9567843,93.9839482 18.916256,93.9944861 17.9871533,90.3908327 Z M22.351407,21.3514423 C22.3218488,21.448453 22.2825394,21.538955 22.2566379,21.6381352 C22.2578568,21.6000128 22.2584663,21.5522823 22.2612088,21.5318264 C22.2709599,21.4620902 22.324896,21.4134299 22.351407,21.3514423 Z M25.4446579,4.77810812 C27.2254636,4.48645612 28.6537039,5.59603546 29.061729,7.61404415 C29.1854468,8.2252426 29.252486,8.84883859 29.3417701,9.46747556 C29.686108,11.8555507 30.0298364,14.2439357 30.3738695,16.6320108 C30.1800652,16.6065958 29.9822995,16.5721927 29.7900188,16.5557659 C27.6273942,16.3725924 25.6835614,17.0228431 24.276347,18.2678655 C23.8107291,15.0494655 23.3411498,11.8316854 22.8925964,8.61111586 C22.6055466,6.55157543 23.6614145,5.07007005 25.4446579,4.77810812 Z M79.7171788,28.5742459 C75.824028,26.9727944 72.2694253,28.176285 70.0202593,31.8688907 C69.6204617,32.5253402 69.2614971,33.2078244 68.8836396,33.8782211 C68.4213737,33.1709418 68.4219831,32.6406372 68.4213737,32.1106426 C68.4134509,25.998968 68.4795759,19.8860537 68.3717037,13.7765486 C68.29857,9.63298265 66.1597139,7.20771495 62.1300469,6.55095556 C60.7715884,6.32965957 59.3494426,6.51593252 57.8943866,6.51593252 C56.4295795,1.84826076 54.4799568,-0.0507315955 50.5685226,0.00102811133 C49.1454627,0.0199343515 47.3747129,0.334211853 46.3953307,1.22962379 C44.8192994,2.6702173 43.7686119,4.7052726 42.3482944,6.69569677 C42.1310264,6.66408306 41.9335654,6.64331719 41.7263532,6.61697243 C39.8748517,5.19745472 37.2950603,4.96655064 34.0793104,6.03955726 C33.8324842,6.1223108 33.5804776,6.18987736 33.3437073,6.26054331 C30.8343071,1.43635267 28.5793513,-0.0612694998 24.8629403,0.581232729 C20.9767981,1.25286916 19.1774043,3.43359549 18.3784186,8.43910007 C10.6661649,8.57206363 8.86951362,10.8721162 9.42563448,19.9610588 C8.17047731,20.0441222 6.88301941,19.9790352 5.6619913,20.2381436 C1.95959759,21.0247672 -0.435835899,24.2050448 0.0663488605,27.9934214 C2.17473257,43.8969787 4.88433626,59.6787303 9.48475089,75.0746086 C12.2827245,84.4381565 14.8945118,93.8543939 16.0555094,103.617142 C16.4440322,106.884823 16.9565775,107.203439 20.1839069,106.722725 C25.6698488,105.905107 31.1557907,105.08656 36.6414278,104.268013 C47.0212333,104.262124 57.4010388,104.258095 67.7805396,104.268943 C69.3282316,104.270802 70.0342765,103.489448 70.072367,101.987796 C70.098878,100.946404 70.1086291,99.9040809 70.0909552,98.8629979 C69.8124377,82.6501221 72.1505831,66.9346973 78.391021,51.8949382 C80.347957,47.1776763 82.0507534,42.3283807 83.5143416,37.4294949 C84.6957556,33.4756112 82.9353665,29.8979926 79.7171788,28.5742459 Z" id="Fill-1"></path>
            </g>
        </g>
    </g>
</svg>