<?xml version="1.0" encoding="UTF-8" standalone="no"?>
<svg width="60px" height="53px" viewBox="0 0 60 53" version="1.1" xmlns="http://www.w3.org/2000/svg" xmlns:xlink="http://www.w3.org/1999/xlink">
    <!-- Generator: Sketch 50.2 (55047) - http://www.bohemiancoding.com/sketch -->
    <title>Group 6</title>
    <desc>Created with Sketch.</desc>
    <defs></defs>
    <g id="Mobile" stroke="none" stroke-width="1" fill="none" fill-rule="evenodd">
        <g id="Mobile/reverse" transform="translate(-254.000000, -114.000000)">
            <g id="Group-6" transform="translate(254.000000, 114.000000)">
                <g id="Group-5" opacity="0.8" transform="translate(18.000000, 10.500000) scale(-1, 1) rotate(-270.000000) translate(-18.000000, -10.500000) translate(9.500000, 2.500000)" stroke="#979797">
                    <path d="M16.5,0 C9.04415588,0 3,6.04415588 3,13.5" id="Oval-2"></path>
                    <path d="M4.31769689,12.4719294 L2.14917552,14.6404508 L4.31769689,14.6404508 L4.31769689,12.4719294 Z" id="Rectangle-3" transform="translate(2.879883, 13.202637) rotate(46.000000) translate(-2.879883, -13.202637) "></path>
                </g>
                <g id="Group" transform="translate(30.000000, 0.000000)" stroke="#FFFFFF">
                    <rect id="Rectangle-7" x="0.5" y="0.5" width="29" height="52" rx="2"></rect>
                    <rect id="Rectangle-4" x="9.5" y="4.5" width="11" height="1" rx="0.5"></rect>
                    <circle id="Oval" cx="15" cy="47" r="1"></circle>
                </g>
                <g id="Group" opacity="0.49" transform="translate(15.500000, 37.000000) rotate(-90.000000) translate(-15.500000, -37.000000) translate(0.500000, 21.500000)" stroke="#FFFFFF">
                    <path d="M29.5,30.5 L29.5,2 C29.5,1.17157288 28.8284271,0.5 28,0.5 L2,0.5 C1.17157288,0.5 0.5,1.17157288 0.5,2 L0.5,30.5 L29.5,30.5 Z" id="Combined-Shape"></path>
                    <rect id="Rectangle-4" x="9.5" y="4.5" width="11" height="1" rx="0.5"></rect>
                </g>
            </g>
        </g>
    </g>
</svg>