<?xml version="1.0" encoding="UTF-8"?>
<svg width="188px" height="34px" viewBox="0 0 188 34" version="1.1" xmlns="http://www.w3.org/2000/svg" xmlns:xlink="http://www.w3.org/1999/xlink">
    <!-- Generator: Sketch 50.2 (55047) - http://www.bohemiancoding.com/sketch -->
    <title>Fill 1</title>
    <desc>Created with Sketch.</desc>
    <defs></defs>
    <g id="Symbols" stroke="none" stroke-width="1" fill="none" fill-rule="evenodd">
        <g id="a_icon_jnj_white" fill="#FEFEFE">
            <path d="M6.8306,18.8473 C7.2016,20.8843 7.5186,22.9433 7.5186,24.7563 C7.5186,28.6503 6.2116,31.4433 4.3386,31.4443 C2.8226,31.4433 2.8226,29.8093 2.8236,28.7093 C2.8226,25.3753 4.5316,21.8643 6.8276,18.8463 L6.8306,18.8473 Z M6.6796,18.0803 C6.2736,18.5903 5.8786,19.1153 5.5006,19.6503 L5.4986,19.6513 C3.6516,17.8443 2.1696,13.9603 2.1696,10.7883 C2.1696,2.9123 7.3996,0.6833 7.6676,0.6833 C8.0536,0.6833 7.9346,0.7723 7.9346,1.3073 C7.9346,2.1103 5.6766,5.8543 5.6766,11.1153 C5.6766,12.9623 6.1966,15.4623 6.6836,18.0563 L6.6796,18.0803 Z M20.7986,13.2043 C19.7556,13.1423 18.8126,12.9363 18.8126,12.2743 C18.8126,12.0363 18.9906,11.8583 19.2876,11.8583 C19.9816,11.8583 20.4836,12.4523 20.8006,13.2003 L20.7986,13.2043 Z M27.6966,9.7523 C27.6776,7.5523 27.5136,1.3673 29.1846,1.3673 C29.8386,1.3673 29.9276,2.0803 29.9276,3.3283 C29.9276,5.9673 28.9586,8.1313 27.7026,9.7553 L27.6966,9.7523 Z M56.2806,16.9503 C56.4486,17.5833 56.5566,18.2623 56.5566,18.9313 C56.5576,19.4963 56.2596,19.9123 55.9326,19.9123 C55.5756,19.9123 55.4576,19.5553 55.4576,18.9613 C55.4576,18.3733 55.7626,17.6773 56.2656,16.9503 L56.2806,16.9503 Z M69.7866,12.9543 C69.5086,13.0133 69.2296,13.0473 68.9506,13.0473 C68.1476,13.0473 67.6716,12.7203 67.6716,12.1853 C67.6726,11.9473 67.9396,11.6503 68.2366,11.6503 C68.8786,11.6503 69.4126,12.2163 69.7916,12.9443 L69.7866,12.9543 Z M95.2376,17.9743 L95.2486,17.9563 C94.7316,16.6953 93.8226,15.4843 91.9826,15.4843 C91.4776,15.4843 91.2106,15.9303 91.2106,16.4653 C91.2106,17.4453 92.7556,18.0693 94.1826,18.0693 C94.4806,18.0693 94.8386,18.0333 95.2376,17.9743 Z M106.6606,18.8543 L106.6536,18.8523 C104.3586,21.8683 102.6526,25.3773 102.6526,28.7093 C102.6526,29.8093 102.6526,31.4433 104.1676,31.4433 C106.0406,31.4433 107.3486,28.6503 107.3476,24.7563 C107.3476,22.9453 107.0316,20.8893 106.6606,18.8543 Z M120.6236,13.2043 L120.6276,13.1963 C120.3096,12.4493 119.8096,11.8583 119.1176,11.8583 C118.8206,11.8583 118.6416,12.0363 118.6416,12.2743 C118.6416,12.9353 119.5826,13.1423 120.6236,13.2043 Z M127.5266,9.7623 C128.7846,8.1373 129.7566,5.9703 129.7566,3.3283 C129.7566,2.0803 129.6676,1.3673 129.0136,1.3673 C127.3396,1.3673 127.5076,7.5723 127.5266,9.7623 Z M156.1076,16.9413 L156.1016,16.9403 C155.5946,17.6713 155.2866,18.3703 155.2866,18.9613 C155.2866,19.5553 155.4056,19.9123 155.7626,19.9123 C156.0886,19.9123 156.3866,19.4963 156.3866,18.9313 C156.3866,18.2583 156.2776,17.5763 156.1076,16.9413 Z M104.9146,20.2513 C104.1776,19.6903 103.4916,18.7263 102.4446,18.0103 C101.5616,17.4053 99.2326,18.0603 97.2136,18.4273 L97.2096,18.4303 C97.0346,19.5943 96.6336,20.7443 96.2326,20.7443 C95.9716,20.7443 95.8556,19.8243 95.5296,18.7533 L95.5096,18.7393 C94.6076,18.9013 93.8426,19.0203 93.3796,19.0203 C91.9826,19.0203 88.7736,18.3963 88.7736,16.2863 C88.7736,15.0983 90.1106,14.6223 91.3886,14.6223 C92.8446,14.6223 95.1626,15.6623 95.7276,16.7923 C95.8766,14.7703 94.4196,13.6713 94.4196,13.3443 C94.4196,13.0173 95.9956,12.4233 96.1436,12.4233 C96.7676,12.4233 97.3026,15.2763 97.3026,17.2973 C97.3026,17.3933 97.2996,17.4913 97.2956,17.5923 L97.2966,17.5943 C98.8956,17.2743 100.6156,16.9373 101.7316,17.0893 C100.6616,15.5733 99.8586,13.4933 99.8586,10.6103 C99.8586,3.2993 107.1406,0.0003 108.2696,0.0003 C108.7746,0.0003 108.8936,0.1183 108.8936,0.4163 C108.8936,1.0703 107.9426,1.7233 107.9426,6.7163 C107.9426,10.1703 108.3336,13.1223 108.6616,15.6193 C111.5636,12.6013 114.6446,10.5203 116.5316,10.5203 C116.5906,10.5203 116.6206,10.6393 116.6206,10.7583 C116.6206,10.9663 114.7186,11.8583 114.7186,14.7113 C114.7186,16.9403 116.0856,18.9613 117.8686,18.9613 C119.8906,18.9613 121.0496,16.8213 121.0496,15.2463 C121.0496,14.9343 121.0116,14.5733 120.9366,14.2053 L120.9346,14.2033 C118.1106,14.1413 117.2156,13.0753 117.2156,12.0663 C117.2156,11.3833 117.8986,10.5803 118.7906,10.5803 C119.8596,10.5803 121.3646,11.3973 121.9266,13.2283 C122.1216,13.2263 122.3076,13.2253 122.4756,13.2253 C123.0866,13.2253 124.1536,12.7893 125.2856,11.9563 L125.2886,11.9493 C125.2606,10.7323 125.2396,9.5463 125.2396,8.6183 C125.2396,4.3683 126.6666,0.5053 129.1036,0.5053 C130.3516,0.5053 131.0056,1.5453 131.0056,2.8833 C131.0056,5.7383 129.5806,8.7533 127.5336,10.9523 L127.5256,10.9733 C127.5056,14.6043 127.3926,16.5843 127.9146,16.5843 C128.5386,16.5833 130.4996,10.2533 132.9966,10.2533 C135.6126,10.2533 133.4726,18.3373 134.5716,18.3373 C135.9086,18.3373 138.9706,10.1343 141.0206,10.1343 C143.8746,10.1343 141.9126,16.9993 142.8936,16.9993 C143.9036,16.9993 145.4196,10.1343 148.0646,10.1343 C151.4226,10.1343 148.2726,18.8723 149.9966,18.8723 C151.3036,18.8723 154.6326,9.8073 155.3756,9.8073 C155.9706,9.8073 155.0786,10.5203 157.3666,13.7903 C157.4646,13.9273 157.5526,14.0683 157.6326,14.2123 L157.6436,14.2143 C160.0136,12.0303 163.1706,10.1343 165.4806,10.1343 C165.8966,10.1343 166.1346,10.1943 166.1346,10.4913 C166.1346,11.1743 164.0836,11.7393 164.0836,15.1273 C164.0836,17.2083 165.5106,18.9013 167.1146,18.9013 C169.1656,18.9013 170.2356,16.8513 170.2356,15.2763 C170.2356,14.8763 170.1506,14.3703 169.9946,13.8653 L169.9816,13.8593 C169.5486,13.9823 169.0966,14.0573 168.6306,14.0573 C166.8776,14.0573 166.1346,12.8093 166.1346,11.8883 C166.1346,11.2043 166.7876,10.5513 167.6496,10.5503 C168.8396,10.5503 170.0676,11.2383 170.7546,12.5773 L170.7606,12.5783 C172.6176,11.7763 174.3206,10.2233 175.4666,10.2233 C178.2896,10.2233 176.6846,16.3463 177.3386,16.3463 C178.0516,16.3463 180.2216,9.9863 182.4806,9.9863 C184.2636,9.9863 184.1146,12.3633 184.1146,13.4333 C184.1146,15.8703 183.5496,19.1693 184.4416,19.1693 C185.0656,19.1693 186.6406,16.5833 186.8486,16.5843 C187.0566,16.5843 187.0866,16.6433 187.0866,16.9103 C187.0866,17.4153 184.5306,21.2493 183.1336,21.2493 C181.1136,21.2503 181.2916,18.1593 181.2916,17.1783 C181.2916,16.4053 181.5296,12.4233 180.9346,12.4233 C180.4896,12.4233 179.3296,15.0083 178.2596,16.9103 C177.1606,18.8423 176.6256,21.0123 175.5256,21.0123 C174.0696,21.0123 174.3666,18.9913 174.3666,17.0293 C174.3666,14.4143 174.6936,11.8883 173.8616,11.8883 C173.4776,11.8883 172.4476,12.7933 171.0936,13.4353 L171.0916,13.4393 C171.2286,13.9233 171.3056,14.4663 171.3056,15.0683 C171.3056,16.7323 170.4436,21.0123 166.4316,21.0123 C163.5786,21.0123 161.3496,18.7833 161.3496,15.8703 C161.3496,13.1663 162.8656,12.3343 163.7266,11.3833 C162.2486,11.6293 159.8266,13.1373 157.9556,14.8683 L157.9506,14.8863 C158.4026,16.0393 158.4366,17.1903 158.4366,17.5943 C158.4366,19.5263 157.2186,20.8633 155.9696,20.8633 C155.1376,20.8633 154.3056,20.3283 154.3056,19.2583 C154.3056,18.4183 154.8986,17.2933 155.8426,16.1213 L155.8436,16.1103 C155.3666,14.8213 154.6946,13.8793 154.3356,13.8793 C153.5926,13.8793 151.4226,20.8633 148.6886,20.8633 C145.6866,20.8633 147.7676,12.3633 146.7566,12.3633 C145.7766,12.3633 142.8926,20.8633 141.2286,20.8633 C138.8816,20.8633 140.9916,12.5123 139.9506,12.5123 C138.6136,12.5123 135.5226,20.8633 133.4426,20.8633 C130.5006,20.8633 132.6996,12.6313 131.4806,12.6313 C130.8266,12.6313 129.7566,14.8603 128.7466,17.0893 C127.8846,18.8723 127.3796,20.7443 126.4586,20.7443 C125.5966,20.7443 125.4176,20.4173 125.4176,17.6533 C125.4176,16.7763 125.3606,14.8463 125.3106,12.8513 L125.3056,12.8463 C124.2866,13.5103 123.2036,13.9653 122.1166,14.1333 L122.1126,14.1403 C122.1356,14.3503 122.1486,14.5703 122.1486,14.8003 C122.1496,16.7913 121.3466,20.9823 117.2446,20.9823 C114.1536,20.9823 112.4596,18.6343 112.4596,15.6333 C112.4596,14.0283 113.2326,12.9573 113.9756,12.0663 C112.3536,13.0423 110.4996,14.5463 108.7686,16.3683 L108.7626,16.3943 C108.9536,17.8723 109.1016,19.1803 109.1016,20.3283 C109.1016,29.0953 105.2676,33.3753 103.2166,33.3753 C101.9396,33.3753 101.2556,31.6813 101.2556,29.9573 C101.2556,26.9113 102.7786,23.4233 104.9146,20.2513 Z M105.3266,19.6533 C105.7006,19.1243 106.0906,18.6053 106.4916,18.1013 L106.5126,18.0543 C106.0246,15.4613 105.5056,12.9613 105.5056,11.1153 C105.5056,5.8543 107.7936,2.1103 107.7936,1.3073 C107.7946,0.7723 107.8836,0.6833 107.4976,0.6833 C107.2296,0.6833 101.9986,2.9123 101.9986,10.7883 C101.9986,13.9633 103.4766,17.8493 105.3266,19.6533 Z M169.6166,12.9543 L169.6206,12.9443 C169.2426,12.2163 168.7086,11.6503 168.0666,11.6503 C167.7686,11.6503 167.5016,11.9473 167.5016,12.1853 C167.5016,12.7203 168.0066,13.0473 168.7796,13.0473 C169.0596,13.0473 169.3386,13.0133 169.6166,12.9543 Z M14.1466,12.0663 C13.4036,12.9573 12.6016,14.0283 12.6016,15.6323 C12.6016,18.6343 14.3246,20.9823 17.4156,20.9823 C21.5176,20.9823 22.3196,16.7913 22.3196,14.8003 C22.3196,14.5683 22.3066,14.3463 22.2826,14.1353 L22.2836,14.1343 C23.3706,13.9673 24.4566,13.5113 25.4766,12.8463 L25.4816,12.8493 C25.5306,14.8443 25.5886,16.7763 25.5886,17.6533 C25.5596,20.4173 25.7666,20.7443 26.6286,20.7443 C27.5506,20.7443 28.0556,18.8723 28.9166,17.0893 C29.9276,14.8603 30.9976,12.6313 31.6516,12.6313 C32.8706,12.6313 30.6706,20.8633 33.6136,20.8633 C35.6936,20.8633 38.7846,12.5123 40.1226,12.5123 C41.1626,12.5123 39.0516,20.8633 41.3696,20.8633 C43.0636,20.8633 45.9466,12.3633 46.9276,12.3633 C47.9376,12.3633 45.8576,20.8633 48.8596,20.8633 C51.5636,20.8633 53.7636,13.8793 54.5066,13.8793 C54.8636,13.8793 55.5326,14.8143 56.0096,16.0963 L56.0056,16.1303 C55.0666,17.2993 54.4766,18.4213 54.4766,19.2583 C54.4766,20.3283 55.3086,20.8633 56.1406,20.8633 C57.3886,20.8633 58.6076,19.5263 58.6076,17.5943 C58.6076,17.1893 58.5736,16.0363 58.1196,14.8813 L58.1226,14.8693 C59.9906,13.1373 62.4056,11.6293 63.8676,11.3833 C63.0356,12.3343 61.5196,13.1663 61.5196,15.8703 C61.5196,18.7833 63.7486,21.0123 66.6026,21.0123 C70.6146,21.0123 71.4766,16.7323 71.4766,15.0683 C71.4766,14.4623 71.3986,13.9153 71.2586,13.4293 L71.2546,13.4353 C72.6176,12.7943 73.6476,11.8883 74.0326,11.8883 C74.8646,11.8883 74.5376,14.4143 74.5376,17.0293 C74.5376,18.9913 74.2406,21.0123 75.6966,21.0123 C76.7966,21.0123 77.3306,18.8423 78.4306,16.9103 C79.5006,15.0083 80.6596,12.4233 81.1056,12.4233 C81.6996,12.4233 81.4626,16.4053 81.4626,17.1783 C81.4626,18.1583 81.2836,21.2493 83.3046,21.2493 C84.6716,21.2493 87.2276,17.4153 87.2276,16.9103 C87.2276,16.6433 87.2276,16.5843 87.0196,16.5843 C86.8116,16.5843 85.2366,19.1693 84.6126,19.1693 C83.7206,19.1693 84.2856,15.8703 84.2856,13.4333 C84.2856,12.3633 84.4346,9.9863 82.6506,9.9863 C80.3926,9.9863 78.1926,16.3463 77.5096,16.3463 C76.8556,16.3453 78.4606,10.2233 75.6376,10.2233 C74.4886,10.2233 72.7816,11.7823 70.9196,12.5833 L70.9306,12.5873 C70.2446,11.2413 69.0126,10.5503 67.8206,10.5503 C66.9586,10.5503 66.3046,11.2043 66.3046,11.8883 C66.3046,12.8093 67.0486,14.0573 68.7716,14.0573 C69.2466,14.0573 69.7066,13.9803 70.1466,13.8563 L70.1646,13.8643 C70.3216,14.3693 70.4066,14.8753 70.4056,15.2763 C70.4066,16.8513 69.3366,18.9013 67.2856,18.9013 C65.6806,18.9013 64.2546,17.2073 64.2546,15.1273 C64.2546,11.7393 66.3046,11.1743 66.3056,10.4913 C66.3046,10.1943 66.0676,10.1343 65.6216,10.1343 C63.3286,10.1343 60.1786,12.0293 57.8126,14.2133 L57.8036,14.2123 C57.7226,14.0683 57.6346,13.9273 57.5376,13.7903 C55.2496,10.5203 56.1406,9.8073 55.5466,9.8073 C54.8036,9.8073 51.4746,18.8723 50.1666,18.8723 C48.4436,18.8723 51.5936,10.1343 48.2356,10.1343 C45.5906,10.1343 44.0746,16.9993 43.0636,17.0003 C42.0836,16.9993 44.0446,10.1343 41.1916,10.1343 C39.1406,10.1343 36.0796,18.3373 34.7426,18.3373 C33.6136,18.3373 35.7826,10.2533 33.1676,10.2533 C30.6706,10.2533 28.7096,16.5843 28.0846,16.5833 C27.5636,16.5843 27.6756,14.6063 27.6956,10.9773 L27.7046,10.9523 C29.7516,8.7523 31.1756,5.7383 31.1766,2.8833 C31.1766,1.5453 30.5226,0.5053 29.2736,0.5053 C26.8366,0.5053 25.4106,4.3683 25.4106,8.6183 C25.4106,9.5453 25.4316,10.7283 25.4596,11.9433 L25.4526,11.9593 C24.3216,12.7903 23.2556,13.2253 22.6466,13.2253 C22.4776,13.2253 22.2916,13.2263 22.0956,13.2283 L22.0976,13.2293 C21.5356,11.3973 20.0246,10.5803 18.9316,10.5803 C18.0696,10.5803 17.3856,11.3823 17.3856,12.0663 C17.3866,13.0753 18.2806,14.1403 21.1016,14.2033 L21.1086,14.2093 C21.1826,14.5763 21.2196,14.9353 21.2196,15.2463 C21.2196,16.8213 20.0606,18.9613 18.0106,18.9613 C16.2266,18.9613 14.8896,16.9403 14.8896,14.7113 C14.8896,11.8583 16.7916,10.9663 16.7916,10.7583 C16.7916,10.6403 16.7616,10.5203 16.7026,10.5203 C14.8156,10.5203 11.7376,12.5983 8.8376,15.6143 L8.8326,15.6133 C8.5046,13.1173 8.1136,10.1673 8.1136,6.7163 C8.1136,1.7233 9.0346,1.0703 9.0346,0.4163 C9.0346,0.1183 8.9456,0.0003 8.4406,0.0003 C7.3106,0.0003 -0.0004,3.2993 -0.0004,10.6103 C-0.0004,16.2333 3.0936,18.7323 5.0866,20.2493 L5.0866,20.2503 C2.9496,23.4223 1.4266,26.9103 1.4266,29.9573 C1.4266,31.6813 2.1096,33.3753 3.3876,33.3753 C5.4086,33.3753 9.2726,29.0953 9.2726,20.3283 C9.2726,19.1763 9.1236,17.8643 8.9326,16.3803 L8.9336,16.3753 C10.6666,14.5493 12.5216,13.0433 14.1466,12.0663 Z" id="Fill-1"></path>
        </g>
    </g>
</svg>