<?xml version="1.0" encoding="UTF-8"?>
<svg width="261px" height="179px" viewBox="0 0 261 179" version="1.1" xmlns="http://www.w3.org/2000/svg" xmlns:xlink="http://www.w3.org/1999/xlink">
    <!-- Generator: Sketch 50.2 (55047) - http://www.bohemiancoding.com/sketch -->
    <title>Menu_haiti</title>
    <desc>Created with Sketch.</desc>
    <defs></defs>
    <g id="Page-1" stroke="none" stroke-width="1" fill="none" fill-rule="evenodd">
        <g id="Desktop/1920_haiti_3" transform="translate(-829.000000, -361.000000)" fill="#FFFFFF">
            <g id="Menu_haiti" transform="translate(829.000000, 359.000000)">
                <g id="select">
                    <g id="a_icon_Haiti-white_2" transform="translate(0.500000, 0.897196)">
                        <g id="a_icon_Haiti">
                            <path d="M80.2799234,171.820866 C79.9911574,171.779159 79.6946468,171.783549 79.4114128,171.849402 C79.1060511,171.919646 78.8217106,172.057939 78.5362638,172.187451 C77.2506468,172.771354 75.8809447,173.175256 74.4824766,173.38489 L74.3740511,173.552817 C72.7709021,173.69111 71.7242638,171.425744 70.1211149,171.577207 C69.8943064,171.598061 69.6254553,171.735256 69.6442638,171.960256 C69.6531149,172.052451 69.7095404,172.132573 69.7648596,172.20611 C70.5337957,173.238915 71.3680085,174.222329 72.261966,175.150866 C72.6425617,175.545988 73.041966,175.937817 73.5320936,176.189159 C74.0941362,176.477817 74.7358383,176.563427 75.3631574,176.643549 C77.4254553,176.908061 79.5663064,177.167085 81.5478383,176.541476 C82.1917532,176.338427 82.8799234,175.955378 83.0126894,175.297939 C83.0558383,175.085012 83.0337106,174.862207 82.9938809,174.648183 C82.7427319,173.280622 81.6662213,172.019524 80.2799234,171.820866" id="Fill-1"></path>
                            <path d="M97.3911319,161.214256 L97.2804936,161.226329 C96.9065362,161.484256 96.5325787,161.742183 96.1597277,162.00011 C96.0690043,162.062671 95.9738553,162.13072 95.9329191,162.231695 C95.854366,162.423768 96.004834,162.6345 96.175217,162.754134 C96.5469617,163.016451 97.0625362,163.062549 97.475217,162.870476 C97.8878979,162.678402 98.1821957,162.256939 98.2176,161.805841 C98.2353021,161.575354 98.179983,161.324012 98.0051745,161.172549 C97.830366,161.019988 97.518366,161.021085 97.3911319,161.214256" id="Fill-3"></path>
                            <path d="M77.7656681,168.589646 C77.629583,168.575378 77.4946043,168.562207 77.3585191,168.547939 L77.3441362,168.435988 C77.1925617,168.585256 77.0409872,168.734524 76.8894128,168.883793 C77.0863489,169.01111 77.3098383,169.143915 77.5410723,169.103305 C77.7723064,169.063793 77.9426894,168.743305 77.7656681,168.589646" id="Fill-5"></path>
                            <path d="M62.7319149,129.95528 C63.8371915,130.800402 65.2323404,131.593939 66.5577872,131.1615 C67.5867234,130.825646 68.2693617,129.827963 69.2684255,129.411988 C69.8946383,129.150768 70.7078298,129.060768 70.9965957,128.450524 C71.164766,128.09272 71.0762553,127.653695 70.852766,127.326622 C70.630383,126.999549 70.2918298,126.767963 69.9433191,126.576988 C68.2870638,125.672598 66.2059574,125.57711 64.4722553,126.325646 L63.9788085,126.367354 C63.4289362,126.513329 62.8657872,126.663695 62.3977872,126.98528 C61.9297872,127.307963 61.568,127.839183 61.6089362,128.402232 C61.6565106,129.058573 62.2074894,129.553573 62.7319149,129.95528" id="Fill-7"></path>
                            <path d="M58.783566,129.940902 C59.0424596,129.859683 59.2316511,129.527122 59.0679064,129.313098 C58.830034,129.09139 58.405183,129.117732 58.1982894,129.36578 L58.0965021,129.382244 C58.0610979,129.537 58.0256936,129.691756 57.9913957,129.846512 C58.2469702,129.93322 58.5246723,130.022122 58.783566,129.940902" id="Fill-9"></path>
                            <path d="M152.516996,117.467671 C152.651974,117.072549 152.447294,116.64889 152.248145,116.281207 C151.958272,115.7445 151.667294,115.206695 151.377421,114.669988 C150.919379,113.823768 150.458017,112.969866 149.828485,112.241085 C148.510783,110.71328 146.585677,109.861573 144.72806,109.057061 C144.10406,108.787061 143.481166,108.518159 142.858272,108.248159 C141.8924,107.829988 140.926528,107.411817 139.960655,106.994744 L136.747719,105.604134 C133.261506,104.094988 129.775294,102.586939 126.289081,101.077793 L125.91623,100.737549 C124.633932,100.744134 123.351634,100.75072 122.069336,100.757305 C121.74406,100.7595 121.401081,100.756207 121.123379,100.58828 C120.833506,100.413768 120.671974,100.09328 120.494953,99.8068171 C119.349847,97.9563293 117.010953,97.0585244 114.82806,97.1990122 C112.64406,97.3405976 110.608315,98.3745 108.851379,99.669622 C108.46857,99.9516951 108.081336,100.263402 107.885506,100.695841 C107.460655,101.627671 108.087974,102.713159 108.864655,103.385963 C109.641336,104.058768 110.604996,104.552671 111.179209,105.402183 C111.84857,106.39328 111.986868,107.842061 113.065591,108.36889 C113.451719,108.557671 113.893166,108.58511 114.321336,108.627915 C115.838187,108.781573 117.318528,109.177793 118.791123,109.574012 C120.446272,110.018524 122.101421,110.463037 123.75657,110.908646 C124.948145,111.228037 126.157421,111.556207 127.209591,112.196085 C128.756315,113.136695 129.8804,114.702915 131.530017,115.451451 C132.198272,115.755476 132.922953,115.910232 133.642102,116.062793 C136.471123,116.664256 139.311209,117.266817 142.196655,117.474256 C144.469166,117.637793 147.033762,117.669622 148.597081,119.315963 C149.026357,119.768159 149.357166,120.326817 149.877166,120.672549 C150.398272,121.01828 151.223634,121.043524 151.550017,120.513402 C151.910698,119.928402 151.433847,119.118402 151.729251,118.49828 C151.91623,118.105354 152.376485,117.879256 152.516996,117.467671" id="Fill-11"></path>
                            <path d="M256.020009,74.5738902 C257.938477,75.6835244 259.654477,77.0675488 259.697626,79.1507195 C259.738562,81.1449878 258.130987,82.7452317 256.641796,84.0842561 C254.614902,85.9105976 252.586902,87.7358415 250.558902,89.5610854 C248.414732,91.4916951 246.112349,93.5013293 243.263413,94.0138902 C242.504434,94.1510854 241.62154,94.2355976 241.190051,94.8699878 C240.959923,95.206939 240.907923,95.6492561 240.634647,95.9521829 C240.1412,96.4998659 239.2572,96.3209634 238.534732,96.4790122 C236.425966,96.9399878 236.326391,99.877061 236.817626,101.962427 C238.544689,99.5697439 241.744349,98.3207195 244.651923,98.904622 C245.82137,100.762793 247.322732,102.414622 249.065285,103.760232 C249.56537,104.146573 250.098647,104.523037 250.418391,105.065232 C250.664009,105.483402 250.762477,105.969622 250.848774,106.445963 C251.473881,109.872549 251.710647,113.36828 251.551328,116.847549 C251.521455,117.486329 251.468349,118.160232 251.107668,118.691451 C250.543413,119.52011 249.440349,119.739622 248.497711,120.094134 C245.643243,121.167549 243.662817,124.192427 243.836519,127.217305 C242.7412,126.13072 240.850391,126.833159 239.371157,126.37328 C238.670817,126.155963 238.086647,125.68072 237.46154,125.297671 C234.418987,123.434012 230.096349,123.982793 227.624689,126.546695 C226.912179,127.116329 227.396774,128.332427 228.185626,128.7945 C228.97337,129.255476 229.948094,129.315841 230.745796,129.761451 C231.443923,130.152183 231.947328,130.803037 232.431923,131.437427 C233.556009,132.910354 234.6812,134.38328 235.805285,135.856207 C236.138306,136.291939 236.481285,136.75072 236.572009,137.29072 C236.752349,138.37511 235.882732,139.3245 235.082817,140.084012 C238.786987,144.092305 243.319838,147.34328 248.31737,149.577915 C250.266817,150.44828 252.599072,151.556817 252.814817,153.667427 C252.996264,155.441085 251.463923,156.905232 249.73354,157.533037 C249.407157,159.569012 248.847328,161.569866 248.064009,163.48072 C247.661285,164.463037 247.193285,165.444256 247.089285,166.501207 C246.881285,168.620598 248.152519,170.578646 248.638221,172.651939 C249.076349,174.517793 248.871668,176.465963 248.664774,178.370232 C246.604689,177.927915 245.206221,176.104866 243.782306,174.56389 C241.93686,172.565232 239.781626,170.874988 237.638562,169.194622 C235.651498,167.63828 233.592519,166.043524 231.148519,165.386085 C229.558647,164.958037 227.853711,164.942671 226.33686,164.301695 C224.954987,163.717793 223.819838,162.648768 222.424689,162.095598 C220.159923,161.196695 217.611923,161.780598 215.216604,162.232793 C209.678051,163.278768 203.771072,163.504866 198.451583,161.850841 C198.192689,161.900232 197.926051,161.909012 197.647243,161.861817 C197.054221,161.759744 196.536434,161.417305 195.978817,161.192305 C193.774902,160.299988 191.315413,161.292183 189.050647,162.018768 C185.615328,163.121817 181.530562,163.504866 178.671668,161.315232 C178.282221,161.016695 177.907157,160.667671 177.431413,160.541451 C176.32503,160.247305 175.289455,161.314134 174.967498,162.404012 C176.119243,162.9045 176.916945,164.118402 176.914732,165.365232 C176.504264,166.552793 174.751753,166.188402 173.554647,165.782305 C169.195498,164.30389 164.446902,165.525476 159.858732,165.942549 C158.976945,166.022671 158.040945,166.044622 157.135923,165.950232 C157.088349,166.425476 157.197881,166.91828 157.474477,167.31011 C156.842732,167.249744 156.212094,167.189378 155.581455,167.129012 C155.372349,167.454988 155.163243,167.780963 154.954136,168.106939 C153.103157,169.192427 150.552945,168.935598 148.96086,167.502183 C148.848009,167.992793 148.735157,168.483402 148.622306,168.974012 C146.512434,167.902793 144.175753,167.272793 141.8092,167.136695 C140.418477,167.057671 138.993455,167.142183 137.66137,166.73828 C136.329285,166.334378 135.066902,165.276329 134.970647,163.897793 C133.716009,165.321329 131.593966,165.689012 129.707583,165.421207 C127.8212,165.152305 126.058732,164.355476 124.236519,163.80011 C119.928264,162.487427 115.334562,162.539012 110.827157,162.601573 C110.806136,162.129622 110.646817,161.663159 110.374647,161.273524 C107.740349,162.378768 104.7332,162.58511 101.969455,161.850841 C102.262647,160.891573 102.720689,159.982793 103.318136,159.17389 C102.065711,158.8545 101.011328,157.862305 100.624094,156.638524 C100.042136,157.560476 99.1503915,158.285963 98.1258809,158.671207 C95.7825617,158.08511 93.217966,158.423159 91.1103064,159.596451 C90.201966,160.101329 89.2869872,160.778524 88.2480936,160.704988 C87.1970298,160.630354 86.3816255,159.810476 85.4832426,159.262793 C84.5837532,158.716207 83.190817,158.540598 82.6553277,159.441695 C82.8113277,160.121085 82.9673277,160.799378 83.1233277,161.478768 C82.6022213,161.974866 82.0556681,162.485232 81.3674979,162.700354 C80.6793277,162.916573 79.8074979,162.736573 79.4612,162.107671 C78.9932,161.257061 79.4457106,159.761085 78.4931149,159.543768 C77.9410298,159.417549 77.4597532,159.978402 77.3203489,160.522793 C77.1809447,161.06828 77.2240936,161.662061 76.9773702,162.169134 C76.4927745,163.167915 74.8298809,163.269988 74.223583,162.339256 C74.0631574,162.0945 73.972434,161.804744 73.7810298,161.584134 C73.244434,160.96511 72.204434,161.165963 71.5394979,161.645598 C71.5074128,161.669744 71.4775404,161.694988 71.4454553,161.719134 C71.3669021,161.904622 71.2772851,162.08572 71.1611149,162.253646 C70.6344766,163.018646 69.7372,163.428037 68.890817,163.819866 C65.9998383,165.162183 63.2117532,166.722915 60.5575404,168.483402 C59.6458809,169.089256 58.6977106,169.781817 58.3281787,170.808037 C57.9575404,171.833159 58.4985617,173.238037 59.5894553,173.35328 L59.6292851,173.216085 C61.4072426,174.256573 62.8543915,175.848037 63.7151574,177.710598 C63.1033277,177.654622 62.5158383,178.235232 62.5700511,178.842183 C59.3880936,179.697183 55.6983064,180.470963 53.0286043,178.552427 C50.5934553,176.802915 50.0026468,173.502549 48.3928596,170.983646 C47.3263064,169.312061 45.8039234,167.98511 44.3036681,166.683402 C43.1784766,165.707671 42.0532851,164.731939 40.9280936,163.75511 C38.9189021,162.011085 36.8377957,160.226451 34.3097106,159.374744 C33.1889447,158.997183 32.0073277,158.81389 30.8976255,158.407793 C27.7643489,157.263037 25.1034979,154.357793 21.7810298,154.671695 C20.8317532,154.761695 19.9333702,155.118402 19.0128596,155.367549 C15.3728596,156.350963 11.511583,155.619988 7.8118383,154.884622 C8.35949787,153.914378 7.40468936,152.752061 6.39345532,152.274622 C5.38111489,151.79828 4.1652,151.56011 3.50026383,150.665598 C2.47243404,149.283768 3.28562553,147.003037 2.01549787,145.836329 C1.45345532,145.319378 0.592689362,145.161329 0.137965957,144.549988 C-0.460587234,143.746573 1.04409362,143.204378 1.69685957,142.443768 C2.34851915,141.682061 2.1305617,140.468159 2.61073191,139.59011 C3.09090213,138.712061 2.92937021,137.35328 1.97124255,137.044866 C4.14639149,135.072549 5.35898723,132.098159 5.17643404,129.179744 C5.1465617,128.701207 5.09013617,128.183159 5.34681702,127.775963 C5.49396596,127.541085 5.72962553,127.375354 5.95864681,127.216207 C6.52954043,126.81889 7.10154043,126.420476 7.67243404,126.023159 C7.89702979,125.867305 8.13932766,125.704866 8.41260426,125.700476 C8.75115745,125.69389 9.03771064,125.926573 9.33643404,126.082427 C10.419583,126.647671 11.7583064,126.22511 12.820434,125.623646 C13.8836681,125.022183 14.891583,124.234134 16.0997532,124.038768 C17.3079234,123.843402 18.7893702,124.575476 18.8081787,125.789378 C19.0991574,125.075963 19.3901362,124.362549 19.6811149,123.649134 C23.2834979,123.721573 26.9389872,122.163037 30.4063915,123.13328 C34.2223064,124.201207 36.6961787,128.042671 40.4501362,129.304866 C44.2749021,130.591207 48.8110723,128.988768 52.340434,130.933646 C51.9753277,131.343037 51.8182213,131.925841 51.9288596,132.461451 C53.4634128,132.105841 55.044434,131.847915 56.6132851,132.004866 C58.736434,132.217793 60.7013702,133.173768 62.7492851,133.770841 C64.7972,134.367915 67.1626468,134.561085 68.9295404,133.372427 C68.5091149,133.014622 68.668434,132.284744 69.0999234,131.94011 C69.5314128,131.595476 70.1166894,131.531817 70.6676681,131.481329 C74.9836681,131.084012 79.2985617,130.687793 83.6134553,130.291573 C83.5382213,132.269378 80.9227319,132.905963 78.9290298,132.971817 C76.7627319,133.043159 74.596434,133.115598 72.4301362,133.186939 C72.7742213,133.458037 72.8184766,134.026573 72.521966,134.347061 C73.036434,133.967305 73.7633277,134.527061 73.9680085,135.13072 C74.1726894,135.734378 74.1494553,136.433524 74.5422213,136.938402 C74.9980511,137.525598 75.8377957,137.627671 76.5834979,137.658402 C78.6181362,137.741817 80.6594128,137.639744 82.6752426,137.359866 C85.0805191,135.611451 88.7426468,135.620232 91.8936255,135.860598 C94.7934553,136.082305 97.6932851,136.304012 100.592009,136.52572 C101.670732,136.608037 102.803668,136.707915 103.702051,137.307183 C104.295072,137.702305 104.744264,138.291695 105.362732,138.647305 C106.962562,139.568159 109.315838,138.7395 110.630221,140.030232 C110.912349,140.307915 111.134732,140.676695 111.508689,140.812793 C111.88154,140.947793 112.418136,140.592183 112.231157,140.244256 C112.712434,140.72389 113.193711,141.203524 113.674987,141.683159 C115.954136,138.413524 121.577881,138.313646 123.9732,141.500963 C125.243328,142.319744 126.901796,142.025598 128.396519,141.786329 C133.514647,140.969744 138.795413,141.167305 143.836094,142.365841 C143.65354,142.763159 143.470987,143.160476 143.288434,143.557793 C144.297455,144.566451 145.983583,143.935354 147.351072,143.511695 C151.088434,142.354866 155.116774,143.315232 158.908349,144.284378 C160.741626,143.826695 162.436604,142.809256 163.660264,141.378037 C164.97686,139.837061 165.7292,137.910841 166.816774,136.203037 C167.904349,134.496329 169.530732,132.907061 171.559838,132.747915 C173.394221,132.604134 175.091413,133.651207 176.89703,134.002427 C179.915243,134.59072 183.204519,133.229744 186.044604,134.403037 C186.366562,133.511817 187.447498,132.971817 188.36137,133.244012 C188.874732,133.397671 189.295157,133.756573 189.756519,134.027671 C191.195923,134.876085 193.134306,134.804744 194.507328,133.854256 C194.818221,132.919134 195.130221,131.896207 194.783923,130.973159 C194.640094,130.59011 194.388945,130.250963 194.269455,129.859134 C193.566902,127.57072 197.506732,125.566573 196.504349,123.391207 C196.066221,122.441817 194.9012,122.118037 193.891072,121.821695 C191.480264,121.114866 189.202221,119.963524 187.207413,118.445598 C186.288009,117.745354 185.420604,116.962793 184.399413,116.417305 C183.175753,115.762061 181.787243,115.476695 180.52154,114.903768 C177.454647,113.515354 175.424434,110.621085 173.15303,108.14828 C171.646136,106.507427 169.983243,105.015841 168.322562,103.526451 C166.277966,101.692427 164.189115,99.8287683 161.677626,98.6971829 C161.698647,98.6730366 161.720774,98.6510854 161.741796,98.6280366 C160.669711,98.1154756 159.597626,97.6029146 158.52554,97.0903537 C157.0972,96.4065732 155.647838,95.7107195 154.459583,94.6691341 C153.235923,93.5968171 152.213626,92.1216951 150.62486,91.7474268 C151.00103,89.7235244 152.850902,88.222061 154.83686,87.629378 C156.823923,87.0366951 158.947072,87.1826707 161.016009,87.3341341 C161.906647,86.3540122 161.547072,84.7373049 160.705115,83.714378 C159.864264,82.6914512 158.659413,82.0373049 157.674732,81.149378 C154.972945,78.7138902 154.236094,74.3916951 155.98086,71.2109634 C156.787413,69.7413293 158.084094,68.0466951 157.223328,66.6077927 C156.738732,65.7966951 155.627923,65.2951098 155.608009,64.3512073 C155.5892,63.4336463 156.618136,62.896939 157.48554,62.5786463 C159.467072,61.852061 161.448604,61.1254756 163.42903,60.3999878 C164.471243,58.3376707 162.46537,55.4971829 160.156349,55.7649878 C158.816519,55.9197439 157.377115,56.866939 156.251923,56.129378 C155.716434,55.7792561 155.463072,55.1459634 155.142221,54.5949878 C152.770136,50.5175488 146.691668,50.7447439 142.885711,47.9327927 C141.460689,46.8813293 140.398562,45.427061 139.131753,44.1923049 C135.589115,40.739378 130.322732,39.119378 125.432519,39.9787683 L123.491923,41.7337683 C123.07703,39.7823049 120.867583,38.6814512 118.857285,38.6562073 C116.848094,38.6309634 114.921881,39.3784024 112.952519,39.7768171 C110.266221,40.3201098 107.486987,40.2103537 104.765285,39.892061 C101.072179,39.459622 97.1279234,38.4718171 94.7945617,35.5995 C92.4612,32.7271829 92.952434,27.5214512 96.4585617,26.2921829 C98.1756681,25.689622 100.402817,26.0210854 101.519157,24.5931585 C99.6526894,24.5745 97.7906468,24.1508415 96.1023064,23.3605976 C101.88537,20.0514512 109.875668,22.2882805 115.271498,18.3886463 C116.30486,17.6423049 117.196604,16.6940122 118.322902,16.0925488 C123.498562,13.3288902 130.487583,19.0384024 135.490647,15.9762073 C136.439923,16.7236463 137.477711,17.3602317 138.577455,17.8684024 C138.945881,16.7203537 139.314306,15.5734024 139.683838,14.4253537 C146.179413,12.2477927 153.950647,12.2840122 160.530306,14.1959634 C162.872519,14.8764512 165.141711,15.8104756 167.523753,16.3362073 C169.083753,16.6808415 170.706817,16.8564512 172.14954,17.5391341 C173.573455,18.2141341 174.720774,19.336939 175.990902,20.2665732 C180.923157,23.8797439 187.464094,24.4515732 192.915243,27.2360854 C193.58903,27.5807195 194.276094,27.9879146 194.656689,28.6387683 C195.673455,30.3838902 194.082477,33.0432805 195.544009,34.4437683 C196.535328,35.3931585 198.371923,34.8377927 199.011413,33.6271829 C199.650902,32.4165732 199.325626,30.8953537 198.608689,29.7275488 C200.068009,29.9701098 201.472009,29.1732805 202.755413,28.4423049 C204.037711,27.7124268 205.516945,26.9957195 206.938647,27.4029146 C208.359243,27.8090122 209.16137,29.9701098 207.915583,30.7614512 C211.353115,30.9787683 214.790647,31.1960854 218.228179,31.4134024 C219.26486,31.4792561 220.365711,31.567061 221.199923,32.1827927 C222.034136,32.7974268 222.403668,34.141939 221.662391,34.8630366 C222.83737,35.5951098 224.368604,35.8508415 225.637626,35.294378 C226.906647,34.7379146 227.779583,33.2737683 227.431072,31.9413293 C233.841455,31.3321829 240.355838,31.8348659 246.593626,33.4186463 C247.193285,33.5712073 247.827243,33.7555976 248.233285,34.2187683 C248.951328,35.0375488 248.643753,36.2766951 248.54086,37.3566951 C248.177966,41.1641341 250.850987,44.5095 252.216264,48.0853537 C253.901285,52.5008415 253.588179,57.3860854 253.251838,62.0957195 C252.387753,62.1242561 251.523668,62.1527927 250.660689,62.1813293 C249.521115,63.6827927 247.232009,64.4971829 246.495157,66.0359634 C247.718817,69.2573049 250.702732,71.789378 253.860349,73.4214512 C254.396945,73.6991341 254.962306,73.9866951 255.52103,74.2929146 C255.692519,74.3752317 255.859583,74.469622 256.020009,74.5738902 Z M136.790536,4.38080488 C136.557089,4.2534878 136.319217,4.09214634 136.2296,3.843 C136.071387,3.40068293 136.456409,2.95726829 136.84143,2.68397561 C137.947813,1.90031707 139.350706,1.53812195 140.7016,1.68958537 L141.462791,1.84214634 C143.739728,1.36580488 146.06977,0.887268293 148.375472,1.1934878 C149.770621,1.37897561 151.110451,1.84763415 152.438111,2.31190244 C155.387728,3.34580488 158.337345,4.37860976 161.286962,5.4125122 C162.871302,5.96787805 164.457855,6.5232439 165.987983,7.20921951 C166.554451,7.4627561 167.217174,7.97860976 166.979302,8.54714634 C166.782366,9.01690244 166.138451,9.0575122 165.626196,9.02239024 C161.583472,8.74141463 157.539643,8.46043902 153.496919,8.18056098 C151.68577,8.05434146 149.839217,7.92043902 148.157515,7.24104878 C147.200494,6.85470732 146.3176,6.29714634 145.343983,5.95360976 C142.593515,4.98117073 139.348494,5.77580488 136.790536,4.38080488 Z" id="Fill-16"></path>
                        </g>
                    </g>
                </g>
            </g>
        </g>
    </g>
</svg>