<svg version="1.1" xmlns="http://www.w3.org/2000/svg" xmlns:xlink="http://www.w3.org/1999/xlink">
    <defs>
        <g id="Haiti" fill="none" stroke="currentColor">
            <path d="M72.5607,156.5479 C72.2997,156.5099 72.0317,156.5139 71.7757,156.5739 C71.4997,156.6379 71.2427,156.7639 70.9847,156.8819 C69.8227,157.4139 68.5847,157.7819 67.3207,157.9729 L67.2227,158.1259 C65.7737,158.2519 64.8277,156.1879 63.3787,156.3259 C63.1737,156.3449 62.9307,156.4699 62.9477,156.6749 C62.9557,156.7589 63.0067,156.8319 63.0567,156.8989 C63.7517,157.8399 64.5057,158.7359 65.3137,159.5819 C65.6577,159.9419 66.0187,160.2989 66.4617,160.5279 C66.9697,160.7909 67.5497,160.8689 68.1167,160.9419 C69.9807,161.1829 71.9157,161.4189 73.7067,160.8489 C74.2887,160.6639 74.9107,160.3149 75.0307,159.7159 C75.0697,159.5219 75.0497,159.3189 75.0137,159.1239 C74.7867,157.8779 73.8137,156.7289 72.5607,156.5479"></path>
            <path d="M88.0266,146.8841 L87.9266,146.8951 C87.5886,147.1301 87.2506,147.3651 86.9136,147.6001 C86.8316,147.6571 86.7456,147.7191 86.7086,147.8111 C86.6376,147.9861 86.7736,148.1781 86.9276,148.2871 C87.2636,148.5261 87.7296,148.5681 88.1026,148.3931 C88.4756,148.2181 88.7416,147.8341 88.7736,147.4231 C88.7896,147.2131 88.7396,146.9841 88.5816,146.8461 C88.4236,146.7071 88.1416,146.7081 88.0266,146.8841"></path>
            <path d="M70.2882,153.6039 C70.1652,153.5909 70.0432,153.5789 69.9202,153.5659 L69.9072,153.4639 C69.7702,153.5999 69.6332,153.7359 69.4962,153.8719 C69.6742,153.9879 69.8762,154.1089 70.0852,154.0719 C70.2942,154.0359 70.4482,153.7439 70.2882,153.6039"></path>
            <path d="M56.7,118.4037 C57.699,119.1737 58.96,119.8967 60.158,119.5027 C61.088,119.1967 61.705,118.2877 62.608,117.9087 C63.174,117.6707 63.909,117.5887 64.17,117.0327 C64.322,116.7067 64.242,116.3067 64.04,116.0087 C63.839,115.7107 63.533,115.4997 63.218,115.3257 C61.721,114.5017 59.84,114.4147 58.273,115.0967 L57.827,115.1347 C57.33,115.2677 56.821,115.4047 56.398,115.6977 C55.975,115.9917 55.648,116.4757 55.685,116.9887 C55.728,117.5867 56.226,118.0377 56.7,118.4037"></path>
            <path d="M53.1313,118.3906 C53.3653,118.3166 53.5363,118.0136 53.3883,117.8186 C53.1733,117.6166 52.7893,117.6406 52.6023,117.8666 L52.5103,117.8816 C52.4783,118.0226 52.4463,118.1636 52.4153,118.3046 C52.6463,118.3836 52.8973,118.4646 53.1313,118.3906"></path>
            <path d="M137.8519,107.0261 C137.9739,106.6661 137.7889,106.2801 137.6089,105.9451 C137.3469,105.4561 137.0839,104.9661 136.8219,104.4771 C136.4079,103.7061 135.9909,102.9281 135.4219,102.2641 C134.2309,100.8721 132.4909,100.0961 130.8119,99.3631 C130.2479,99.1171 129.6849,98.8721 129.1219,98.6261 C128.2489,98.2451 127.3759,97.8641 126.5029,97.4841 L123.5989,96.2171 C120.4479,94.8421 117.2969,93.4681 114.1459,92.0931 L113.8089,91.7831 C112.6499,91.7891 111.4909,91.7951 110.3319,91.8011 C110.0379,91.8031 109.7279,91.8001 109.4769,91.6471 C109.2149,91.4881 109.0689,91.1961 108.9089,90.9351 C107.8739,89.2491 105.7599,88.4311 103.7869,88.5591 C101.8129,88.6881 99.9729,89.6301 98.3849,90.8101 C98.0389,91.0671 97.6889,91.3511 97.5119,91.7451 C97.1279,92.5941 97.6949,93.5831 98.3969,94.1961 C99.0989,94.8091 99.9699,95.2591 100.4889,96.0331 C101.0939,96.9361 101.2189,98.2561 102.1939,98.7361 C102.5429,98.9081 102.9419,98.9331 103.3289,98.9721 C104.6999,99.1121 106.0379,99.4731 107.3689,99.8341 C108.8649,100.2391 110.3609,100.6441 111.8569,101.0501 C112.9339,101.3411 114.0269,101.6401 114.9779,102.2231 C116.3759,103.0801 117.3919,104.5071 118.8829,105.1891 C119.4869,105.4661 120.1419,105.6071 120.7919,105.7461 C123.3489,106.2941 125.9159,106.8431 128.5239,107.0321 C130.5779,107.1811 132.8959,107.2101 134.3089,108.7101 C134.6969,109.1221 134.9959,109.6311 135.4659,109.9461 C135.9369,110.2611 136.6829,110.2841 136.9779,109.8011 C137.3039,109.2681 136.8729,108.5301 137.1399,107.9651 C137.3089,107.6071 137.7249,107.4011 137.8519,107.0261"></path>
            <path d="M231.4027,67.9451 C233.1367,68.9561 234.6877,70.2171 234.7267,72.1151 C234.7637,73.9321 233.3107,75.3901 231.9647,76.6101 C230.1327,78.2741 228.2997,79.9371 226.4667,81.6001 C224.5287,83.3591 222.4477,85.1901 219.8727,85.6571 C219.1867,85.7821 218.3887,85.8591 217.9987,86.4371 C217.7907,86.7441 217.7437,87.1471 217.4967,87.4231 C217.0507,87.9221 216.2517,87.7591 215.5987,87.9031 C213.6927,88.3231 213.6027,90.9991 214.0467,92.8991 C215.6077,90.7191 218.4997,89.5811 221.1277,90.1131 C222.1847,91.8061 223.5417,93.3111 225.1167,94.5371 C225.5687,94.8891 226.0507,95.2321 226.3397,95.7261 C226.5617,96.1071 226.6507,96.5501 226.7287,96.9841 C227.2937,100.1061 227.5077,103.2911 227.3637,106.4611 C227.3367,107.0431 227.2887,107.6571 226.9627,108.1411 C226.4527,108.8961 225.4557,109.0961 224.6037,109.4191 C222.0237,110.3971 220.2337,113.1531 220.3907,115.9091 C219.4007,114.9191 217.6917,115.5591 216.3547,115.1401 C215.7217,114.9421 215.1937,114.5091 214.6287,114.1601 C211.8787,112.4621 207.9717,112.9621 205.7377,115.2981 C205.0937,115.8171 205.5317,116.9251 206.2447,117.3461 C206.9567,117.7661 207.8377,117.8211 208.5587,118.2271 C209.1897,118.5831 209.6447,119.1761 210.0827,119.7541 C211.0987,121.0961 212.1157,122.4381 213.1317,123.7801 C213.4327,124.1771 213.7427,124.5951 213.8247,125.0871 C213.9877,126.0751 213.2017,126.9401 212.4787,127.6321 C215.8267,131.2841 219.9237,134.2461 224.4407,136.2821 C226.2027,137.0751 228.3107,138.0851 228.5057,140.0081 C228.6697,141.6241 227.2847,142.9581 225.7207,143.5301 C225.4257,145.3851 224.9197,147.2081 224.2117,148.9491 C223.8477,149.8441 223.4247,150.7381 223.3307,151.7011 C223.1427,153.6321 224.2917,155.4161 224.7307,157.3051 C225.1267,159.0051 224.9417,160.7801 224.7547,162.5151 C222.8927,162.1121 221.6287,160.4511 220.3417,159.0471 C218.6737,157.2261 216.7257,155.6861 214.7887,154.1551 C212.9927,152.7371 211.1317,151.2841 208.9227,150.6851 C207.4857,150.2951 205.9447,150.2811 204.5737,149.6971 C203.3247,149.1651 202.2987,148.1911 201.0377,147.6871 C198.9907,146.8681 196.6877,147.4001 194.5227,147.8121 C189.5167,148.7651 184.1777,148.9711 179.3697,147.4641 C179.1357,147.5091 178.8947,147.5171 178.6427,147.4741 C178.1067,147.3811 177.6387,147.0691 177.1347,146.8641 C175.1427,146.0511 172.9197,146.9551 170.8727,147.6171 C167.7677,148.6221 164.0757,148.9711 161.4917,146.9761 C161.1397,146.7041 160.8007,146.3861 160.3707,146.2711 C159.3707,146.0031 158.4347,146.9751 158.1437,147.9681 C159.1847,148.4241 159.9057,149.5301 159.9037,150.6661 C159.5327,151.7481 157.9487,151.4161 156.8667,151.0461 C152.9267,149.6991 148.6347,150.8121 144.4877,151.1921 C143.6907,151.2651 142.8447,151.2851 142.0267,151.1991 C141.9837,151.6321 142.0827,152.0811 142.3327,152.4381 C141.7617,152.3831 141.1917,152.3281 140.6217,152.2731 C140.4327,152.5701 140.2437,152.8671 140.0547,153.1641 C138.3817,154.1531 136.0767,153.9191 134.6377,152.6131 C134.5357,153.0601 134.4337,153.5071 134.3317,153.9541 C132.4247,152.9781 130.3127,152.4041 128.1737,152.2801 C126.9167,152.2081 125.6287,152.2851 124.4247,151.9171 C123.2207,151.5491 122.0797,150.5851 121.9927,149.3291 C120.8587,150.6261 118.9407,150.9611 117.2357,150.7171 C115.5307,150.4721 113.9377,149.7461 112.2907,149.2401 C108.3967,148.0441 104.2447,148.0911 100.1707,148.1481 C100.1517,147.7181 100.0077,147.2931 99.7617,146.9381 C97.3807,147.9451 94.6627,148.1331 92.1647,147.4641 C92.4297,146.5901 92.8437,145.7621 93.3837,145.0251 C92.2517,144.7341 91.2987,143.8301 90.9487,142.7151 C90.4227,143.5551 89.6167,144.2161 88.6907,144.5671 C86.5727,144.0331 84.2547,144.3411 82.3497,145.4101 C81.5287,145.8701 80.7017,146.4871 79.7627,146.4201 C78.8127,146.3521 78.0757,145.6051 77.2637,145.1061 C76.4507,144.6081 75.1917,144.4481 74.7077,145.2691 C74.8487,145.8881 74.9897,146.5061 75.1307,147.1251 C74.6597,147.5771 74.1657,148.0421 73.5437,148.2381 C72.9217,148.4351 72.1337,148.2711 71.8207,147.6981 C71.3977,146.9231 71.8067,145.5601 70.9457,145.3621 C70.4467,145.2471 70.0117,145.7581 69.8857,146.2541 C69.7597,146.7511 69.7987,147.2921 69.5757,147.7541 C69.1377,148.6641 67.6347,148.7571 67.0867,147.9091 C66.9417,147.6861 66.8597,147.4221 66.6867,147.2211 C66.2017,146.6571 65.2617,146.8401 64.6607,147.2771 C64.6317,147.2991 64.6047,147.3221 64.5757,147.3441 C64.5047,147.5131 64.4237,147.6781 64.3187,147.8311 C63.8427,148.5281 63.0317,148.9011 62.2667,149.2581 C59.6537,150.4811 57.1337,151.9031 54.7347,153.5071 C53.9107,154.0591 53.0537,154.6901 52.7197,155.6251 C52.3847,156.5591 52.8737,157.8391 53.8597,157.9441 L53.8957,157.8191 C55.5027,158.7671 56.8107,160.2171 57.5887,161.9141 C57.0357,161.8631 56.5047,162.3921 56.5537,162.9451 C53.6777,163.7241 50.3427,164.4291 47.9297,162.6811 C45.7287,161.0871 45.1947,158.0801 43.7397,155.7851 C42.7757,154.2621 41.3997,153.0531 40.0437,151.8671 C39.0267,150.9781 38.0097,150.0891 36.9927,149.1991 C35.1767,147.6101 33.2957,145.9841 31.0107,145.2081 C29.9977,144.8641 28.9297,144.6971 27.9267,144.3271 C25.0947,143.2841 22.6897,140.6371 19.6867,140.9231 C18.8287,141.0051 18.0167,141.3301 17.1847,141.5571 C13.8947,142.4531 10.4047,141.7871 7.0607,141.1171 C7.5557,140.2331 6.6927,139.1741 5.7787,138.7391 C4.8637,138.3051 3.7647,138.0881 3.1637,137.2731 C2.2347,136.0141 2.9697,133.9361 1.8217,132.8731 C1.3137,132.4021 0.5357,132.2581 0.1247,131.7011 C-0.4163,130.9691 0.9437,130.4751 1.5337,129.7821 C2.1227,129.0881 1.9257,127.9821 2.3597,127.1821 C2.7937,126.3821 2.6477,125.1441 1.7817,124.8631 C3.7477,123.0661 4.8437,120.3561 4.6787,117.6971 C4.6517,117.2611 4.6007,116.7891 4.8327,116.4181 C4.9657,116.2041 5.1787,116.0531 5.3857,115.9081 C5.9017,115.5461 6.4187,115.1831 6.9347,114.8211 C7.1377,114.6791 7.3567,114.5311 7.6037,114.5271 C7.9097,114.5211 8.1687,114.7331 8.4387,114.8751 C9.4177,115.3901 10.6277,115.0051 11.5877,114.4571 C12.5487,113.9091 13.4597,113.1911 14.5517,113.0131 C15.6437,112.8351 16.9827,113.5021 16.9997,114.6081 C17.2627,113.9581 17.5257,113.3081 17.7887,112.6581 C21.0447,112.7241 24.3487,111.3041 27.4827,112.1881 C30.9317,113.1611 33.1677,116.6611 36.5607,117.8111 C40.0177,118.9831 44.1177,117.5231 47.3077,119.2951 C46.9777,119.6681 46.8357,120.1991 46.9357,120.6871 C48.3227,120.3631 49.7517,120.1281 51.1697,120.2711 C53.0887,120.4651 54.8647,121.3361 56.7157,121.8801 C58.5667,122.4241 60.7047,122.6001 62.3017,121.5171 C61.9217,121.1911 62.0657,120.5261 62.4557,120.2121 C62.8457,119.8981 63.3747,119.8401 63.8727,119.7941 C67.7737,119.4321 71.6737,119.0711 75.5737,118.7101 C75.5057,120.5121 73.1417,121.0921 71.3397,121.1521 C69.3817,121.2171 67.4237,121.2831 65.4657,121.3481 C65.7767,121.5951 65.8167,122.1131 65.5487,122.4051 C66.0137,122.0591 66.6707,122.5691 66.8557,123.1191 C67.0407,123.6691 67.0197,124.3061 67.3747,124.7661 C67.7867,125.3011 68.5457,125.3941 69.2197,125.4221 C71.0587,125.4981 72.9037,125.4051 74.7257,125.1501 C76.8997,123.5571 80.2097,123.5651 83.0577,123.7841 C85.6787,123.9861 88.2997,124.1881 90.9197,124.3901 C91.8947,124.4651 92.9187,124.5561 93.7307,125.1021 C94.2667,125.4621 94.6727,125.9991 95.2317,126.3231 C96.6777,127.1621 98.8047,126.4071 99.9927,127.5831 C100.2477,127.8361 100.4487,128.1721 100.7867,128.2961 C101.1237,128.4191 101.6087,128.0951 101.4397,127.7781 C101.8747,128.2151 102.3097,128.6521 102.7447,129.0891 C104.8047,126.1101 109.8877,126.0191 112.0527,128.9231 C113.2007,129.6691 114.6997,129.4011 116.0507,129.1831 C120.6767,128.4391 125.4497,128.6191 130.0057,129.7111 C129.8407,130.0731 129.6757,130.4351 129.5107,130.7971 C130.4227,131.7161 131.9467,131.1411 133.1827,130.7551 C136.5607,129.7011 140.2017,130.5761 143.6287,131.4591 C145.2857,131.0421 146.8177,130.1151 147.9237,128.8111 C149.1137,127.4071 149.7937,125.6521 150.7767,124.0961 C151.7597,122.5411 153.2297,121.0931 155.0637,120.9481 C156.7217,120.8171 158.2557,121.7711 159.8877,122.0911 C162.6157,122.6271 165.5887,121.3871 168.1557,122.4561 C168.4467,121.6441 169.4237,121.1521 170.2497,121.4001 C170.7137,121.5401 171.0937,121.8671 171.5107,122.1141 C172.8117,122.8871 174.5637,122.8221 175.8047,121.9561 C176.0857,121.1041 176.3677,120.1721 176.0547,119.3311 C175.9247,118.9821 175.6977,118.6731 175.5897,118.3161 C174.9547,116.2311 178.5157,114.4051 177.6097,112.4231 C177.2137,111.5581 176.1607,111.2631 175.2477,110.9931 C173.0687,110.3491 171.0097,109.3001 169.2067,107.9171 C168.3757,107.2791 167.5917,106.5661 166.6687,106.0691 C165.5627,105.4721 164.3077,105.2121 163.1637,104.6901 C160.3917,103.4251 158.5567,100.7881 156.5037,98.5351 C155.1417,97.0401 153.6387,95.6811 152.1377,94.3241 C150.2897,92.6531 148.4017,90.9551 146.1317,89.9241 C146.1507,89.9021 146.1707,89.8821 146.1897,89.8611 C145.2207,89.3941 144.2517,88.9271 143.2827,88.4601 C141.9917,87.8371 140.6817,87.2031 139.6077,86.2541 C138.5017,85.2771 137.5777,83.9331 136.1417,83.5921 C136.4817,81.7481 138.1537,80.3801 139.9487,79.8401 C141.7447,79.3001 143.6637,79.4331 145.5337,79.5711 C146.3387,78.6781 146.0137,77.2051 145.2527,76.2731 C144.4927,75.3411 143.4037,74.7451 142.5137,73.9361 C140.0717,71.7171 139.4057,67.7791 140.9827,64.8811 C141.7117,63.5421 142.8837,61.9981 142.1057,60.6871 C141.6677,59.9481 140.6637,59.4911 140.6457,58.6311 C140.6287,57.7951 141.5587,57.3061 142.3427,57.0161 C144.1337,56.3541 145.9247,55.6921 147.7147,55.0311 C148.6567,53.1521 146.8437,50.5641 144.7567,50.8081 C143.5457,50.9491 142.2447,51.8121 141.2277,51.1401 C140.7437,50.8211 140.5147,50.2441 140.2247,49.7421 C138.0807,46.0271 132.5867,46.2341 129.1467,43.6721 C127.8587,42.7141 126.8987,41.3891 125.7537,40.2641 C122.5517,37.1181 117.7917,35.6421 113.3717,36.4251 L111.6177,38.0241 C111.2427,36.2461 109.2457,35.2431 107.4287,35.2201 C105.6127,35.1971 103.8717,35.8781 102.0917,36.2411 C99.6637,36.7361 97.1517,36.6361 94.6917,36.3461 C91.3537,35.9521 87.7887,35.0521 85.6797,32.4351 C83.5707,29.8181 84.0147,25.0751 87.1837,23.9551 C88.7357,23.4061 90.7487,23.7081 91.7577,22.4071 C90.0707,22.3901 88.3877,22.0041 86.8617,21.2841 C92.0887,18.2691 99.3107,20.3071 104.1877,16.7541 C105.1217,16.0741 105.9277,15.2101 106.9457,14.6621 C111.6237,12.1441 117.9407,17.3461 122.4627,14.5561 C123.3207,15.2371 124.2587,15.8171 125.2527,16.2801 C125.5857,15.2341 125.9187,14.1891 126.2527,13.1431 C132.1237,11.1591 139.1477,11.1921 145.0947,12.9341 C147.2117,13.5541 149.2627,14.4051 151.4157,14.8841 C152.8257,15.1981 154.2927,15.3581 155.5967,15.9801 C156.8837,16.5951 157.9207,17.6181 159.0687,18.4651 C163.5267,21.7571 169.4387,22.2781 174.3657,24.8151 C174.9747,25.1291 175.5957,25.5001 175.9397,26.0931 C176.8587,27.6831 175.4207,30.1061 176.7417,31.3821 C177.6377,32.2471 179.2977,31.7411 179.8757,30.6381 C180.4537,29.5351 180.1597,28.1491 179.5117,27.0851 C180.8307,27.3061 182.0997,26.5801 183.2597,25.9141 C184.4187,25.2491 185.7557,24.5961 187.0407,24.9671 C188.3247,25.3371 189.0497,27.3061 187.9237,28.0271 C191.0307,28.2251 194.1377,28.4231 197.2447,28.6211 C198.1817,28.6811 199.1767,28.7611 199.9307,29.3221 C200.6847,29.8821 201.0187,31.1071 200.3487,31.7641 C201.4107,32.4311 202.7947,32.6641 203.9417,32.1571 C205.0887,31.6501 205.8777,30.3161 205.5627,29.1021 C211.3567,28.5471 217.2447,29.0051 222.8827,30.4481 C223.4247,30.5871 223.9977,30.7551 224.3647,31.1771 C225.0137,31.9231 224.7357,33.0521 224.6427,34.0361 C224.3147,37.5051 226.7307,40.5531 227.9647,43.8111 C229.4877,47.8341 229.2047,52.2851 228.9007,56.5761 C228.1197,56.6021 227.3387,56.6281 226.5587,56.6541 C225.5287,58.0221 223.4597,58.7641 222.7937,60.1661 C223.8997,63.1011 226.5967,65.4081 229.4507,66.8951 C229.9357,67.1481 230.4467,67.4101 230.9517,67.6891 C231.1067,67.7641 231.2577,67.8501 231.4027,67.9451 Z M123.6376,3.9914 C123.4266,3.8754 123.2116,3.7284 123.1306,3.5014 C122.9876,3.0984 123.3356,2.6944 123.6836,2.4454 C124.6836,1.7314 125.9516,1.4014 127.1726,1.5394 L127.8606,1.6784 C129.9186,1.2444 132.0246,0.8084 134.1086,1.0874 C135.3696,1.2564 136.5806,1.6834 137.7806,2.1064 C140.4466,3.0484 143.1126,3.9894 145.7786,4.9314 C147.2106,5.4374 148.6446,5.9434 150.0276,6.5684 C150.5396,6.7994 151.1386,7.2694 150.9236,7.7874 C150.7456,8.2154 150.1636,8.2524 149.7006,8.2204 C146.0466,7.9644 142.3916,7.7084 138.7376,7.4534 C137.1006,7.3384 135.4316,7.2164 133.9116,6.5974 C133.0466,6.2454 132.2486,5.7374 131.3686,5.4244 C128.8826,4.5384 125.9496,5.2624 123.6376,3.9914 Z"></path>
        </g>
        <g id="Haiti-filled" fill="currentColor" stroke="none">
            <path d="M72.5607,156.5479 C72.2997,156.5099 72.0317,156.5139 71.7757,156.5739 C71.4997,156.6379 71.2427,156.7639 70.9847,156.8819 C69.8227,157.4139 68.5847,157.7819 67.3207,157.9729 L67.2227,158.1259 C65.7737,158.2519 64.8277,156.1879 63.3787,156.3259 C63.1737,156.3449 62.9307,156.4699 62.9477,156.6749 C62.9557,156.7589 63.0067,156.8319 63.0567,156.8989 C63.7517,157.8399 64.5057,158.7359 65.3137,159.5819 C65.6577,159.9419 66.0187,160.2989 66.4617,160.5279 C66.9697,160.7909 67.5497,160.8689 68.1167,160.9419 C69.9807,161.1829 71.9157,161.4189 73.7067,160.8489 C74.2887,160.6639 74.9107,160.3149 75.0307,159.7159 C75.0697,159.5219 75.0497,159.3189 75.0137,159.1239 C74.7867,157.8779 73.8137,156.7289 72.5607,156.5479"></path>
            <path d="M88.0266,146.8841 L87.9266,146.8951 C87.5886,147.1301 87.2506,147.3651 86.9136,147.6001 C86.8316,147.6571 86.7456,147.7191 86.7086,147.8111 C86.6376,147.9861 86.7736,148.1781 86.9276,148.2871 C87.2636,148.5261 87.7296,148.5681 88.1026,148.3931 C88.4756,148.2181 88.7416,147.8341 88.7736,147.4231 C88.7896,147.2131 88.7396,146.9841 88.5816,146.8461 C88.4236,146.7071 88.1416,146.7081 88.0266,146.8841"></path>
            <path d="M70.2882,153.6039 C70.1652,153.5909 70.0432,153.5789 69.9202,153.5659 L69.9072,153.4639 C69.7702,153.5999 69.6332,153.7359 69.4962,153.8719 C69.6742,153.9879 69.8762,154.1089 70.0852,154.0719 C70.2942,154.0359 70.4482,153.7439 70.2882,153.6039"></path>
            <path d="M56.7,118.4037 C57.699,119.1737 58.96,119.8967 60.158,119.5027 C61.088,119.1967 61.705,118.2877 62.608,117.9087 C63.174,117.6707 63.909,117.5887 64.17,117.0327 C64.322,116.7067 64.242,116.3067 64.04,116.0087 C63.839,115.7107 63.533,115.4997 63.218,115.3257 C61.721,114.5017 59.84,114.4147 58.273,115.0967 L57.827,115.1347 C57.33,115.2677 56.821,115.4047 56.398,115.6977 C55.975,115.9917 55.648,116.4757 55.685,116.9887 C55.728,117.5867 56.226,118.0377 56.7,118.4037"></path>
            <path d="M53.1313,118.3906 C53.3653,118.3166 53.5363,118.0136 53.3883,117.8186 C53.1733,117.6166 52.7893,117.6406 52.6023,117.8666 L52.5103,117.8816 C52.4783,118.0226 52.4463,118.1636 52.4153,118.3046 C52.6463,118.3836 52.8973,118.4646 53.1313,118.3906"></path>
            <path d="M137.8519,107.0261 C137.9739,106.6661 137.7889,106.2801 137.6089,105.9451 C137.3469,105.4561 137.0839,104.9661 136.8219,104.4771 C136.4079,103.7061 135.9909,102.9281 135.4219,102.2641 C134.2309,100.8721 132.4909,100.0961 130.8119,99.3631 C130.2479,99.1171 129.6849,98.8721 129.1219,98.6261 C128.2489,98.2451 127.3759,97.8641 126.5029,97.4841 L123.5989,96.2171 C120.4479,94.8421 117.2969,93.4681 114.1459,92.0931 L113.8089,91.7831 C112.6499,91.7891 111.4909,91.7951 110.3319,91.8011 C110.0379,91.8031 109.7279,91.8001 109.4769,91.6471 C109.2149,91.4881 109.0689,91.1961 108.9089,90.9351 C107.8739,89.2491 105.7599,88.4311 103.7869,88.5591 C101.8129,88.6881 99.9729,89.6301 98.3849,90.8101 C98.0389,91.0671 97.6889,91.3511 97.5119,91.7451 C97.1279,92.5941 97.6949,93.5831 98.3969,94.1961 C99.0989,94.8091 99.9699,95.2591 100.4889,96.0331 C101.0939,96.9361 101.2189,98.2561 102.1939,98.7361 C102.5429,98.9081 102.9419,98.9331 103.3289,98.9721 C104.6999,99.1121 106.0379,99.4731 107.3689,99.8341 C108.8649,100.2391 110.3609,100.6441 111.8569,101.0501 C112.9339,101.3411 114.0269,101.6401 114.9779,102.2231 C116.3759,103.0801 117.3919,104.5071 118.8829,105.1891 C119.4869,105.4661 120.1419,105.6071 120.7919,105.7461 C123.3489,106.2941 125.9159,106.8431 128.5239,107.0321 C130.5779,107.1811 132.8959,107.2101 134.3089,108.7101 C134.6969,109.1221 134.9959,109.6311 135.4659,109.9461 C135.9369,110.2611 136.6829,110.2841 136.9779,109.8011 C137.3039,109.2681 136.8729,108.5301 137.1399,107.9651 C137.3089,107.6071 137.7249,107.4011 137.8519,107.0261"></path>
            <path d="M231.4027,67.9451 C233.1367,68.9561 234.6877,70.2171 234.7267,72.1151 C234.7637,73.9321 233.3107,75.3901 231.9647,76.6101 C230.1327,78.2741 228.2997,79.9371 226.4667,81.6001 C224.5287,83.3591 222.4477,85.1901 219.8727,85.6571 C219.1867,85.7821 218.3887,85.8591 217.9987,86.4371 C217.7907,86.7441 217.7437,87.1471 217.4967,87.4231 C217.0507,87.9221 216.2517,87.7591 215.5987,87.9031 C213.6927,88.3231 213.6027,90.9991 214.0467,92.8991 C215.6077,90.7191 218.4997,89.5811 221.1277,90.1131 C222.1847,91.8061 223.5417,93.3111 225.1167,94.5371 C225.5687,94.8891 226.0507,95.2321 226.3397,95.7261 C226.5617,96.1071 226.6507,96.5501 226.7287,96.9841 C227.2937,100.1061 227.5077,103.2911 227.3637,106.4611 C227.3367,107.0431 227.2887,107.6571 226.9627,108.1411 C226.4527,108.8961 225.4557,109.0961 224.6037,109.4191 C222.0237,110.3971 220.2337,113.1531 220.3907,115.9091 C219.4007,114.9191 217.6917,115.5591 216.3547,115.1401 C215.7217,114.9421 215.1937,114.5091 214.6287,114.1601 C211.8787,112.4621 207.9717,112.9621 205.7377,115.2981 C205.0937,115.8171 205.5317,116.9251 206.2447,117.3461 C206.9567,117.7661 207.8377,117.8211 208.5587,118.2271 C209.1897,118.5831 209.6447,119.1761 210.0827,119.7541 C211.0987,121.0961 212.1157,122.4381 213.1317,123.7801 C213.4327,124.1771 213.7427,124.5951 213.8247,125.0871 C213.9877,126.0751 213.2017,126.9401 212.4787,127.6321 C215.8267,131.2841 219.9237,134.2461 224.4407,136.2821 C226.2027,137.0751 228.3107,138.0851 228.5057,140.0081 C228.6697,141.6241 227.2847,142.9581 225.7207,143.5301 C225.4257,145.3851 224.9197,147.2081 224.2117,148.9491 C223.8477,149.8441 223.4247,150.7381 223.3307,151.7011 C223.1427,153.6321 224.2917,155.4161 224.7307,157.3051 C225.1267,159.0051 224.9417,160.7801 224.7547,162.5151 C222.8927,162.1121 221.6287,160.4511 220.3417,159.0471 C218.6737,157.2261 216.7257,155.6861 214.7887,154.1551 C212.9927,152.7371 211.1317,151.2841 208.9227,150.6851 C207.4857,150.2951 205.9447,150.2811 204.5737,149.6971 C203.3247,149.1651 202.2987,148.1911 201.0377,147.6871 C198.9907,146.8681 196.6877,147.4001 194.5227,147.8121 C189.5167,148.7651 184.1777,148.9711 179.3697,147.4641 C179.1357,147.5091 178.8947,147.5171 178.6427,147.4741 C178.1067,147.3811 177.6387,147.0691 177.1347,146.8641 C175.1427,146.0511 172.9197,146.9551 170.8727,147.6171 C167.7677,148.6221 164.0757,148.9711 161.4917,146.9761 C161.1397,146.7041 160.8007,146.3861 160.3707,146.2711 C159.3707,146.0031 158.4347,146.9751 158.1437,147.9681 C159.1847,148.4241 159.9057,149.5301 159.9037,150.6661 C159.5327,151.7481 157.9487,151.4161 156.8667,151.0461 C152.9267,149.6991 148.6347,150.8121 144.4877,151.1921 C143.6907,151.2651 142.8447,151.2851 142.0267,151.1991 C141.9837,151.6321 142.0827,152.0811 142.3327,152.4381 C141.7617,152.3831 141.1917,152.3281 140.6217,152.2731 C140.4327,152.5701 140.2437,152.8671 140.0547,153.1641 C138.3817,154.1531 136.0767,153.9191 134.6377,152.6131 C134.5357,153.0601 134.4337,153.5071 134.3317,153.9541 C132.4247,152.9781 130.3127,152.4041 128.1737,152.2801 C126.9167,152.2081 125.6287,152.2851 124.4247,151.9171 C123.2207,151.5491 122.0797,150.5851 121.9927,149.3291 C120.8587,150.6261 118.9407,150.9611 117.2357,150.7171 C115.5307,150.4721 113.9377,149.7461 112.2907,149.2401 C108.3967,148.0441 104.2447,148.0911 100.1707,148.1481 C100.1517,147.7181 100.0077,147.2931 99.7617,146.9381 C97.3807,147.9451 94.6627,148.1331 92.1647,147.4641 C92.4297,146.5901 92.8437,145.7621 93.3837,145.0251 C92.2517,144.7341 91.2987,143.8301 90.9487,142.7151 C90.4227,143.5551 89.6167,144.2161 88.6907,144.5671 C86.5727,144.0331 84.2547,144.3411 82.3497,145.4101 C81.5287,145.8701 80.7017,146.4871 79.7627,146.4201 C78.8127,146.3521 78.0757,145.6051 77.2637,145.1061 C76.4507,144.6081 75.1917,144.4481 74.7077,145.2691 C74.8487,145.8881 74.9897,146.5061 75.1307,147.1251 C74.6597,147.5771 74.1657,148.0421 73.5437,148.2381 C72.9217,148.4351 72.1337,148.2711 71.8207,147.6981 C71.3977,146.9231 71.8067,145.5601 70.9457,145.3621 C70.4467,145.2471 70.0117,145.7581 69.8857,146.2541 C69.7597,146.7511 69.7987,147.2921 69.5757,147.7541 C69.1377,148.6641 67.6347,148.7571 67.0867,147.9091 C66.9417,147.6861 66.8597,147.4221 66.6867,147.2211 C66.2017,146.6571 65.2617,146.8401 64.6607,147.2771 C64.6317,147.2991 64.6047,147.3221 64.5757,147.3441 C64.5047,147.5131 64.4237,147.6781 64.3187,147.8311 C63.8427,148.5281 63.0317,148.9011 62.2667,149.2581 C59.6537,150.4811 57.1337,151.9031 54.7347,153.5071 C53.9107,154.0591 53.0537,154.6901 52.7197,155.6251 C52.3847,156.5591 52.8737,157.8391 53.8597,157.9441 L53.8957,157.8191 C55.5027,158.7671 56.8107,160.2171 57.5887,161.9141 C57.0357,161.8631 56.5047,162.3921 56.5537,162.9451 C53.6777,163.7241 50.3427,164.4291 47.9297,162.6811 C45.7287,161.0871 45.1947,158.0801 43.7397,155.7851 C42.7757,154.2621 41.3997,153.0531 40.0437,151.8671 C39.0267,150.9781 38.0097,150.0891 36.9927,149.1991 C35.1767,147.6101 33.2957,145.9841 31.0107,145.2081 C29.9977,144.8641 28.9297,144.6971 27.9267,144.3271 C25.0947,143.2841 22.6897,140.6371 19.6867,140.9231 C18.8287,141.0051 18.0167,141.3301 17.1847,141.5571 C13.8947,142.4531 10.4047,141.7871 7.0607,141.1171 C7.5557,140.2331 6.6927,139.1741 5.7787,138.7391 C4.8637,138.3051 3.7647,138.0881 3.1637,137.2731 C2.2347,136.0141 2.9697,133.9361 1.8217,132.8731 C1.3137,132.4021 0.5357,132.2581 0.1247,131.7011 C-0.4163,130.9691 0.9437,130.4751 1.5337,129.7821 C2.1227,129.0881 1.9257,127.9821 2.3597,127.1821 C2.7937,126.3821 2.6477,125.1441 1.7817,124.8631 C3.7477,123.0661 4.8437,120.3561 4.6787,117.6971 C4.6517,117.2611 4.6007,116.7891 4.8327,116.4181 C4.9657,116.2041 5.1787,116.0531 5.3857,115.9081 C5.9017,115.5461 6.4187,115.1831 6.9347,114.8211 C7.1377,114.6791 7.3567,114.5311 7.6037,114.5271 C7.9097,114.5211 8.1687,114.7331 8.4387,114.8751 C9.4177,115.3901 10.6277,115.0051 11.5877,114.4571 C12.5487,113.9091 13.4597,113.1911 14.5517,113.0131 C15.6437,112.8351 16.9827,113.5021 16.9997,114.6081 C17.2627,113.9581 17.5257,113.3081 17.7887,112.6581 C21.0447,112.7241 24.3487,111.3041 27.4827,112.1881 C30.9317,113.1611 33.1677,116.6611 36.5607,117.8111 C40.0177,118.9831 44.1177,117.5231 47.3077,119.2951 C46.9777,119.6681 46.8357,120.1991 46.9357,120.6871 C48.3227,120.3631 49.7517,120.1281 51.1697,120.2711 C53.0887,120.4651 54.8647,121.3361 56.7157,121.8801 C58.5667,122.4241 60.7047,122.6001 62.3017,121.5171 C61.9217,121.1911 62.0657,120.5261 62.4557,120.2121 C62.8457,119.8981 63.3747,119.8401 63.8727,119.7941 C67.7737,119.4321 71.6737,119.0711 75.5737,118.7101 C75.5057,120.5121 73.1417,121.0921 71.3397,121.1521 C69.3817,121.2171 67.4237,121.2831 65.4657,121.3481 C65.7767,121.5951 65.8167,122.1131 65.5487,122.4051 C66.0137,122.0591 66.6707,122.5691 66.8557,123.1191 C67.0407,123.6691 67.0197,124.3061 67.3747,124.7661 C67.7867,125.3011 68.5457,125.3941 69.2197,125.4221 C71.0587,125.4981 72.9037,125.4051 74.7257,125.1501 C76.8997,123.5571 80.2097,123.5651 83.0577,123.7841 C85.6787,123.9861 88.2997,124.1881 90.9197,124.3901 C91.8947,124.4651 92.9187,124.5561 93.7307,125.1021 C94.2667,125.4621 94.6727,125.9991 95.2317,126.3231 C96.6777,127.1621 98.8047,126.4071 99.9927,127.5831 C100.2477,127.8361 100.4487,128.1721 100.7867,128.2961 C101.1237,128.4191 101.6087,128.0951 101.4397,127.7781 C101.8747,128.2151 102.3097,128.6521 102.7447,129.0891 C104.8047,126.1101 109.8877,126.0191 112.0527,128.9231 C113.2007,129.6691 114.6997,129.4011 116.0507,129.1831 C120.6767,128.4391 125.4497,128.6191 130.0057,129.7111 C129.8407,130.0731 129.6757,130.4351 129.5107,130.7971 C130.4227,131.7161 131.9467,131.1411 133.1827,130.7551 C136.5607,129.7011 140.2017,130.5761 143.6287,131.4591 C145.2857,131.0421 146.8177,130.1151 147.9237,128.8111 C149.1137,127.4071 149.7937,125.6521 150.7767,124.0961 C151.7597,122.5411 153.2297,121.0931 155.0637,120.9481 C156.7217,120.8171 158.2557,121.7711 159.8877,122.0911 C162.6157,122.6271 165.5887,121.3871 168.1557,122.4561 C168.4467,121.6441 169.4237,121.1521 170.2497,121.4001 C170.7137,121.5401 171.0937,121.8671 171.5107,122.1141 C172.8117,122.8871 174.5637,122.8221 175.8047,121.9561 C176.0857,121.1041 176.3677,120.1721 176.0547,119.3311 C175.9247,118.9821 175.6977,118.6731 175.5897,118.3161 C174.9547,116.2311 178.5157,114.4051 177.6097,112.4231 C177.2137,111.5581 176.1607,111.2631 175.2477,110.9931 C173.0687,110.3491 171.0097,109.3001 169.2067,107.9171 C168.3757,107.2791 167.5917,106.5661 166.6687,106.0691 C165.5627,105.4721 164.3077,105.2121 163.1637,104.6901 C160.3917,103.4251 158.5567,100.7881 156.5037,98.5351 C155.1417,97.0401 153.6387,95.6811 152.1377,94.3241 C150.2897,92.6531 148.4017,90.9551 146.1317,89.9241 C146.1507,89.9021 146.1707,89.8821 146.1897,89.8611 C145.2207,89.3941 144.2517,88.9271 143.2827,88.4601 C141.9917,87.8371 140.6817,87.2031 139.6077,86.2541 C138.5017,85.2771 137.5777,83.9331 136.1417,83.5921 C136.4817,81.7481 138.1537,80.3801 139.9487,79.8401 C141.7447,79.3001 143.6637,79.4331 145.5337,79.5711 C146.3387,78.6781 146.0137,77.2051 145.2527,76.2731 C144.4927,75.3411 143.4037,74.7451 142.5137,73.9361 C140.0717,71.7171 139.4057,67.7791 140.9827,64.8811 C141.7117,63.5421 142.8837,61.9981 142.1057,60.6871 C141.6677,59.9481 140.6637,59.4911 140.6457,58.6311 C140.6287,57.7951 141.5587,57.3061 142.3427,57.0161 C144.1337,56.3541 145.9247,55.6921 147.7147,55.0311 C148.6567,53.1521 146.8437,50.5641 144.7567,50.8081 C143.5457,50.9491 142.2447,51.8121 141.2277,51.1401 C140.7437,50.8211 140.5147,50.2441 140.2247,49.7421 C138.0807,46.0271 132.5867,46.2341 129.1467,43.6721 C127.8587,42.7141 126.8987,41.3891 125.7537,40.2641 C122.5517,37.1181 117.7917,35.6421 113.3717,36.4251 L111.6177,38.0241 C111.2427,36.2461 109.2457,35.2431 107.4287,35.2201 C105.6127,35.1971 103.8717,35.8781 102.0917,36.2411 C99.6637,36.7361 97.1517,36.6361 94.6917,36.3461 C91.3537,35.9521 87.7887,35.0521 85.6797,32.4351 C83.5707,29.8181 84.0147,25.0751 87.1837,23.9551 C88.7357,23.4061 90.7487,23.7081 91.7577,22.4071 C90.0707,22.3901 88.3877,22.0041 86.8617,21.2841 C92.0887,18.2691 99.3107,20.3071 104.1877,16.7541 C105.1217,16.0741 105.9277,15.2101 106.9457,14.6621 C111.6237,12.1441 117.9407,17.3461 122.4627,14.5561 C123.3207,15.2371 124.2587,15.8171 125.2527,16.2801 C125.5857,15.2341 125.9187,14.1891 126.2527,13.1431 C132.1237,11.1591 139.1477,11.1921 145.0947,12.9341 C147.2117,13.5541 149.2627,14.4051 151.4157,14.8841 C152.8257,15.1981 154.2927,15.3581 155.5967,15.9801 C156.8837,16.5951 157.9207,17.6181 159.0687,18.4651 C163.5267,21.7571 169.4387,22.2781 174.3657,24.8151 C174.9747,25.1291 175.5957,25.5001 175.9397,26.0931 C176.8587,27.6831 175.4207,30.1061 176.7417,31.3821 C177.6377,32.2471 179.2977,31.7411 179.8757,30.6381 C180.4537,29.5351 180.1597,28.1491 179.5117,27.0851 C180.8307,27.3061 182.0997,26.5801 183.2597,25.9141 C184.4187,25.2491 185.7557,24.5961 187.0407,24.9671 C188.3247,25.3371 189.0497,27.3061 187.9237,28.0271 C191.0307,28.2251 194.1377,28.4231 197.2447,28.6211 C198.1817,28.6811 199.1767,28.7611 199.9307,29.3221 C200.6847,29.8821 201.0187,31.1071 200.3487,31.7641 C201.4107,32.4311 202.7947,32.6641 203.9417,32.1571 C205.0887,31.6501 205.8777,30.3161 205.5627,29.1021 C211.3567,28.5471 217.2447,29.0051 222.8827,30.4481 C223.4247,30.5871 223.9977,30.7551 224.3647,31.1771 C225.0137,31.9231 224.7357,33.0521 224.6427,34.0361 C224.3147,37.5051 226.7307,40.5531 227.9647,43.8111 C229.4877,47.8341 229.2047,52.2851 228.9007,56.5761 C228.1197,56.6021 227.3387,56.6281 226.5587,56.6541 C225.5287,58.0221 223.4597,58.7641 222.7937,60.1661 C223.8997,63.1011 226.5967,65.4081 229.4507,66.8951 C229.9357,67.1481 230.4467,67.4101 230.9517,67.6891 C231.1067,67.7641 231.2577,67.8501 231.4027,67.9451 Z M123.6376,3.9914 C123.4266,3.8754 123.2116,3.7284 123.1306,3.5014 C122.9876,3.0984 123.3356,2.6944 123.6836,2.4454 C124.6836,1.7314 125.9516,1.4014 127.1726,1.5394 L127.8606,1.6784 C129.9186,1.2444 132.0246,0.8084 134.1086,1.0874 C135.3696,1.2564 136.5806,1.6834 137.7806,2.1064 C140.4466,3.0484 143.1126,3.9894 145.7786,4.9314 C147.2106,5.4374 148.6446,5.9434 150.0276,6.5684 C150.5396,6.7994 151.1386,7.2694 150.9236,7.7874 C150.7456,8.2154 150.1636,8.2524 149.7006,8.2204 C146.0466,7.9644 142.3916,7.7084 138.7376,7.4534 C137.1006,7.3384 135.4316,7.2164 133.9116,6.5974 C133.0466,6.2454 132.2486,5.7374 131.3686,5.4244 C128.8826,4.5384 125.9496,5.2624 123.6376,3.9914 Z"></path>
        </g>
        <g id="Liberia" fill="none" stroke="currentColor">
        	<path d="M94.885,150.589 L94.226,150.796 L94.037,150.966 L94.018,151.192 L94.037,151.474 L94.018,151.192 L94.037,150.966 L94.226,150.796 L94.885,150.589 L95.224,150.382 L95.498,150.125 L95.224,150.382 L94.885,150.589 Z M19.158,88.575 L19.049,88.674 L19.157,88.575 L19.365,88.443 L19.39,88.433 L19.365,88.443 L19.158,88.575 Z M18.687,89.065 L18.329,89.611 L18.687,89.065 L18.719,89.027 L18.687,89.065 Z M28.727,47.509 L30.313,47.87 L28.727,47.509 L28.66,47.501 L28.727,47.509 Z M187.416,148.14 L187.077,148.065 L186.587,148.159 L185.909,147.782 L185.475,147.161 L185.155,146.369 L184.967,145.54 L184.967,144.806 L185.607,145.145 L185.815,144.655 L185.777,142.922 L186.116,142.244 L186.643,141.811 L186.888,141.434 L186.813,141.358 L183.812,141.483 L186.813,141.358 L186.361,140.906 L186.643,140.925 L187.566,140.869 L186.945,140.059 L186.719,139.192 L187.039,138.627 L188,138.797 L187.416,138.043 L185.852,134.859 L185.004,131.243 L185.042,129.547 L185.344,127.607 L185.136,126.006 L183.667,125.365 L183.516,126.722 L183.29,127.475 L182.932,127.833 L182.499,127.569 L182.273,126.91 L181.953,126.307 L181.256,126.175 L181.406,125.403 L181.067,125.535 L180.483,126.025 L179.956,126.288 L179.636,126.1 L179.014,125.328 L178.675,125.045 L179.033,124.555 L178.807,124.254 L177.808,123.821 L177.695,123.802 L176.735,123.274 L176.678,123.105 L175.868,122.973 L175.19,122.427 L174.681,121.843 L174.38,121.617 L173.871,122.219 L173.344,123.142 L172.703,123.463 L171.875,122.314 L171.328,121.767 L169.501,120.807 L168.917,120.053 L168.861,119.733 L168.898,118.414 L168.992,118.207 L169.426,117.962 L169.52,117.717 L169.407,117.435 L169.181,117.303 L168.936,117.227 L168.785,117.058 L168.635,116.022 L168.446,115.589 L167.994,115.174 L167.598,115.155 L167.014,115.306 L166.581,115.551 L166.562,115.758 L166.054,115.118 L165.922,114.176 L166.035,113.14 L166.261,112.16 L166.864,110.37 L166.751,109.749 L166.035,108.882 L164,107.225 L163.831,107.017 L163.718,106.471 L163.643,106.32 L163.36,106.226 L162.946,106.358 L162.701,106.339 L159.724,105.623 L158.99,105.115 L158.18,104.926 L156.936,104.964 L154.808,105.265 L154.261,105.473 L153.244,106.057 L152.604,106.207 L151.869,106.207 L151.473,106.076 L151.172,105.849 L150.682,105.567 L150.117,105.36 L146.557,104.55 L146.142,104.399 L146.086,104.211 L146.086,103.89 L146.029,103.514 L145.803,103.137 L145.464,102.948 L145.276,103.099 L145.125,103.306 L144.899,103.325 L144.409,102.892 L143.957,102.383 L143.486,102.195 L142.883,102.704 L142.412,102.478 L141.847,102.459 L141.282,102.685 L140.792,103.156 L140.246,102.609 L140.397,102.327 L140.83,102.082 L141.056,101.667 L140.943,101.31 L140.529,100.481 L140.453,100.029 L140.698,99.275 L141.037,98.974 L141.094,98.71 L140.491,98.013 L139.041,97.241 L138.513,96.562 L138.231,96.355 L138.004,96.751 L137.797,97.599 L137.439,98.465 L136.855,98.936 L136.008,98.653 L134.651,96.826 L134.143,96.355 L133.596,96.205 L132.504,96.242 L132.052,96.148 L131.279,96.092 L131.279,96.091 L132.41,94.66 L132.636,94.566 L133.182,94.471 L133.389,94.34 L133.483,94.132 L133.691,93.492 L133.691,93.398 L134.463,92.983 L134.576,92.983 L135.198,92.23 L138.513,89.592 L143.543,83.941 L144.202,82.924 L144.767,81.586 L145.163,80.192 L145.238,79.552 L145.2,78.93 L144.974,78.648 L144.598,78.403 L144.372,78.064 L144.956,76.783 L145.012,76.048 L144.956,75.295 L145.012,74.466 L145.257,74.07 L146.199,73.336 L146.538,72.902 L146.651,71.791 L145.86,67.383 L145.803,66.253 L145.671,65.819 L145.389,65.33 L144.711,64.651 L144.56,64.369 L144.522,64.067 L144.616,63.483 L144.598,63.163 L144.409,62.805 L143.863,62.108 L143.637,61.75 L143.279,60.319 L142.978,59.697 L142.205,58.586 L141.885,58.039 L141.64,57.135 L141.094,52.633 L140.152,49.374 L139.323,47.735 L137.402,46.774 L136.008,45.87 L134.538,44.778 L133.672,43.742 L133.389,42.461 L133.634,40.728 L128.152,40.445 L127.794,41.368 L126.589,42.837 L126.269,43.798 L126.174,45.399 L126.099,45.663 L125.835,46.134 L125.741,46.417 L125.798,46.699 L126.193,46.831 L126.306,47.057 L126.363,48.131 L126.193,49.054 L125.722,49.901 L124.95,50.73 L123.669,51.503 L123.386,51.729 L123.236,52.162 L123.16,53.104 L122.991,53.518 L122.595,53.876 L121.842,54.102 L121.408,54.366 L120.58,55.402 L120.165,56.061 L119.939,56.551 L120.033,57.342 L120.372,58.171 L120.598,59.057 L120.297,59.98 L119.788,60.262 L117.792,61.035 L117.189,61.11 L116.322,59.716 L115.719,59.358 L115.475,60.432 L115.004,60.225 L114.778,60.281 L114.627,61.016 L114.438,61.035 L113.402,61.336 L113.045,61.562 L112.253,61.487 L111.613,61.845 L111.048,62.372 L110.407,62.824 L109.786,63.031 L109.145,63.126 L108.881,63.22 L108.524,63.333 L107.996,63.804 L108.429,62.221 L108.26,61.6 L107.374,61.148 L107.016,60.846 L106.979,60.055 L106.734,59.867 L105.698,59.904 L105.415,59.848 L104.285,58.793 L103.663,55.892 L103.004,54.95 L102.288,54.875 L100.725,55.289 L100.009,55.176 L99.726,54.856 L99.406,53.933 L99.086,53.537 L98.709,53.292 L98.37,53.179 L97.711,53.085 L96.957,53.104 L96.524,53.198 L96.336,53.349 L96.241,53.857 L96.015,54.008 L95.733,54.102 L95.055,55.101 L94.527,54.649 L93.642,53.085 L93.114,53.857 L91.777,55.157 L91.381,55.327 L91.551,55.817 L91.402,55.976 C91.402,55.976 91.402,55.976 91.402,55.976 L91.551,55.817 L91.381,55.327 L91.212,55.195 L91.72,54.762 L92.003,54.291 L92.135,53.744 L92.154,53.123 L92.342,52.539 L92.775,52.087 L93.736,51.371 L94.772,49.807 L95.168,48.828 L94.979,48.187 L95.808,47.227 L96.128,46.699 L96.354,45.456 L96.618,44.759 L97.014,44.156 L97.522,43.779 L96.543,42.649 L96.467,41.085 L96.938,39.428 L97.428,38.241 L96.26,36.734 L95.865,35.943 L94.659,34.417 L93.604,32.477 L93.152,30.536 L93.265,28.577 L93.868,26.562 L93.924,26.43 L94.263,25.997 L94.358,25.526 L94.282,25.055 L94.037,24.546 L93.51,23.906 L93.02,23.868 L92.53,24.245 L91.984,24.923 L92.041,24.395 L92.549,23.548 L92.643,23.077 L91.796,19.705 L91.796,19.177 L91.645,18.612 L91.193,18.367 L90.081,18.141 L89.403,17.651 L89.328,16.408 L89.629,15.089 L90.081,14.355 L90.289,14.148 L90.364,13.922 L90.289,13.714 L90.081,13.526 L89.818,13.055 L89.629,12.546 L89.403,12.057 L88.989,11.661 L89.479,11.134 L89.761,10.908 L90.27,10.663 L90.835,10.305 L90.59,10.192 L90.27,9.834 L89.46,9.25 L87.162,8.27 L86.559,7.441 L86.182,7.178 L85.862,7.554 L85.636,7.856 L85.297,8.025 L84.901,8.082 L84.543,8.025 L83.752,8.063 L83.055,8.214 L82.641,8.082 L82.716,7.234 L83.149,6.65 L83.752,6.217 L84.129,5.671 L83.865,4.672 L83.281,4.069 L82.358,3.636 L81.454,3.636 L80.889,4.277 L80.776,5.237 L80.776,5.916 L80.587,6.029 L79.947,5.332 L79.476,4.522 L79.269,3.693 L78.967,1.526 L78.703,0.716 L78.214,0.114 L77.441,0 L77.46,0.566 L77.253,0.961 L76.914,1.319 L76.594,1.715 L76.594,2.091 L76.763,2.449 L76.688,2.751 L75.558,3.09 L74.729,3.523 L74.314,3.636 L74.088,3.335 L73.881,3.128 L73.655,3.015 L73.014,3.203 L72.788,3.222 L71.884,3.241 L71.112,3.354 L70.377,3.58 L69.605,3.994 L67.815,5.388 L65.969,6.5 L64.99,6.65 L64.368,6.443 L64.18,5.821 L64.632,3.655 L64.33,2.977 L63.633,2.562 L61.015,1.903 L60.242,1.903 L59.47,2.129 L57.907,3.655 L57.134,4.107 L56.776,3.335 L55.834,3.693 L55.345,3.787 L54.855,3.749 L54.817,6.16 L53.404,11.849 L52.594,13.62 L52.5,14.675 L52.839,15.975 L53.197,16.898 L53.065,17.764 L51.935,18.857 L51.05,19.384 L50.145,19.667 L49.204,19.799 L45.511,19.818 L44.588,19.95 L43.496,20.496 L42.836,21.344 L41.763,23.322 L41.273,23.792 L40.105,24.433 L39.691,24.791 L39.502,25.224 L40.791,26.339 L39.502,25.224 L39.446,25.77 L39.559,36.979 L38.504,37.148 L38.165,37.261 L35.998,38.429 L34.246,39.918 L28.124,47.434 L27.634,48.018 L27.126,48.432 L26.523,48.696 L24.771,49.092 L22.887,50.146 L16.068,55.572 L12.263,60.469 L11.867,60.846 L8.081,62.56 L7.309,62.73 L5.707,65.254 L4.879,66.008 L4.728,66.196 L4.86,66.667 L5.5,67.741 L5.651,68.325 L5.557,68.72 L5.312,68.984 L4.973,69.097 L3.974,69.21 L3.824,69.53 L3.993,70.453 L3.88,71.15 L3.598,72.036 L3.164,72.789 L1.902,73.505 L1.714,74.296 L1.808,75.464 L1.45,75.671 L0,76.35 L1.168,78.026 L1.62,78.497 L2.392,79.138 L3.296,79.703 L4.163,79.948 L4.332,80.174 L4.954,81.36 L4.935,81.963 L4.879,82.397 L4.615,83.414 L4.652,85.26 L5.651,86.447 L11.17,88.914 L18.329,91.476 L18.197,90.911 L18.121,90.327 L18.178,89.988 L18.121,90.327 L18.197,90.911 L18.329,91.476 L19.421,91.872 L24.434,94.6 C26.792,97.377 29.15,100.154 31.508,102.931 L31.572,103.401 L32.344,104.663 L31.835,104.55 L31.515,104.361 L31.27,104.098 L31.044,103.721 L30.705,104.512 L31.609,105.341 L37.524,108.374 L38.56,108.619 L46.83,110.672 L48.299,111.275 L49.58,112.047 L50.277,112.914 L49.938,111.84 L48.883,110.973 L47.463,110.241 C48.689,110.749 49.886,111.333 51.057,111.976 L51.577,112.386 L51.922,112.463 C52.089,112.56 52.256,112.658 52.422,112.757 L52.293,113.027 L51.992,113.215 L51.634,113.177 L51.219,112.914 L51.087,113.535 L51.577,114.157 L52.387,114.609 L54.12,114.948 L54.968,115.325 L57.417,116.869 L59.282,118.923 L62.541,121.504 L63.031,121.767 L63.728,121.937 L64.538,122.351 L65.272,122.954 L65.705,123.67 L65.762,124.216 L65.574,124.8 L65.705,125.271 L65.988,125.61 L66.779,126.081 L67.118,126.364 L68.757,128.21 L75.068,133.409 L80.079,138.231 L81.755,139.833 L86.333,142.508 L87.086,143.619 L86.973,144.052 L86.427,144.749 L86.483,145.201 L86.766,145.182 L88.066,145.446 L88.198,145.503 L88.876,145.672 L89.667,146.106 L90.42,146.614 L90.91,147.085 L91.325,147.895 L91.796,149.572 L92.135,150.269 L94.546,152.548 L94.715,152.435 L94.734,152.284 L94.715,152.435 L94.546,152.548 L97.503,155.317 L98.389,155.788 L99.425,156.165 L100.348,156.674 L100.951,157.521 L100.348,157.521 L100.951,158.331 L101.723,158.727 L102.552,159.028 L103.984,160.102 L105.585,160.856 L106.301,161.326 L108.938,163.606 L110.558,164.548 L112.574,165.113 L112.442,165.358 L112.291,165.452 L113.082,166.055 L114.156,166.563 L115.286,166.902 L116.699,167.11 L117.641,167.543 L118.131,167.618 L119.544,168.278 L120.73,169.05 L123.952,171.781 L125.383,172.535 L127.38,173.27 L131.788,174.89 L134.444,176.359 L139.549,179.995 L144.296,181.709 L145.182,181.878 L145.916,182.255 L147.875,184.421 L149.495,184.987 L155.09,185.665 L157.972,186.795 L159.555,187.04 L161.552,187.567 L162.362,187.888 L162.814,188.189 L163.172,188.509 L163.624,188.735 L164.396,188.829 L164.905,189.037 L165.997,189.903 L166.864,190.167 L167.033,189.79 L167.69,188.721 C167.69,188.721 167.69,188.721 167.69,188.721 L167.033,189.79 L166.864,190.167 L167.391,190.318 L167.806,190.845 L168.051,191.467 L168.333,191.994 L168.842,192.427 L169.407,192.785 L171.215,193.501 L171.969,193.558 L172.176,193.708 L172.327,194.029 L172.515,194.349 L172.911,194.5 L176.038,194.5 L176.622,194.613 L177.695,195.065 L178.392,195.159 L180.804,194.895 L179.278,193.859 L179.033,193.313 L179.108,192.861 L179.579,191.994 L179.73,191.542 L179.655,191.109 L179.334,190.167 L179.41,188.999 L179.334,188.528 L179.202,188.095 L179.146,187.68 L179.353,177.809 L179.146,175.417 L179.014,175.003 L178.75,174.663 L178.392,174.4 L178.035,174.061 L177.808,173.533 L177.808,173.477 L177.809,173.477 L177.809,173.119 L178.072,172.177 L178.129,171.649 L177.809,170.218 L177.827,169.785 L179.24,168.673 L179.843,168.748 L180.22,169.012 L180.408,169.031 L180.389,168.334 L180.126,167.43 L179.711,166.827 L179.391,166.187 L179.447,165.207 L179.089,162.532 L179.203,161.722 L179.768,160.893 L180.521,160.554 L181.293,160.554 L181.953,160.818 L183.177,158.557 L183.46,157.747 L183.498,156.975 L183.121,154.809 L183.592,153.283 L183.799,152.868 L184.138,152.435 L185.325,151.795 L185.438,151.663 L185.965,151.757 L185.89,151.945 L185.645,152.171 L185.701,152.416 L185.852,152.718 L185.852,153.057 L185.965,153.245 L186.398,153.038 L186.643,152.755 L186.813,151.983 L186.926,151.682 L187.472,150.89 L187.736,150.419 L187.792,149.892 L187.661,149.007 L187.416,148.14 Z"></path>
        </g>
        <g id="Liberia-filled" fill="currentColor" stroke="none">
        	<path d="M94.885,150.589 L94.226,150.796 L94.037,150.966 L94.018,151.192 L94.037,151.474 L94.018,151.192 L94.037,150.966 L94.226,150.796 L94.885,150.589 L95.224,150.382 L95.498,150.125 L95.224,150.382 L94.885,150.589 Z M19.158,88.575 L19.049,88.674 L19.157,88.575 L19.365,88.443 L19.39,88.433 L19.365,88.443 L19.158,88.575 Z M18.687,89.065 L18.329,89.611 L18.687,89.065 L18.719,89.027 L18.687,89.065 Z M28.727,47.509 L30.313,47.87 L28.727,47.509 L28.66,47.501 L28.727,47.509 Z M187.416,148.14 L187.077,148.065 L186.587,148.159 L185.909,147.782 L185.475,147.161 L185.155,146.369 L184.967,145.54 L184.967,144.806 L185.607,145.145 L185.815,144.655 L185.777,142.922 L186.116,142.244 L186.643,141.811 L186.888,141.434 L186.813,141.358 L183.812,141.483 L186.813,141.358 L186.361,140.906 L186.643,140.925 L187.566,140.869 L186.945,140.059 L186.719,139.192 L187.039,138.627 L188,138.797 L187.416,138.043 L185.852,134.859 L185.004,131.243 L185.042,129.547 L185.344,127.607 L185.136,126.006 L183.667,125.365 L183.516,126.722 L183.29,127.475 L182.932,127.833 L182.499,127.569 L182.273,126.91 L181.953,126.307 L181.256,126.175 L181.406,125.403 L181.067,125.535 L180.483,126.025 L179.956,126.288 L179.636,126.1 L179.014,125.328 L178.675,125.045 L179.033,124.555 L178.807,124.254 L177.808,123.821 L177.695,123.802 L176.735,123.274 L176.678,123.105 L175.868,122.973 L175.19,122.427 L174.681,121.843 L174.38,121.617 L173.871,122.219 L173.344,123.142 L172.703,123.463 L171.875,122.314 L171.328,121.767 L169.501,120.807 L168.917,120.053 L168.861,119.733 L168.898,118.414 L168.992,118.207 L169.426,117.962 L169.52,117.717 L169.407,117.435 L169.181,117.303 L168.936,117.227 L168.785,117.058 L168.635,116.022 L168.446,115.589 L167.994,115.174 L167.598,115.155 L167.014,115.306 L166.581,115.551 L166.562,115.758 L166.054,115.118 L165.922,114.176 L166.035,113.14 L166.261,112.16 L166.864,110.37 L166.751,109.749 L166.035,108.882 L164,107.225 L163.831,107.017 L163.718,106.471 L163.643,106.32 L163.36,106.226 L162.946,106.358 L162.701,106.339 L159.724,105.623 L158.99,105.115 L158.18,104.926 L156.936,104.964 L154.808,105.265 L154.261,105.473 L153.244,106.057 L152.604,106.207 L151.869,106.207 L151.473,106.076 L151.172,105.849 L150.682,105.567 L150.117,105.36 L146.557,104.55 L146.142,104.399 L146.086,104.211 L146.086,103.89 L146.029,103.514 L145.803,103.137 L145.464,102.948 L145.276,103.099 L145.125,103.306 L144.899,103.325 L144.409,102.892 L143.957,102.383 L143.486,102.195 L142.883,102.704 L142.412,102.478 L141.847,102.459 L141.282,102.685 L140.792,103.156 L140.246,102.609 L140.397,102.327 L140.83,102.082 L141.056,101.667 L140.943,101.31 L140.529,100.481 L140.453,100.029 L140.698,99.275 L141.037,98.974 L141.094,98.71 L140.491,98.013 L139.041,97.241 L138.513,96.562 L138.231,96.355 L138.004,96.751 L137.797,97.599 L137.439,98.465 L136.855,98.936 L136.008,98.653 L134.651,96.826 L134.143,96.355 L133.596,96.205 L132.504,96.242 L132.052,96.148 L131.279,96.092 L131.279,96.091 L132.41,94.66 L132.636,94.566 L133.182,94.471 L133.389,94.34 L133.483,94.132 L133.691,93.492 L133.691,93.398 L134.463,92.983 L134.576,92.983 L135.198,92.23 L138.513,89.592 L143.543,83.941 L144.202,82.924 L144.767,81.586 L145.163,80.192 L145.238,79.552 L145.2,78.93 L144.974,78.648 L144.598,78.403 L144.372,78.064 L144.956,76.783 L145.012,76.048 L144.956,75.295 L145.012,74.466 L145.257,74.07 L146.199,73.336 L146.538,72.902 L146.651,71.791 L145.86,67.383 L145.803,66.253 L145.671,65.819 L145.389,65.33 L144.711,64.651 L144.56,64.369 L144.522,64.067 L144.616,63.483 L144.598,63.163 L144.409,62.805 L143.863,62.108 L143.637,61.75 L143.279,60.319 L142.978,59.697 L142.205,58.586 L141.885,58.039 L141.64,57.135 L141.094,52.633 L140.152,49.374 L139.323,47.735 L137.402,46.774 L136.008,45.87 L134.538,44.778 L133.672,43.742 L133.389,42.461 L133.634,40.728 L128.152,40.445 L127.794,41.368 L126.589,42.837 L126.269,43.798 L126.174,45.399 L126.099,45.663 L125.835,46.134 L125.741,46.417 L125.798,46.699 L126.193,46.831 L126.306,47.057 L126.363,48.131 L126.193,49.054 L125.722,49.901 L124.95,50.73 L123.669,51.503 L123.386,51.729 L123.236,52.162 L123.16,53.104 L122.991,53.518 L122.595,53.876 L121.842,54.102 L121.408,54.366 L120.58,55.402 L120.165,56.061 L119.939,56.551 L120.033,57.342 L120.372,58.171 L120.598,59.057 L120.297,59.98 L119.788,60.262 L117.792,61.035 L117.189,61.11 L116.322,59.716 L115.719,59.358 L115.475,60.432 L115.004,60.225 L114.778,60.281 L114.627,61.016 L114.438,61.035 L113.402,61.336 L113.045,61.562 L112.253,61.487 L111.613,61.845 L111.048,62.372 L110.407,62.824 L109.786,63.031 L109.145,63.126 L108.881,63.22 L108.524,63.333 L107.996,63.804 L108.429,62.221 L108.26,61.6 L107.374,61.148 L107.016,60.846 L106.979,60.055 L106.734,59.867 L105.698,59.904 L105.415,59.848 L104.285,58.793 L103.663,55.892 L103.004,54.95 L102.288,54.875 L100.725,55.289 L100.009,55.176 L99.726,54.856 L99.406,53.933 L99.086,53.537 L98.709,53.292 L98.37,53.179 L97.711,53.085 L96.957,53.104 L96.524,53.198 L96.336,53.349 L96.241,53.857 L96.015,54.008 L95.733,54.102 L95.055,55.101 L94.527,54.649 L93.642,53.085 L93.114,53.857 L91.777,55.157 L91.381,55.327 L91.551,55.817 L91.402,55.976 C91.402,55.976 91.402,55.976 91.402,55.976 L91.551,55.817 L91.381,55.327 L91.212,55.195 L91.72,54.762 L92.003,54.291 L92.135,53.744 L92.154,53.123 L92.342,52.539 L92.775,52.087 L93.736,51.371 L94.772,49.807 L95.168,48.828 L94.979,48.187 L95.808,47.227 L96.128,46.699 L96.354,45.456 L96.618,44.759 L97.014,44.156 L97.522,43.779 L96.543,42.649 L96.467,41.085 L96.938,39.428 L97.428,38.241 L96.26,36.734 L95.865,35.943 L94.659,34.417 L93.604,32.477 L93.152,30.536 L93.265,28.577 L93.868,26.562 L93.924,26.43 L94.263,25.997 L94.358,25.526 L94.282,25.055 L94.037,24.546 L93.51,23.906 L93.02,23.868 L92.53,24.245 L91.984,24.923 L92.041,24.395 L92.549,23.548 L92.643,23.077 L91.796,19.705 L91.796,19.177 L91.645,18.612 L91.193,18.367 L90.081,18.141 L89.403,17.651 L89.328,16.408 L89.629,15.089 L90.081,14.355 L90.289,14.148 L90.364,13.922 L90.289,13.714 L90.081,13.526 L89.818,13.055 L89.629,12.546 L89.403,12.057 L88.989,11.661 L89.479,11.134 L89.761,10.908 L90.27,10.663 L90.835,10.305 L90.59,10.192 L90.27,9.834 L89.46,9.25 L87.162,8.27 L86.559,7.441 L86.182,7.178 L85.862,7.554 L85.636,7.856 L85.297,8.025 L84.901,8.082 L84.543,8.025 L83.752,8.063 L83.055,8.214 L82.641,8.082 L82.716,7.234 L83.149,6.65 L83.752,6.217 L84.129,5.671 L83.865,4.672 L83.281,4.069 L82.358,3.636 L81.454,3.636 L80.889,4.277 L80.776,5.237 L80.776,5.916 L80.587,6.029 L79.947,5.332 L79.476,4.522 L79.269,3.693 L78.967,1.526 L78.703,0.716 L78.214,0.114 L77.441,0 L77.46,0.566 L77.253,0.961 L76.914,1.319 L76.594,1.715 L76.594,2.091 L76.763,2.449 L76.688,2.751 L75.558,3.09 L74.729,3.523 L74.314,3.636 L74.088,3.335 L73.881,3.128 L73.655,3.015 L73.014,3.203 L72.788,3.222 L71.884,3.241 L71.112,3.354 L70.377,3.58 L69.605,3.994 L67.815,5.388 L65.969,6.5 L64.99,6.65 L64.368,6.443 L64.18,5.821 L64.632,3.655 L64.33,2.977 L63.633,2.562 L61.015,1.903 L60.242,1.903 L59.47,2.129 L57.907,3.655 L57.134,4.107 L56.776,3.335 L55.834,3.693 L55.345,3.787 L54.855,3.749 L54.817,6.16 L53.404,11.849 L52.594,13.62 L52.5,14.675 L52.839,15.975 L53.197,16.898 L53.065,17.764 L51.935,18.857 L51.05,19.384 L50.145,19.667 L49.204,19.799 L45.511,19.818 L44.588,19.95 L43.496,20.496 L42.836,21.344 L41.763,23.322 L41.273,23.792 L40.105,24.433 L39.691,24.791 L39.502,25.224 L40.791,26.339 L39.502,25.224 L39.446,25.77 L39.559,36.979 L38.504,37.148 L38.165,37.261 L35.998,38.429 L34.246,39.918 L28.124,47.434 L27.634,48.018 L27.126,48.432 L26.523,48.696 L24.771,49.092 L22.887,50.146 L16.068,55.572 L12.263,60.469 L11.867,60.846 L8.081,62.56 L7.309,62.73 L5.707,65.254 L4.879,66.008 L4.728,66.196 L4.86,66.667 L5.5,67.741 L5.651,68.325 L5.557,68.72 L5.312,68.984 L4.973,69.097 L3.974,69.21 L3.824,69.53 L3.993,70.453 L3.88,71.15 L3.598,72.036 L3.164,72.789 L1.902,73.505 L1.714,74.296 L1.808,75.464 L1.45,75.671 L0,76.35 L1.168,78.026 L1.62,78.497 L2.392,79.138 L3.296,79.703 L4.163,79.948 L4.332,80.174 L4.954,81.36 L4.935,81.963 L4.879,82.397 L4.615,83.414 L4.652,85.26 L5.651,86.447 L11.17,88.914 L18.329,91.476 L18.197,90.911 L18.121,90.327 L18.178,89.988 L18.121,90.327 L18.197,90.911 L18.329,91.476 L19.421,91.872 L24.434,94.6 C26.792,97.377 29.15,100.154 31.508,102.931 L31.572,103.401 L32.344,104.663 L31.835,104.55 L31.515,104.361 L31.27,104.098 L31.044,103.721 L30.705,104.512 L31.609,105.341 L37.524,108.374 L38.56,108.619 L46.83,110.672 L48.299,111.275 L49.58,112.047 L50.277,112.914 L49.938,111.84 L48.883,110.973 L47.463,110.241 C48.689,110.749 49.886,111.333 51.057,111.976 L51.577,112.386 L51.922,112.463 C52.089,112.56 52.256,112.658 52.422,112.757 L52.293,113.027 L51.992,113.215 L51.634,113.177 L51.219,112.914 L51.087,113.535 L51.577,114.157 L52.387,114.609 L54.12,114.948 L54.968,115.325 L57.417,116.869 L59.282,118.923 L62.541,121.504 L63.031,121.767 L63.728,121.937 L64.538,122.351 L65.272,122.954 L65.705,123.67 L65.762,124.216 L65.574,124.8 L65.705,125.271 L65.988,125.61 L66.779,126.081 L67.118,126.364 L68.757,128.21 L75.068,133.409 L80.079,138.231 L81.755,139.833 L86.333,142.508 L87.086,143.619 L86.973,144.052 L86.427,144.749 L86.483,145.201 L86.766,145.182 L88.066,145.446 L88.198,145.503 L88.876,145.672 L89.667,146.106 L90.42,146.614 L90.91,147.085 L91.325,147.895 L91.796,149.572 L92.135,150.269 L94.546,152.548 L94.715,152.435 L94.734,152.284 L94.715,152.435 L94.546,152.548 L97.503,155.317 L98.389,155.788 L99.425,156.165 L100.348,156.674 L100.951,157.521 L100.348,157.521 L100.951,158.331 L101.723,158.727 L102.552,159.028 L103.984,160.102 L105.585,160.856 L106.301,161.326 L108.938,163.606 L110.558,164.548 L112.574,165.113 L112.442,165.358 L112.291,165.452 L113.082,166.055 L114.156,166.563 L115.286,166.902 L116.699,167.11 L117.641,167.543 L118.131,167.618 L119.544,168.278 L120.73,169.05 L123.952,171.781 L125.383,172.535 L127.38,173.27 L131.788,174.89 L134.444,176.359 L139.549,179.995 L144.296,181.709 L145.182,181.878 L145.916,182.255 L147.875,184.421 L149.495,184.987 L155.09,185.665 L157.972,186.795 L159.555,187.04 L161.552,187.567 L162.362,187.888 L162.814,188.189 L163.172,188.509 L163.624,188.735 L164.396,188.829 L164.905,189.037 L165.997,189.903 L166.864,190.167 L167.033,189.79 L167.69,188.721 C167.69,188.721 167.69,188.721 167.69,188.721 L167.033,189.79 L166.864,190.167 L167.391,190.318 L167.806,190.845 L168.051,191.467 L168.333,191.994 L168.842,192.427 L169.407,192.785 L171.215,193.501 L171.969,193.558 L172.176,193.708 L172.327,194.029 L172.515,194.349 L172.911,194.5 L176.038,194.5 L176.622,194.613 L177.695,195.065 L178.392,195.159 L180.804,194.895 L179.278,193.859 L179.033,193.313 L179.108,192.861 L179.579,191.994 L179.73,191.542 L179.655,191.109 L179.334,190.167 L179.41,188.999 L179.334,188.528 L179.202,188.095 L179.146,187.68 L179.353,177.809 L179.146,175.417 L179.014,175.003 L178.75,174.663 L178.392,174.4 L178.035,174.061 L177.808,173.533 L177.808,173.477 L177.809,173.477 L177.809,173.119 L178.072,172.177 L178.129,171.649 L177.809,170.218 L177.827,169.785 L179.24,168.673 L179.843,168.748 L180.22,169.012 L180.408,169.031 L180.389,168.334 L180.126,167.43 L179.711,166.827 L179.391,166.187 L179.447,165.207 L179.089,162.532 L179.203,161.722 L179.768,160.893 L180.521,160.554 L181.293,160.554 L181.953,160.818 L183.177,158.557 L183.46,157.747 L183.498,156.975 L183.121,154.809 L183.592,153.283 L183.799,152.868 L184.138,152.435 L185.325,151.795 L185.438,151.663 L185.965,151.757 L185.89,151.945 L185.645,152.171 L185.701,152.416 L185.852,152.718 L185.852,153.057 L185.965,153.245 L186.398,153.038 L186.643,152.755 L186.813,151.983 L186.926,151.682 L187.472,150.89 L187.736,150.419 L187.792,149.892 L187.661,149.007 L187.416,148.14 Z"></path>
        </g>
        <g id="Kenya" fill="none" stroke="currentColor">
	        <path d="M122.205212,104.897262 L112.237785,90.2455528 L114.876221,31.1448393 L131,12.121397 L125.429967,12.121397 L122.205212,12.121397 L118.687296,12.121397 L114.876221,10.365387 L112.237785,6.56069852 L96.1140065,10.365387 L96.1140065,15.3407488 L91.1302932,17.6820955 L81.4560261,17.6820955 C80.4788274,17.6820955 79.2084691,17.6820955 77.6449511,17.6820955 C75.2996743,17.6820955 71.781759,17.6820955 70.3159609,17.6820955 C68.8501629,17.6820955 65.9185668,15.3407488 65.9185668,15.3407488 C65.9185668,15.3407488 64.257329,15.3407488 60.9348534,15.3407488 C54.8762215,10.8531675 51.8469055,8.60937692 51.8469055,8.60937692 C51.8469055,8.60937692 49.7947883,7.92648412 45.6905537,6.56069852 L39.8273616,3.0486784 L14.3224756,1 C10.218241,2.3657856 8.16612378,3.0486784 8.16612378,3.0486784 C8.16612378,3.0486784 5.23452769,6.56069852 5.23452769,6.56069852 C5.23452769,6.56069852 5.23452769,8.60937692 5.23452769,10.365387 C5.23452769,12.121397 2.3029316,15.3407488 5.23452769,15.3407488 C7.18892508,15.3407488 8.16612378,16.1211977 8.16612378,17.6820955 C8.16612378,19.2429934 8.16612378,20.0234423 8.16612378,20.0234423 C8.16612378,20.0234423 3.76872964,20.608779 9.92508143,27.6328192 C16.0814332,34.6568594 12.458001,32.3921703 13.7361564,34.3641911 C15.0143117,36.3362119 16.3745928,31.4375077 16.3745928,37.5835429 C16.3745928,41.6808997 16.3745928,44.4124709 16.3745928,45.7782565 L16.3745928,50.1682816 L16.3745928,55.4363118 L14.3224756,55.4363118 C10.218241,57.9727708 8.16612378,59.8263369 8.16612378,60.9970103 C8.16612378,62.1676837 8.16612378,63.5334693 8.16612378,65.0943671 C6.21172638,67.8259383 5.23452769,69.1917239 5.23452769,69.1917239 C5.23452769,69.1917239 4.25732899,70.1672851 2.3029316,72.1184073 C2.3029316,72.703744 2.3029316,73.6793052 2.3029316,75.0450908 C2.3029316,76.4108764 3.28013029,77.5815497 5.23452769,78.5571109 L5.23452769,81.4837943 C3.28013029,84.60559 2.3029316,86.1664878 2.3029316,86.1664878 C2.3029316,86.1664878 -0.628664495,90.2455528 2.3029316,90.2455528 C5.23452769,90.2455528 6.11400651,92.6051914 8.16612378,94.3612014 C9.53420195,95.5318748 22.7263844,103.238808 47.742671,117.482001 L59.1758958,124.798709 C59.1758958,126.554719 59.1758958,127.432724 59.1758958,127.432724 C59.1758958,127.432724 59.1758958,131.237413 59.1758958,131.237413 C59.1758958,131.237413 59.1758958,135.042101 60.9348534,135.042101 C62.6938111,135.042101 61.6840391,137.383448 66,140.017463 C70.3159609,142.651478 71.4885993,142.944146 73.5407166,145.285493 C75.5928339,147.62684 77.6449511,149.968187 77.6449511,149.968187 C77.6449511,149.968187 77.9381107,153.187538 81.4560261,153.187538 C83.9483089,153.187538 82.3910737,157.349994 84.0944625,155.821553 C84.7954467,155.192564 84.2790723,160.269608 87.6123779,153.187538 C94.4535394,138.652541 97.516119,133.233815 98.8726493,130.661482 C99.7832072,128.934828 99.9250814,128.490655 99.9250814,127.432724 C99.9250814,124.798709 99.7832072,124.798709 101.977199,124.798709 C104.17119,124.798709 111.065147,116.018659 109.013029,116.603995 C106.960912,117.189332 105.788274,112.799307 112.237785,112.799307 C116.537459,112.799307 119.273616,112.116414 120.446254,110.750629 L122.205212,104.897262 Z"></path>
	    </g>
	    <g id="Kenya-filled" fill="currentColor" stroke="none">
	         <path d="M122.205212,104.897262 L112.237785,90.2455528 L114.876221,31.1448393 L131,12.121397 L125.429967,12.121397 L122.205212,12.121397 L118.687296,12.121397 L114.876221,10.365387 L112.237785,6.56069852 L96.1140065,10.365387 L96.1140065,15.3407488 L91.1302932,17.6820955 L81.4560261,17.6820955 C80.4788274,17.6820955 79.2084691,17.6820955 77.6449511,17.6820955 C75.2996743,17.6820955 71.781759,17.6820955 70.3159609,17.6820955 C68.8501629,17.6820955 65.9185668,15.3407488 65.9185668,15.3407488 C65.9185668,15.3407488 64.257329,15.3407488 60.9348534,15.3407488 C54.8762215,10.8531675 51.8469055,8.60937692 51.8469055,8.60937692 C51.8469055,8.60937692 49.7947883,7.92648412 45.6905537,6.56069852 L39.8273616,3.0486784 L14.3224756,1 C10.218241,2.3657856 8.16612378,3.0486784 8.16612378,3.0486784 C8.16612378,3.0486784 5.23452769,6.56069852 5.23452769,6.56069852 C5.23452769,6.56069852 5.23452769,8.60937692 5.23452769,10.365387 C5.23452769,12.121397 2.3029316,15.3407488 5.23452769,15.3407488 C7.18892508,15.3407488 8.16612378,16.1211977 8.16612378,17.6820955 C8.16612378,19.2429934 8.16612378,20.0234423 8.16612378,20.0234423 C8.16612378,20.0234423 3.76872964,20.608779 9.92508143,27.6328192 C16.0814332,34.6568594 12.458001,32.3921703 13.7361564,34.3641911 C15.0143117,36.3362119 16.3745928,31.4375077 16.3745928,37.5835429 C16.3745928,41.6808997 16.3745928,44.4124709 16.3745928,45.7782565 L16.3745928,50.1682816 L16.3745928,55.4363118 L14.3224756,55.4363118 C10.218241,57.9727708 8.16612378,59.8263369 8.16612378,60.9970103 C8.16612378,62.1676837 8.16612378,63.5334693 8.16612378,65.0943671 C6.21172638,67.8259383 5.23452769,69.1917239 5.23452769,69.1917239 C5.23452769,69.1917239 4.25732899,70.1672851 2.3029316,72.1184073 C2.3029316,72.703744 2.3029316,73.6793052 2.3029316,75.0450908 C2.3029316,76.4108764 3.28013029,77.5815497 5.23452769,78.5571109 L5.23452769,81.4837943 C3.28013029,84.60559 2.3029316,86.1664878 2.3029316,86.1664878 C2.3029316,86.1664878 -0.628664495,90.2455528 2.3029316,90.2455528 C5.23452769,90.2455528 6.11400651,92.6051914 8.16612378,94.3612014 C9.53420195,95.5318748 22.7263844,103.238808 47.742671,117.482001 L59.1758958,124.798709 C59.1758958,126.554719 59.1758958,127.432724 59.1758958,127.432724 C59.1758958,127.432724 59.1758958,131.237413 59.1758958,131.237413 C59.1758958,131.237413 59.1758958,135.042101 60.9348534,135.042101 C62.6938111,135.042101 61.6840391,137.383448 66,140.017463 C70.3159609,142.651478 71.4885993,142.944146 73.5407166,145.285493 C75.5928339,147.62684 77.6449511,149.968187 77.6449511,149.968187 C77.6449511,149.968187 77.9381107,153.187538 81.4560261,153.187538 C83.9483089,153.187538 82.3910737,157.349994 84.0944625,155.821553 C84.7954467,155.192564 84.2790723,160.269608 87.6123779,153.187538 C94.4535394,138.652541 97.516119,133.233815 98.8726493,130.661482 C99.7832072,128.934828 99.9250814,128.490655 99.9250814,127.432724 C99.9250814,124.798709 99.7832072,124.798709 101.977199,124.798709 C104.17119,124.798709 111.065147,116.018659 109.013029,116.603995 C106.960912,117.189332 105.788274,112.799307 112.237785,112.799307 C116.537459,112.799307 119.273616,112.116414 120.446254,110.750629 L122.205212,104.897262 Z"></path>
	    </g>
    </defs>
</svg>