<?xml version="1.0" encoding="utf-8"?><svg xmlns="http://www.w3.org/2000/svg" xmlns:xlink="http://www.w3.org/1999/xlink"><symbol id="arrow" viewBox="0 0 10 17.4" xmlns="http://www.w3.org/2000/svg"><title>arrow</title><path class="ast0" d="M9.6 7.8L2.1.4C1.6-.1.8-.1.4.4c-.5.5-.5 1.2 0 1.7L7 8.7.3 15.3c-.5.5-.5 1.2 0 1.7s1.3.5 1.7 0l7.5-7.5c.4-.2.5-.5.5-.8 0-.3-.1-.6-.4-.9z"/></symbol><symbol id="building-stone" viewBox="0 0 595 477" xmlns="http://www.w3.org/2000/svg"><g id="bLighthouse-website" class="bst0"><g id="bForside-top-billede-v4"><g id="bBoliger-_x26_-erherv"><g id="bbuilding-stone-graphic"><g id="bGroup-3"><path id="bFill-1" class="bst1" d="M4.1 232.8h80.3c1.4 0 2.8-.7 3.5-2l86.2-149.2c1.5-2.5 4.2-4.1 7.1-4.1h255.2c7.8 0 14.6 5.6 16 13.3l24 130.8c1.2 6.7-1.8 13.5-7.7 17L318.2 329c-1.9 1.2-4.2 1.9-6.5 1.9H142.5c-4.3 0-8.2 2.2-10.4 5.9l-37.6 61.5c-1.6 2.7.3 6.2 3.5 6.2h232.3c3.5 0 7-.9 10.1-2.7l253.3-144.2c4.4-2.5 6.8-7.5 6-12.5L558.5 13.4c-1.4-7.8-8.1-13.4-16-13.4H144.9c-5.8 0-11.1 3-14 8L.6 226.6c-1.6 2.8.3 6.2 3.5 6.2"/></g><path id="bFill-4" class="bst1" d="M23.9 260.9h67.8c4.4 0 8.5 2.4 10.7 6.3l13.4 24.3c2.1 3.9 2 8.6-.3 12.4l-20 39.4c-3 4.8-8.2 7.8-13.9 7.8H35.8c-8.1 0-15-6.1-16.1-14.2L7.8 279.5c-1.4-9.9 6.2-18.6 16.1-18.6"/></g></g></g></g></symbol><symbol viewBox="0 0 47.971 47.971" id="close" xmlns="http://www.w3.org/2000/svg"><path d="M28.228 23.986L47.092 5.122a2.998 2.998 0 0 0 0-4.242 2.998 2.998 0 0 0-4.242 0L23.986 19.744 5.121.88a2.998 2.998 0 0 0-4.242 0 2.998 2.998 0 0 0 0 4.242l18.865 18.864L.879 42.85a2.998 2.998 0 1 0 4.242 4.241l18.865-18.864L42.85 47.091c.586.586 1.354.879 2.121.879s1.535-.293 2.121-.879a2.998 2.998 0 0 0 0-4.242L28.228 23.986z"/></symbol><symbol viewBox="0 0 129 129" id="down-arrow" xmlns="http://www.w3.org/2000/svg"><path d="M121.3 34.6c-1.6-1.6-4.2-1.6-5.8 0l-51 51.1-51.1-51.1c-1.6-1.6-4.2-1.6-5.8 0-1.6 1.6-1.6 4.2 0 5.8l53.9 53.9c.8.8 1.8 1.2 2.9 1.2 1 0 2.1-.4 2.9-1.2l53.9-53.9c1.7-1.6 1.7-4.2.1-5.8z"/></symbol><symbol id="i-am-aarhus" viewBox="0 0 95 77" xmlns="http://www.w3.org/2000/svg"><path class="est0" d="M39.6 21.1c.7.5 1.5.8 2.4.8s1.6-.3 2.3-.9 1.2-1.5 1.6-2.7c.4-1.2.6-2.6.6-4.3s-.2-3.1-.6-4.2c-.4-1.1-1-1.9-1.7-2.4s-1.5-.8-2.4-.8c-.9 0-1.6.3-2.3.9s-1.2 1.5-1.6 2.7c-.4 1.2-.6 2.6-.6 4.2 0 1.8.2 3.2.6 4.3.4 1.1 1 1.9 1.7 2.4z"/><path class="est1" d="M38.1 21.5c1.1.7 2.3 1 3.7 1 1.5 0 2.8-.4 3.9-1.1 1.2-.8 2.1-1.8 2.7-3.1.6-1.3 1-2.7 1-4.3 0-1.6-.3-2.9-.9-4.1S47 7.8 45.9 7.1c-1.1-.7-2.3-1-3.7-1-1.5 0-2.8.4-4 1.1s-2 1.7-2.7 3-.9 2.7-.9 4.3.3 3 .9 4.2 1.5 2.1 2.6 2.8zm-.2-11.3c.4-1.2.9-2.1 1.6-2.7s1.4-.9 2.3-.9c.9 0 1.7.3 2.4.8s1.3 1.3 1.7 2.4c.4 1.1.6 2.5.6 4.2s-.2 3.1-.6 4.3c-.4 1.2-.9 2.1-1.6 2.7s-1.4.9-2.3.9-1.7-.3-2.4-.8-1.3-1.3-1.7-2.4c-.4-1.1-.6-2.5-.6-4.3 0-1.6.2-3 .6-4.2zM48 22.4L56.2.3h-1L47 22.4zm5.5-13.9c1 0 1.7.1 2.2.2s.8.4 1 .9c.2.4.3 1.2.3 2.1V19c0 .9-.3 1.6-.8 1.9s-1.3.5-2.4.5v.6c2.5-.1 4-.1 4.6-.1.6 0 2 0 4.1.1v-.6c-.6 0-1.2-.1-1.6-.2-.4-.1-.7-.4-.9-.7-.2-.4-.3-.8-.3-1.5V6.3c-.8.5-1.6.9-2.6 1.1s-2.2.4-3.6.4v.7z"/><path class="est2" d="M70.5 70.8c-2.7.9-5.5 1.8-7.2 1.8-1.7 0-4.5-.9-7.2-1.8-3.1-1-6.1-2-8.4-2s-5.3 1-8.4 2c-2.7.9-5.5 1.8-7.2 1.8s-4.5-.9-7.2-1.8c-3.1-1-6.1-2-8.4-2-4.3 0-15.2 3.5-16.4 3.9l1.2 3.6c3.2-1 12.1-3.7 15.2-3.7 1.7 0 4.5.9 7.2 1.8 3.1 1 6.1 2 8.4 2s5.3-1 8.4-2c2.7-.9 5.5-1.8 7.2-1.8s4.5.9 7.2 1.8c3.1 1 6.1 2 8.4 2 2.3 0 5.3-1 8.4-2 2.7-.9 5.5-1.8 7.2-1.8 3 0 11.7 2.7 14.8 3.7l1.3-3.6c-1.3-.4-11.9-3.9-16.1-3.9-2.3 0-5.3 1-8.4 2zm0-11.4c-2.7.9-5.5 1.8-7.2 1.8-1.7 0-4.5-.9-7.2-1.8-3.1-1-6.1-2-8.4-2s-5.3 1-8.4 2c-2.7.9-5.5 1.8-7.2 1.8s-4.5-.9-7.2-1.8c-3.1-1-6.1-2-8.4-2-4.3 0-15.2 3.5-16.4 3.9l1.2 3.6c3.2-1 12.1-3.7 15.2-3.7 1.7 0 4.5.9 7.2 1.8 3.1 1 6.1 2 8.4 2s5.3-1 8.4-2c2.7-.9 5.5-1.8 7.2-1.8s4.5.9 7.2 1.8c3.1 1 6.1 2 8.4 2 2.3 0 5.3-1 8.4-2 2.7-.9 5.5-1.8 7.2-1.8 3 0 11.7 2.7 14.8 3.7l1.3-3.6c-1.3-.4-11.9-3.9-16.1-3.9-2.3 0-5.3 1-8.4 2zM16.4 48.8c1.7 0 4.5.9 7.2 1.8 3.1 1 6.1 2 8.4 2s5.3-1 8.4-2c2.7-.9 5.5-1.8 7.2-1.8s4.5.9 7.2 1.8c3.1 1 6.1 2 8.4 2 2.3 0 5.3-1 8.4-2 2.7-.9 5.5-1.8 7.2-1.8 3 0 11.7 2.7 14.8 3.7l1.3-3.6c-1.2-.4-11.9-3.9-16-3.9-2.3 0-5.3 1-8.4 2-2.7.9-5.5 1.8-7.2 1.8-1.7 0-4.5-.9-7.2-1.8-3.1-1-6.1-2-8.4-2s-5.3 1-8.4 2c-2.7.9-5.5 1.8-7.2 1.8s-4.5-.9-7.2-1.8c-3.1-1-6.1-2-8.4-2-4.3 0-15.2 3.5-16.4 3.9l1.2 3.6c3.1-1 12-3.7 15.1-3.7z"/></symbol><symbol id="jeg_er_aarhus_oe" viewBox="0 0 166 244" xmlns="http://www.w3.org/2000/svg"><path class="fst0" d="M113.9 235.8c-2.3 0-5.3 1-8.4 2-2.7.9-5.5 1.8-7.2 1.8-1.7 0-4.5-.9-7.2-1.8-3.1-1-6.1-2-8.4-2s-5.3 1-8.4 2c-2.7.9-5.5 1.8-7.2 1.8-1.7 0-4.5-.9-7.2-1.8-3.1-1-6.1-2-8.4-2-4.3 0-15.2 3.5-16.4 3.9l1.2 3.6c3.2-1 12.1-3.7 15.2-3.7 1.7 0 4.5.9 7.2 1.8 3.1 1 6.1 2 8.4 2 2.3 0 5.3-1 8.4-2 2.7-.9 5.5-1.8 7.2-1.8s4.5.9 7.2 1.8c3.1 1 6.1 2 8.4 2 2.3 0 5.3-1 8.4-2 2.7-.9 5.5-1.8 7.2-1.8 3 0 11.7 2.7 14.8 3.7l1.3-3.6c-1.3-.4-11.9-3.9-16.1-3.9zm0-11.5c-2.3 0-5.3 1-8.4 2-2.7.9-5.5 1.8-7.2 1.8-1.7 0-4.5-.9-7.2-1.8-3.1-1-6.1-2-8.4-2s-5.3 1-8.4 2c-2.7.9-5.5 1.8-7.2 1.8-1.7 0-4.5-.9-7.2-1.8-3.1-1-6.1-2-8.4-2-4.3 0-15.2 3.5-16.4 3.9l1.2 3.6c3.2-1 12.1-3.7 15.2-3.7 1.7 0 4.5.9 7.2 1.8 3.1 1 6.1 2 8.4 2 2.3 0 5.3-1 8.4-2 2.7-.9 5.5-1.8 7.2-1.8s4.5.9 7.2 1.8c3.1 1 6.1 2 8.4 2 2.3 0 5.3-1 8.4-2 2.7-.9 5.5-1.8 7.2-1.8 3 0 11.7 2.7 14.8 3.7l1.3-3.6c-1.3-.3-11.9-3.8-16.1-3.9zm0-12.3c-2.3 0-5.3 1-8.4 2-2.7.9-5.5 1.8-7.2 1.8-1.7 0-4.5-.9-7.2-1.8-3.1-1-6.1-2-8.4-2s-5.3 1-8.4 2c-2.7.9-5.5 1.8-7.2 1.8-1.7 0-4.5-.9-7.2-1.8-3.1-1-6.1-2-8.4-2-4.3 0-15.2 3.5-16.4 3.9l1.2 3.6c3.2-1 12.1-3.7 15.2-3.7 1.7 0 4.5.9 7.2 1.8 3.1 1 6.1 2 8.4 2 2.3 0 5.3-1 8.4-2 2.7-.9 5.5-1.8 7.2-1.8s4.5.9 7.2 1.8c3.1 1 6.1 2 8.4 2 2.3 0 5.3-1 8.4-2 2.7-.9 5.5-1.8 7.2-1.8 3 0 11.7 2.7 14.8 3.7l1.3-3.6c-1.3-.4-11.9-3.9-16.1-3.9zm22.4-138.9c0 1-.1 1.9-.4 2.8-.3.8-.6 1.5-1.1 2-.5.6-1.1 1-1.8 1.3s-1.5.4-2.4.4-1.7-.1-2.4-.4-1.3-.7-1.8-1.3c-.5-.6-.9-1.3-1.1-2.1-.3-.8-.4-1.7-.4-2.8V55.9H118v17.3c0 1.8.3 3.4.9 4.9s1.4 2.8 2.5 3.9 2.4 1.9 3.9 2.5 3.3.9 5.2.9 3.7-.3 5.2-.9 2.9-1.4 3.9-2.5c1.1-1.1 1.9-2.4 2.5-3.9s.9-3.1.9-4.9V55.9h-6.8v17.2h.1zm28.9-.6c-.4-.9-.9-1.6-1.5-2.2s-1.3-1.1-2.1-1.5-1.6-.7-2.4-1c-.8-.3-1.6-.5-2.4-.8-.8-.2-1.5-.5-2.1-.8s-1.1-.6-1.5-1-.6-.9-.6-1.5c0-.9.3-1.6.9-2.2.6-.5 1.6-.8 2.8-.8.7 0 1.4.1 2 .3s1.1.4 1.5.6c.4.2.8.5 1.2.7s.7.3 1 .3.6-.1.9-.2c.2-.2.4-.4.6-.7l1.7-3.1c-.5-.5-1.1-.9-1.8-1.3s-1.4-.7-2.1-1-1.6-.5-2.4-.6-1.7-.2-2.6-.2c-1.6 0-3 .2-4.3.7-1.2.5-2.3 1.1-3.1 1.9-.9.8-1.5 1.7-1.9 2.8-.4 1-.7 2.1-.7 3.2 0 1.4.2 2.5.6 3.4.4.9.9 1.7 1.5 2.3s1.3 1.1 2.1 1.5 1.6.7 2.4 1c.8.3 1.6.5 2.4.7.8.2 1.5.5 2.1.7.6.3 1.1.6 1.5 1.1.4.4.6 1 .6 1.7 0 1.2-.3 2-1 2.6-.7.5-1.6.8-2.9.8-.9 0-1.7-.1-2.4-.4s-1.3-.5-1.8-.8-1-.6-1.4-.8c-.4-.3-.8-.4-1.2-.4-.3 0-.6.1-.9.2-.3.1-.5.3-.6.6l-2 3.2c.6.6 1.2 1.1 2 1.6s1.6.9 2.5 1.2 1.8.6 2.7.8c.9.2 1.9.3 2.8.3 1.7 0 3.1-.2 4.4-.8 1.3-.5 2.4-1.2 3.3-2.1s1.6-1.9 2-3.1c.5-1.2.7-2.4.7-3.8.1-1.2-.1-2.2-.5-3.1zm-70.2.2h11.8V85h6.8V55.9h-6.8V68H95V55.9h-6.8V85H95zM36.5 84.5c.4-.3.6-.6.8-1l1.7-5.1h11l1.7 5.1c.1.4.4.8.8 1 .4.3.9.4 1.5.4h5.2L48 55.9h-7L29.8 85H35c.6 0 1.1-.2 1.5-.5zm6.7-18.6c.2-.5.4-1.1.6-1.8.2-.7.4-1.4.7-2.3.2.8.5 1.5.7 2.2.2.7.4 1.3.6 1.8l2.7 8h-8l2.7-7.9zm74.9-41.1h-12v-6.9h9.2v-5h-9.2V6.1h12V.9H99.3V30h18.8zm10.6-5.6h1.7c.5 0 .9.1 1.2.2.3.2.5.4.8.8l4.8 8.5c.5.9 1.3 1.3 2.4 1.3h6.1l-6.2-10.1c-.3-.5-.6-.9-1-1.2-.4-.3-.8-.6-1.3-.8.9-.4 1.8-.8 2.5-1.4s1.3-1.2 1.8-1.9.9-1.5 1.1-2.3c.3-.8.4-1.7.4-2.7 0-1.2-.2-2.4-.6-3.4-.4-1.1-1.1-2-2-2.7s-2.2-1.4-3.6-1.8c-1.5-.4-3.3-.7-5.4-.7h-9.5v29h6.8V19.2zm0-13.3h2.7c1.7 0 3 .4 3.9 1.1.8.7 1.2 1.7 1.2 3 0 .6-.1 1.2-.3 1.8s-.5 1-.9 1.5-.9.7-1.6 1-1.4.3-2.3.3h-2.7V5.9zM25.8 30.3c1.7 0 3.1-.3 4.4-.8 1.2-.5 2.3-1.3 3.1-2.2.8-1 1.4-2.1 1.8-3.4.4-1.3.6-2.8.6-4.4V.9h-6.8v18.7c0 1-.1 1.8-.2 2.5-.2.7-.4 1.2-.7 1.7s-.7.7-1.2.9c-.5.2-1.1.3-1.7.3-.5 0-.9 0-1.2-.1-.3-.1-.6-.1-.8-.1-.4 0-.8.1-1 .3-.2.2-.4.5-.4.8l-.4 3.9c.8.2 1.6.3 2.3.4.7.1 1.4.1 2.2.1zm39.9-4.2c1.3 1.3 2.9 2.4 4.7 3.1s3.8 1.1 5.9 1.1c1.2 0 2.3-.1 3.3-.2s2-.3 2.9-.6c.9-.3 1.8-.6 2.6-1s1.6-.9 2.3-1.4V14.9H77.1v3.7c0 .3.1.6.4.9.2.2.6.3 1 .3h2.9v4.4c-.6.3-1.3.5-2 .6-.7.2-1.5.2-2.5.2-1.2 0-2.4-.2-3.4-.7-1-.4-1.9-1.1-2.7-1.9s-1.3-1.8-1.8-3c-.4-1.2-.6-2.6-.6-4.1 0-1.4.2-2.7.6-3.8s.9-2.1 1.7-2.9 1.6-1.4 2.6-1.9c1-.4 2.2-.7 3.4-.7.7 0 1.3 0 1.8.1.5.2 1 .3 1.5.4s1 .3 1.5.6 1 .5 1.5.8c.4.3.8.4 1.2.4.3 0 .6-.1.9-.2.3-.2.5-.4.7-.7l2-3c-.6-.6-1.3-1.1-2-1.6s-1.6-.9-2.5-1.2-1.9-.6-3-.8-2.2-.3-3.4-.3c-2.3 0-4.5.4-6.4 1.1S67 3.4 65.6 4.7c-1.3 1.3-2.4 2.9-3.1 4.7s-1.1 3.8-1.1 6c0 2.1.4 4.1 1.1 5.9.8 1.9 1.8 3.4 3.2 4.8zm-6.4-1.3h-12v-6.9h9.2v-5h-9.2V6.1h12V.9H40.5V30h18.8zM11.6 55.9L.3 85h5.3c.6 0 1-.2 1.4-.5s.6-.6.8-1l1.7-5.1h11.1l1.7 5.1c.1.4.4.8.8 1 .4.3.9.4 1.5.4h5.2l-11.3-29h-6.9zm-.6 18l2.7-7.9c.2-.5.4-1.1.6-1.8.2-.7.4-1.4.7-2.3.2.8.5 1.5.7 2.2.2.7.4 1.3.6 1.8l2.7 8h-8zm70.3-4.4c.5-.7.9-1.5 1.1-2.3.3-.8.4-1.7.4-2.7 0-1.2-.2-2.4-.6-3.4-.4-1.1-1.1-2-2.1-2.7-.9-.8-2.2-1.4-3.6-1.8-1.5-.4-3.3-.7-5.4-.7h-9.5V85h6.8V74.2h1.7c.5 0 .9.1 1.2.2.3.2.5.4.8.8l4.8 8.5c.5.9 1.3 1.3 2.4 1.3h6.1l-6.2-10.1c-.3-.5-.6-.9-1-1.2-.4-.3-.8-.6-1.3-.8.9-.4 1.8-.8 2.5-1.4s1.4-1.3 1.9-2zm-5.4-2.7c-.2.6-.5 1-.9 1.5s-.9.7-1.6 1-1.4.3-2.3.3h-2.7V61h2.7c1.7 0 3 .4 3.9 1.1.8.7 1.2 1.7 1.2 3 0 .5-.1 1.1-.3 1.7zm21.6 52.6c-.8-1.8-1.8-3.4-3.2-4.8l3.7-5.1h-3.4c-.4 0-.7 0-.9.1-.3.1-.5.1-.7.3-.2.1-.4.3-.6.5s-.4.4-.6.7l-.8 1.1c-1.1-.6-2.2-1-3.5-1.3s-2.5-.4-4-.4c-2.3 0-4.3.4-6.2 1.1-1.9.8-3.5 1.8-4.8 3.1-1.3 1.3-2.4 2.9-3.1 4.7-.7 1.8-1.1 3.8-1.1 5.9 0 2.3.4 4.4 1.3 6.4.9 1.9 2.1 3.6 3.7 4.9l-4 5.5H72c.3 0 .7 0 1-.1s.7-.2 1-.3.6-.3.9-.5.6-.5.8-.8l1.1-1.6c1 .4 2.1.8 3.2 1s2.3.4 3.6.4c2.3 0 4.3-.4 6.2-1.1 1.9-.8 3.5-1.8 4.8-3.2 1.3-1.3 2.3-2.9 3.1-4.7s1.1-3.8 1.1-5.9c-.1-2-.5-4-1.3-5.9zM77 131.6c-1.1-1.6-1.7-3.7-1.7-6.2 0-1.4.2-2.7.6-3.9.4-1.2.9-2.1 1.6-2.9s1.6-1.4 2.6-1.8 2.2-.6 3.5-.6c.8 0 1.5.1 2.1.2s1.3.4 1.8.7L77 131.6zm14.2-2.3c-.4 1.2-.9 2.1-1.6 2.9-.7.8-1.6 1.4-2.6 1.8-1 .4-2.2.6-3.5.6-1.2 0-2.3-.2-3.3-.6l10.2-14.2c.4.7.7 1.6.9 2.5.2.9.3 1.9.3 3 .1 1.6 0 2.9-.4 4zM84.4 181c0-1.6-.3-2.9-.9-4.1s-1.5-2.1-2.6-2.8-2.3-1-3.7-1c-1.5 0-2.8.4-4 1.1s-2 1.7-2.7 3-.9 2.7-.9 4.3.3 3 .9 4.2 1.5 2.1 2.6 2.8 2.3 1 3.7 1c1.5 0 2.8-.4 3.9-1.1s2-1.7 2.7-3 1-2.8 1-4.4zm-3.5 4.3c-.4 1.2-.9 2.1-1.6 2.7s-1.4.9-2.3.9-1.7-.3-2.4-.8-1.3-1.3-1.7-2.4-.6-2.5-.6-4.3c0-1.6.2-3 .6-4.2s.9-2.1 1.6-2.7 1.4-.9 2.3-.9 1.7.3 2.4.8 1.3 1.3 1.7 2.4.6 2.5.6 4.2-.2 3.1-.6 4.3zm10.4 2.5c-.5.4-1.3.5-2.4.5v.6c2.5-.1 4-.1 4.6-.1s2 0 4.1.1v-.6c-.7 0-1.3-.1-1.7-.2s-.7-.4-.9-.7-.3-.8-.3-1.5v-12.7c-.8.5-1.6.9-2.6 1.1s-2.2.4-3.6.4v.7c1 0 1.7.1 2.2.2s.8.4 1 .9.3 1.2.3 2.1v7.3c0 .9-.2 1.6-.7 1.9zm-.1-20.5h-1L82 189.4h1z"/></symbol><symbol id="lighthouse_logo_white" viewBox="0 0 1700.8 610.9" xmlns="http://www.w3.org/2000/svg"><path class="gst0" d="M99.5 260.8H67.2v312.5h113.4v-29.8H99.5zm113.1 312.5h32.3V34.2l-32.3 17.7zm215.6-235.6l-.1-3.6c-.5-25.6-7.1-45.4-19.8-59l-.1-.1c-11.8-11.8-27.6-17.8-47.1-17.8-19.9 0-36.5 6.6-48 19.1-19 20.4-22.4 41.4-22.4 140.5S294 537 313.1 557.3c11.6 12.5 28.2 19.1 48 19.1 18.4 0 35-6.4 46.9-18.1 13.1-12.9 20.1-31.6 20.1-54v-100h-70.5V433h38.2v71.6c0 26.2-13.3 42.4-34.7 42.4-10.3 0-18.7-3.4-24.4-9.9-11.7-13.7-13.7-31.7-13.7-120s2.1-106.3 13.7-120c5.7-6.5 14.1-10 24.4-10 23 0 34.7 15.9 34.7 47.1v3.5h32.4zm146.5 61.7h-68.5V260.8h-32.3v312.5h32.3V429.1h68.5v144.2H607V260.8h-32.3zM639 290.5h51.1v282.8h32.3V290.5h51.1v-29.7H639zm267.3 108.9h-68.5V260.8h-32.3v312.5h32.3V429.1h68.5v144.2h32.3V260.8h-32.3zm148.5-142c-19.9 0-36.5 6.6-48 19.1-19 20.4-22.4 41.4-22.4 140.5s3.3 120.2 22.4 140.5c11.6 12.5 28.2 19.1 48 19.1 19.9 0 37.1-6.8 48.5-19.1 19-20.4 22.4-41.4 22.4-140.5s-3.3-120.2-22.4-140.5c-11.4-12.3-28.6-19.1-48.5-19.1zm24.8 279.6c-5.6 6.4-14.4 10-24.8 10-10.3 0-18.7-3.4-24.4-9.9-11.7-13.7-13.7-31.7-13.7-120s2.1-106.3 13.7-120c5.7-6.5 14.1-10 24.4-10 10.4 0 19.2 3.5 24.8 9.9 11.7 13.7 13.7 31.7 13.7 120 0 88.4-2 106.3-13.7 120zm189.6-28.6c0 23.1-13.8 38.5-34.3 38.5-20.4 0-34.7-15.8-34.7-38.5V260.8H1168v245.5c0 21.2 6.7 39.1 19.5 51.9 12.4 12 29.3 18.6 47.5 18.6s35.1-6.6 47.5-18.6c12.5-12.5 19-30.4 19-51.8V260.8h-32.3v247.6zm167-103.2l-32.6-13.3c-26-10.8-30.9-19.3-30.9-53.8 0-19.2 4.1-33.1 12.3-41.3 5.9-5.9 14-8.8 24.1-8.8 11 0 19.5 3.4 25.3 10 7.8 8.9 10.7 19.7 10.7 39.7v3.5h32.3v-3.5c0-26.1-3.3-45.5-19.5-61.7-11.6-11.6-28.3-17.8-48.4-17.8-19.6 0-34.9 5.7-47 17.3-14.5 13.6-22.1 35.4-22.1 63 0 47.6 9.9 66.2 42.5 79.6l32.6 13.3c24.1 9.9 30 21.5 30 59.4 0 22.6-1.7 35.9-11.1 46.1-5.8 6.2-14.5 9.2-26.6 9.2-11.3 0-20.1-3.1-26.3-9.3-8.1-8.1-11-19.5-11-43.4v-3.5h-32.3v3.5c0 34.4 4.6 50.2 19 65.1 11.5 11.5 28.5 17.3 50.5 17.3 21.7 0 38.6-5.8 50.1-17.3 13.9-14 19.9-34.4 19.9-68.5.2-44.1-6.5-70.7-41.5-84.8zm197.4-114.7v-29.7h-113.4v312.5h113.4v-29.8h-81.1V431.7h69.9V402h-69.9V290.5z"/></symbol><symbol id="mail" viewBox="0 0 18 12.5" xmlns="http://www.w3.org/2000/svg"><path class="hst0" d="M16.1 0H1.9C.9 0 0 .8 0 1.9v8.8c0 1 .9 1.9 1.9 1.9H16c1.1 0 1.9-.8 1.9-1.9V1.9C18 .8 17.1 0 16.1 0zm-.4 1.3L9 6.7 2.3 1.3h13.4zm1 9.3c0 .3-.3.6-.6.6H1.9c-.4 0-.6-.3-.6-.6V2.1L8.6 8c.1.1.3.1.4.1s.3 0 .4-.1l7.3-5.9v8.5z"/></symbol><symbol id="parallax-wave" viewBox="0 0 770 253" xmlns="http://www.w3.org/2000/svg"><defs/><title>parallax-wave</title><path id="iFill-1" class="icls-1" d="M513 253c-18.9 0-42.9-8-68.3-16.6-21.9-7.3-44.5-14.9-58.2-14.9s-36.4 7.6-58.3 14.9c-25.4 8.5-49.4 16.6-68.3 16.6s-43-8.1-68.4-16.6c-21.9-7.3-44.5-14.9-58.2-14.9h-.1c-25.1 0-97.4 22.2-123.2 30.7L0 222.3C10 219 98.6 190 133.3 190h.1c18.9 0 42.8 8.1 68.2 16.6 21.9 7.3 44.6 14.9 58.3 14.9 13.7 0 36.3-7.6 58.2-14.9 25.5-8.5 49.5-16.6 68.4-16.6s42.9 8.1 68.3 16.6c21.9 7.3 44.5 14.9 58.2 14.9 13.7 0 36.3-7.6 58.1-14.9 25.5-8.5 49.5-16.6 68.4-16.6h.1c33.8.1 120.2 29 129.9 32.3l-10.2 29.8c-25.1-8.5-95.5-30.6-119.7-30.7h-.1c-13.7 0-36.4 7.6-58.2 14.9C555.9 245 531.9 253 513 253z"/><path id="iFill-4" class="icls-1" d="M513 158c-18.9 0-42.9-8-68.3-16.6-21.9-7.3-44.5-14.9-58.2-14.9s-36.4 7.6-58.3 14.9c-25.4 8.5-49.4 16.6-68.3 16.6s-43-8.1-68.4-16.6c-21.9-7.3-44.5-14.9-58.2-14.9h-.1c-25.1 0-97.4 22.2-123.2 30.7L0 127.3C10 124 98.6 95 133.3 95h.1c18.9 0 42.8 8.1 68.2 16.6 21.9 7.3 44.6 14.9 58.3 14.9 13.7 0 36.3-7.6 58.2-14.9 25.5-8.5 49.5-16.6 68.4-16.6s42.9 8.1 68.3 16.6c21.9 7.3 44.5 14.9 58.2 14.9 13.7 0 36.3-7.6 58.1-14.9 25.5-8.5 49.5-16.6 68.4-16.6h.1c33.8.1 120.2 29 129.9 32.3l-10.2 29.8c-25.1-8.5-95.5-30.6-119.7-30.7h-.1c-13.7 0-36.4 7.6-58.2 14.9C555.9 150 531.9 158 513 158z"/><path id="iFill-7" class="icls-1" d="M513 63c-18.9 0-42.9-8-68.3-16.6-21.9-7.3-44.5-14.9-58.2-14.9s-36.4 7.6-58.3 14.9C302.8 54.9 278.8 63 259.9 63s-43-8.1-68.4-16.6c-21.9-7.3-44.5-14.9-58.2-14.9h-.1c-25.1 0-97.4 22.2-123.2 30.7L0 32.3C10 29 98.6 0 133.3 0h.1c18.9 0 42.8 8.1 68.2 16.6 21.9 7.3 44.6 14.9 58.3 14.9 13.7 0 36.3-7.6 58.2-14.9C343.6 8.1 367.6 0 386.5 0s42.9 8.1 68.3 16.6c21.9 7.3 44.5 14.9 58.2 14.9 13.7 0 36.3-7.6 58.1-14.9C596.6 8.1 620.6 0 639.5 0h.1c33.8.1 120.2 29 129.9 32.3l-10.2 29.8c-25.1-8.5-95.5-30.6-119.7-30.7h-.1c-13.7 0-36.4 7.6-58.2 14.9C555.9 55 531.9 63 513 63z"/></symbol><symbol id="parallax_wave_footer" viewBox="0 0 110 36" enable-background="new 0 0 110 36" xmlns="http://www.w3.org/2000/svg"><g id="jLighthouse-website" class="jst0"><g id="jForside-top-billede-v4"><g id="jFooter_x2F_-nyhedsbrev"><g id="jParallax-wave"><g id="jGroup-3"><defs><filter id="jAdobe_OpacityMaskFilter" filterUnits="userSpaceOnUse" x="0" y="0" width="109.9" height="9"><feColorMatrix values="1 0 0 0 0 0 1 0 0 0 0 0 1 0 0 0 0 0 1 0"/></filter></defs><mask maskUnits="userSpaceOnUse" x="0" y="0" width="109.9" height="9" id="jmask-2_1_"><g class="jst1"><path id="jpath-1_1_" class="jst2" d="M55 9H0V0h109.9v9z"/></g></mask><path id="jFill-1" class="jst3" d="M73.3 9c-2.7 0-6.1-1.2-9.8-2.4-3.1-1-6.4-2.1-8.3-2.1-2 0-5.2 1.1-8.3 2.1C43.3 7.8 39.8 9 37.1 9c-2.7 0-6.1-1.2-9.8-2.4-3.1-1-6.4-2.1-8.3-2.1-3.6 0-13.9 3.2-17.6 4.4L0 4.6C1.4 4.1 14.1 0 19 0c2.7 0 6.1 1.2 9.7 2.4 3.1 1 6.4 2.1 8.3 2.1 2 0 5.2-1.1 8.3-2.1C49.1 1.2 52.5 0 55.2 0s6.1 1.1 9.8 2.4c3.1 1 6.4 2.1 8.3 2.1 2 0 5.2-1.1 8.3-2.1C85.2 1.2 88.7 0 91.4 0c4.8 0 17.2 4.1 18.6 4.6l-1.5 4.3c-3.6-1.2-13.6-4.4-17.1-4.4-2 0-5.2 1.1-8.3 2.1C79.4 7.9 76 9 73.3 9z"/></g><g id="jGroup-6"><defs><filter id="jAdobe_OpacityMaskFilter_1_" filterUnits="userSpaceOnUse" x="0" y="0" width="109.9" height="9"><feColorMatrix values="1 0 0 0 0 0 1 0 0 0 0 0 1 0 0 0 0 0 1 0"/></filter></defs><mask maskUnits="userSpaceOnUse" x="0" y="0" width="109.9" height="9" id="jmask-4_1_"><g class="jst4"><path id="jpath-3_1_" class="jst2" d="M0 0v9h109.9V0z"/></g></mask><path id="jFill-4" class="jst5" d="M73.3 9c-2.7 0-6.1-1.2-9.8-2.4-3.1-1-6.4-2.1-8.3-2.1-2 0-5.2 1.1-8.3 2.1C43.3 7.8 39.8 9 37.1 9c-2.7 0-6.1-1.2-9.8-2.4-3.1-1-6.4-2.1-8.3-2.1-3.6 0-13.9 3.2-17.6 4.4L0 4.6C1.4 4.1 14.1 0 19 0c2.7 0 6.1 1.2 9.7 2.4 3.1 1 6.4 2.1 8.3 2.1 2 0 5.2-1.1 8.3-2.1C49.1 1.2 52.5 0 55.2 0s6.1 1.1 9.8 2.4c3.1 1 6.4 2.1 8.3 2.1 2 0 5.2-1.1 8.3-2.1C85.2 1.2 88.7 0 91.4 0c4.8 0 17.2 4.1 18.6 4.6l-1.5 4.3c-3.6-1.2-13.6-4.4-17.1-4.4-2 0-5.2 1.1-8.3 2.1C79.4 7.9 76 9 73.3 9z"/></g><g id="jGroup-9"><defs><filter id="jAdobe_OpacityMaskFilter_2_" filterUnits="userSpaceOnUse" x="0" y="0" width="109.9" height="9"><feColorMatrix values="1 0 0 0 0 0 1 0 0 0 0 0 1 0 0 0 0 0 1 0"/></filter></defs><mask maskUnits="userSpaceOnUse" x="0" y="0" width="109.9" height="9" id="jmask-6_1_"><g class="jst6"><path id="jpath-5_1_" class="jst2" d="M55 0H0v9h109.9V0z"/></g></mask><path id="jFill-7" class="jst7" d="M73.3 9c-2.7 0-6.1-1.2-9.8-2.4-3.1-1-6.4-2.1-8.3-2.1-2 0-5.2 1.1-8.3 2.1C43.3 7.8 39.8 9 37.1 9c-2.7 0-6.1-1.2-9.8-2.4-3.1-1-6.4-2.1-8.3-2.1-3.6 0-13.9 3.2-17.6 4.4L0 4.6C1.4 4.1 14.1 0 19 0c2.7 0 6.1 1.2 9.7 2.4 3.1 1 6.4 2.1 8.3 2.1 2 0 5.2-1.1 8.3-2.1C49.1 1.2 52.5 0 55.2 0s6.1 1.1 9.8 2.4c3.1 1 6.4 2.1 8.3 2.1 2 0 5.2-1.1 8.3-2.1C85.2 1.2 88.7 0 91.4 0c4.8 0 17.2 4.1 18.6 4.6l-1.5 4.3c-3.6-1.2-13.6-4.4-17.1-4.4-2 0-5.2 1.1-8.3 2.1C79.4 7.9 76 9 73.3 9z"/></g></g></g></g></g></symbol><symbol id="phone" viewBox="0 0 19.6 19.6" xmlns="http://www.w3.org/2000/svg"><title>phone</title><path class="kst0" d="M18.7 14.2l-2.4-2.4c-.4-.4-.9-.6-1.4-.6-.5 0-1 .2-1.4.6l-1.4 1.4c-.1-.1-.3-.1-.4-.2-.2-.1-.3-.2-.4-.2-1.3-.8-2.5-1.9-3.6-3.3-.6-.7-1-1.3-1.2-2 .4-.3.7-.7 1.1-1l.4-.4c.4-.4.7-.9.7-1.4s-.2-1-.7-1.4L6.6 2c-.1-.1-.2-.3-.4-.4-.2-.3-.5-.6-.8-.8C5 .4 4.5.2 4 .2c-.5 0-1 .2-1.4.6L1.1 2.3c-.5.5-.9 1.2-.9 2-.1 1 .1 2 .6 3.2.7 1.9 1.8 3.7 3.3 5.5 1.9 2.3 4.2 4.1 6.8 5.3 1 .5 2.3 1 3.8 1.1h.3c1 0 1.8-.3 2.4-1.1.2-.3.5-.5.8-.8l.6-.6c.8-.8.8-1.9-.1-2.7zm-.7 2.2c-.2.2-.3.4-.5.5-.3.3-.6.6-.8.9-.5.5-1 .7-1.7.7h-.2c-1.3-.1-2.5-.6-3.4-1-2.5-1.2-4.7-2.9-6.5-5.1-1.5-1.8-2.5-3.5-3.2-5.3-.5-1.1-.6-2-.5-2.8 0-.5.3-1 .6-1.4l1.5-1.5c.2-.1.5-.3.7-.3.2 0 .5.1.7.3.3.3.6.6.8.9l.4.4 1.2 1.2c.2.2.4.5.4.7s-.1.5-.4.8c-.1.1-.2.2-.3.4-.4.3-.8.7-1.1 1-.4.4-.3.7-.3.9.3.7.7 1.4 1.4 2.3 1.2 1.5 2.5 2.6 3.9 3.5.2.1.4.2.5.3.2.1.3.2.4.2.1.1.3.1.4.1.3 0 .5-.2.6-.3l1.5-1.5c.2-.2.5-.4.7-.4.3 0 .6.2.7.4l2.4 2.4c.6.6.6 1.2.1 1.7z"/></symbol><symbol viewBox="0 0 515.667 515.667" id="photo-camera" xmlns="http://www.w3.org/2000/svg"><path d="M446.533 119.425l-54.117-.283-51.85-77.35c-3.117-4.817-8.5-7.933-14.167-7.933H186.717c-5.667 0-10.767 3.117-13.883 7.65l-53.55 77.633-50.15.283C31.167 119.425 0 150.592 0 188.558v223.55c0 37.967 31.167 69.7 69.133 69.7h377.4c37.967 0 69.133-31.733 69.133-69.7v-223.55c.001-37.966-31.166-69.133-69.133-69.133zm35.134 292.683c0 19.267-15.867 35.7-35.133 35.7h-377.4c-19.267 0-35.133-16.433-35.133-35.7v-223.55c0-19.267 15.867-35.133 35.133-35.133h59.217c5.667 0 10.767-3.117 13.883-7.65l53.55-77.633h121.55l51.567 77.067c3.117 4.533 8.5 7.65 13.883 7.65l63.467.567c19.267 0 35.133 15.867 35.133 35.133v223.55h.283z"/><path d="M259.25 160.225c-66.583 0-120.417 54.117-120.417 120.417S192.95 401.058 259.25 401.058s120.417-54.117 120.417-120.417S325.55 160.225 259.25 160.225zm0 206.833c-47.6 0-86.417-38.817-86.417-86.417s38.817-86.417 86.417-86.417 86.417 38.817 86.417 86.417-38.817 86.417-86.417 86.417z"/><circle cx="420.467" cy="210.092" r="6.517"/><path d="M420.467 186.575c-13.033 0-23.517 10.483-23.517 23.517s10.483 23.517 23.517 23.517 23.517-10.483 23.517-23.517-10.484-23.517-23.517-23.517zm0 34c-5.95 0-10.483-4.817-10.483-10.483s4.817-10.483 10.483-10.483c5.667 0 10.483 4.817 10.483 10.483s-4.533 10.483-10.483 10.483z"/></symbol><symbol id="pin" viewBox="0 0 18.8 25" xmlns="http://www.w3.org/2000/svg"><path class="mst0" d="M9.4 0C4.2 0 0 4.2 0 9.4c0 6.9 8.6 15.1 9 15.5.1.1.2.1.4.1s.3 0 .4-.1c.4-.3 9-8.6 9-15.5 0-5.2-4.3-9.4-9.4-9.4zm0 14.6c-2.9 0-5.2-2.3-5.2-5.2s2.3-5.2 5.2-5.2 5.2 2.3 5.2 5.2c0 2.8-2.4 5.2-5.2 5.2z"/></symbol><symbol id="play" viewBox="0 0 15.7 20.4" xmlns="http://www.w3.org/2000/svg"><path class="nst0" d="M0 0v20.4l15.7-10.2z"/></symbol></svg>